Commissioner-LoudExtraLightItalic.ufo
<glyph name="numbersign" format="2">
  <advance width="1349.2421052631578"/>
  <unicode hex="0023"/>
  <outline>
    <contour>
      <point x="3.6210526315789493" y="326.37894736842105" type="line"/>
      <point x="122.65263157894739" y="328.71578947368425"/>
      <point x="258.1684210526316" y="331.0526315789474"/>
      <point x="332.04210526315785" y="331.38947368421054" type="curve"/>
      <point x="829.3473684210526" y="331.38947368421054" type="line"/>
      <point x="902.8842105263158" y="331.0526315789474"/>
      <point x="1038.3999999999999" y="328.71578947368425"/>
      <point x="1157.0947368421052" y="326.37894736842105" type="curve"/>
      <point x="1174.3157894736844" y="414.63157894736844" type="line"/>
      <point x="1055.4526315789474" y="412.29473684210524"/>
      <point x="919.7684210526317" y="409.9578947368421"/>
      <point x="846.0631578947368" y="409.62105263157895" type="curve"/>
      <point x="348.7578947368421" y="409.62105263157895" type="line"/>
      <point x="275.0526315789474" y="409.9578947368421"/>
      <point x="139.70526315789473" y="412.29473684210524"/>
      <point x="20.842105263157897" y="414.63157894736844" type="curve"/>
    </contour>
    <contour>
      <point x="140.73684210526315" y="0.0" type="curve"/>
      <point x="242.18947368421053" y="0.0" type="line"/>
      <point x="297.01052631578943" y="134.33684210526314"/>
      <point x="344.1684210526316" y="251.5157894736842"/>
      <point x="412.65263157894736" y="419.6842105263158" type="curve"/>
      <point x="604.9684210526316" y="876.6947368421052" type="line"/>
      <point x="681.136842105263" y="1051.705263157895"/>
      <point x="730.6315789473683" y="1166.6947368421052"/>
      <point x="792.8" y="1309.3684210526317" type="curve"/>
      <point x="692.1894736842105" y="1309.3684210526317" type="line"/>
      <point x="636.8631578947368" y="1171.6842105263156"/>
      <point x="588.378947368421" y="1052.8631578947368"/>
      <point x="516.2315789473685" y="876.6947368421053" type="curve"/>
      <point x="323.91578947368424" y="419.6842105263158" type="line"/>
      <point x="251.4105263157895" y="253.0105263157895"/>
      <point x="198.73684210526315" y="133.66315789473683"/>
    </contour>
    <contour>
      <point x="241.26315789473685" y="888.7368421052632" type="line"/>
      <point x="360.2947368421053" y="891.0736842105263"/>
      <point x="495.9789473684211" y="893.4105263157895"/>
      <point x="569.6842105263157" y="893.7473684210527" type="curve"/>
      <point x="1066.9894736842105" y="893.7473684210527" type="line"/>
      <point x="1140.6947368421052" y="893.4105263157895"/>
      <point x="1276.0421052631577" y="891.0736842105263"/>
      <point x="1394.736842105263" y="888.7368421052632" type="curve"/>
      <point x="1412.1263157894737" y="976.9894736842105" type="line"/>
      <point x="1293.0947368421052" y="974.6526315789474"/>
      <point x="1157.578947368421" y="972.3157894736842"/>
      <point x="1083.7052631578947" y="971.978947368421" type="curve"/>
      <point x="586.3999999999999" y="971.978947368421" type="line"/>
      <point x="512.8631578947369" y="972.3157894736842"/>
      <point x="377.34736842105264" y="974.6526315789474"/>
      <point x="258.65263157894736" y="976.9894736842105" type="curve"/>
    </contour>
    <contour>
      <point x="605.7894736842105" y="0.0" type="curve"/>
      <point x="707.242105263158" y="0.0" type="line"/>
      <point x="762.0631578947368" y="134.33684210526314"/>
      <point x="809.221052631579" y="251.5157894736842"/>
      <point x="877.7052631578948" y="419.6842105263158" type="curve"/>
      <point x="1070.021052631579" y="876.6947368421052" type="line"/>
      <point x="1146.1894736842107" y="1051.705263157895"/>
      <point x="1195.6842105263156" y="1166.6947368421052"/>
      <point x="1257.8526315789472" y="1309.3684210526317" type="curve"/>
      <point x="1157.2421052631578" y="1309.3684210526317" type="line"/>
      <point x="1101.915789473684" y="1171.6842105263156"/>
      <point x="1053.4315789473685" y="1052.8631578947368"/>
      <point x="981.2842105263159" y="876.6947368421053" type="curve"/>
      <point x="788.9684210526316" y="419.6842105263158" type="line"/>
      <point x="716.4631578947369" y="253.0105263157895"/>
      <point x="663.7894736842104" y="133.66315789473683"/>
    </contour>
  </outline>
</glyph>
<glyph name="dollar" format="2">
  <advance width="1110.0631578947368"/>
  <unicode hex="0024"/>
  <outline>
    <contour>
      <point x="513.0105263157894" y="-19.010526315789473" type="curve" smooth="yes"/>
      <point x="796.5894736842106" y="-19.010526315789473"/>
      <point x="940.2736842105263" y="103.47368421052632"/>
      <point x="983.6210526315789" y="312.2105263157894" type="curve" smooth="yes"/>
      <point x="1020.8" y="489.93684210526317"/>
      <point x="944.4631578947368" y="614.1052631578948"/>
      <point x="643.978947368421" y="741.7473684210526" type="curve" smooth="yes"/>
      <point x="387.05263157894734" y="851.5368421052632"/>
      <point x="301.4105263157895" y="924.5052631578948"/>
      <point x="335.22105263157897" y="1081.8947368421054" type="curve" smooth="yes"/>
      <point x="372.5263157894737" y="1261.0947368421055"/>
      <point x="544.2526315789473" y="1302.9052631578948"/>
      <point x="703.5157894736842" y="1302.9052631578948" type="curve"/>
      <point x="746.6736842105264" y="1302.9052631578948"/>
      <point x="912.6947368421053" y="1246.5684210526317"/>
      <point x="1065.0526315789475" y="1182.2315789473685" type="curve"/>
      <point x="1100.6315789473683" y="1273.3473684210526" type="line"/>
      <point x="993.2421052631579" y="1312.0210526315789"/>
      <point x="783.7052631578947" y="1392.6736842105263"/>
      <point x="701.3263157894736" y="1392.6736842105263" type="curve" smooth="yes"/>
      <point x="437.43157894736845" y="1392.6736842105263"/>
      <point x="285.09473684210525" y="1283.663157894737"/>
      <point x="245.7473684210526" y="1096.7578947368422" type="curve" smooth="yes"/>
      <point x="200.73684210526315" y="887.0315789473684"/>
      <point x="315.57894736842104" y="785.3473684210526"/>
      <point x="580.6947368421053" y="670.378947368421" type="curve" smooth="yes"/>
      <point x="803.6210526315789" y="574.0842105263157"/>
      <point x="927.957894736842" y="489.95789473684215"/>
      <point x="893.978947368421" y="325.89473684210526" type="curve" smooth="yes"/>
      <point x="849.5157894736842" y="112.4"/>
      <point x="676.6315789473684" y="70.08421052631579"/>
      <point x="514.0210526315789" y="70.08421052631579" type="curve"/>
      <point x="423.0736842105263" y="70.08421052631579"/>
      <point x="268.18947368421055" y="130.75789473684213"/>
      <point x="92.33684210526314" y="210.42105263157896" type="curve"/>
      <point x="58.75789473684209" y="116.12631578947368" type="line"/>
      <point x="223.62105263157892" y="47.6421052631579"/>
      <point x="412.67368421052635" y="-19.010526315789473"/>
    </contour>
    <contour>
      <point x="354.7368421052631" y="-274.0" type="curve"/>
      <point x="448.0" y="-274.0" type="line"/>
      <point x="505.15789473684214" y="1.6631578947368415"/>
      <point x="566.4842105263158" y="307.8315789473684"/>
      <point x="582.3157894736842" y="384.0" type="curve"/>
      <point x="702.3157894736842" y="948.0" type="line"/>
      <point x="718.6526315789474" y="1024.3368421052633"/>
      <point x="787.3263157894737" y="1328.336842105263"/>
      <point x="848.0" y="1606.0" type="curve"/>
      <point x="754.736842105263" y="1606.0" type="line"/>
      <point x="697.5789473684209" y="1328.336842105263"/>
      <point x="636.2526315789472" y="1024.1684210526316"/>
      <point x="620.4210526315788" y="948.0" type="curve"/>
      <point x="500.4210526315789" y="384.0" type="line"/>
      <point x="484.25263157894733" y="308.1684210526316"/>
      <point x="415.4105263157894" y="1.831578947368421"/>
    </contour>
  </outline>
</glyph>
<glyph name="ampersand" format="2">
  <advance width="1436.183908045977"/>
  <unicode hex="0026"/>
  <outline>
    <contour>
      <point x="1162.8735632183907" y="0.0" type="curve"/>
      <point x="1292.9655172413793" y="0.0" type="line"/>
      <point x="1200.551724137931" y="110.25287356321839"/>
      <point x="1111.2413793103449" y="217.0344827586207"/>
      <point x="1016.6666666666666" y="330.71264367816093" type="curve"/>
      <point x="640.0229885057471" y="793.7701149425287" type="line" smooth="yes"/>
      <point x="535.1724137931035" y="922.9885057471264"/>
      <point x="496.48275862068965" y="1031.8390804597702"/>
      <point x="523.3793103448276" y="1157.9540229885056" type="curve" smooth="yes"/>
      <point x="551.9080459770115" y="1286.5977011494251"/>
      <point x="645.287356321839" y="1363.7701149425288"/>
      <point x="786.9885057471265" y="1367.7701149425288" type="curve"/>
      <point x="911.471264367816" y="1363.4022988505749"/>
      <point x="996.1609195402299" y="1269.126436781609"/>
      <point x="968.0" y="1129.2183908045977" type="curve" smooth="yes"/>
      <point x="943.8390804597701" y="1012.0459770114942"/>
      <point x="776.2988505747128" y="926.4137931034484"/>
      <point x="605.4942528735634" y="824.4597701149423" type="curve"/>
      <point x="655.1034482758621" y="759.1724137931034" type="line"/>
      <point x="821.7931034482758" y="863.1724137931036"/>
      <point x="1027.057471264368" y="969.2183908045978"/>
      <point x="1056.3218390804598" y="1114.2758620689656" type="curve" smooth="yes"/>
      <point x="1095.0574712643677" y="1305.2183908045977"/>
      <point x="963.3333333333333" y="1450.7356321839081"/>
      <point x="788.6206896551724" y="1450.7356321839081" type="curve" smooth="yes"/>
      <point x="615.8390804597701" y="1450.7356321839081"/>
      <point x="469.21839080459773" y="1347.6781609195402"/>
      <point x="430.85057471264366" y="1170.1609195402298" type="curve" smooth="yes"/>
      <point x="395.58620689655174" y="1000.7356321839081"/>
      <point x="462.11494252873564" y="868.1609195402299"/>
      <point x="567.1724137931034" y="738.0" type="curve" smooth="yes"/>
      <point x="948.0229885057471" y="272.0" type="line"/>
      <point x="1019.816091954023" y="180.73563218390805"/>
      <point x="1095.9770114942528" y="84.73563218390805"/>
    </contour>
    <contour>
      <point x="473.63218390804593" y="-18.735632183908045" type="curve" smooth="yes"/>
      <point x="616.3218390804598" y="-18.735632183908045"/>
      <point x="772.5287356321838" y="117.7471264367816"/>
      <point x="957.9080459770115" y="242.5977011494253" type="curve"/>
      <point x="982.6436781609195" y="242.5977011494253" type="line"/>
      <point x="978.8045977011494" y="266.64367816091954" type="line"/>
      <point x="921.2413793103449" y="321.0344827586207" type="line"/>
      <point x="736.6896551724137" y="187.33333333333331"/>
      <point x="585.5402298850576" y="68.27586206896552"/>
      <point x="479.51724137931035" y="68.27586206896552" type="curve"/>
      <point x="255.65517241379305" y="72.64367816091955"/>
      <point x="149.2183908045977" y="223.44827586206895"/>
      <point x="187.01149425287358" y="406.04597701149424" type="curve" smooth="yes"/>
      <point x="226.4367816091954" y="593.9080459770115"/>
      <point x="374.1379310344828" y="684.2298850574712"/>
      <point x="583.632183908046" y="754.0229885057472" type="curve"/>
      <point x="551.4942528735633" y="824.9425287356322" type="line"/>
      <point x="348.5977011494253" y="760.5747126436781"/>
      <point x="147.3793103448276" y="656.3678160919541"/>
      <point x="96.11494252873564" y="414.57471264367814" type="curve" smooth="yes"/>
      <point x="51.74712643678161" y="205.632183908046"/>
      <point x="182.6896551724138" y="-18.735632183908045"/>
    </contour>
    <contour>
      <point x="1026.712643678161" y="301.9310344827586" type="line"/>
      <point x="1140.5517241379312" y="429.72413793103453"/>
      <point x="1246.5977011494251" y="549.3563218390805"/>
      <point x="1358.8045977011493" y="675.5172413793103" type="curve"/>
      <point x="1270.689655172414" y="735.0114942528736" type="line"/>
      <point x="1171.7931034482756" y="611.7471264367816"/>
      <point x="1076.896551724138" y="494.4827586206896"/>
      <point x="972.0" y="363.2183908045977" type="curve"/>
    </contour>
  </outline>
</glyph>
<glyph name="quotesingle" format="2">
  <advance width="377.62105263157895"/>
  <unicode hex="0027"/>
  <outline>
    <contour>
      <point x="215.57894736842107" y="913.978947368421" type="curve"/>
      <point x="291.9789473684211" y="915.978947368421" type="line"/>
      <point x="335.17894736842106" y="1108.2105263157894"/>
      <point x="387.70526315789476" y="1299.9368421052632"/>
      <point x="441.89473684210526" y="1488.1684210526316" type="curve"/>
      <point x="306.2526315789474" y="1485.4947368421053" type="line"/>
      <point x="281.57894736842104" y="1297.7684210526315"/>
      <point x="255.0736842105263" y="1108.2105263157894"/>
    </contour>
  </outline>
</glyph>
<glyph name="parenleft" format="2">
  <advance width="740.9684210526316"/>
  <unicode hex="0028"/>
  <outline>
    <contour>
      <point x="418.46315789473687" y="-229.7263157894737" type="curve"/>
      <point x="513.7052631578947" y="-199.30526315789473" type="line"/>
      <point x="360.7157894736842" y="60.736842105263165"/>
      <point x="201.93684210526317" y="361.99999999999994"/>
      <point x="269.2631578947369" y="679.978947368421" type="curve" smooth="yes"/>
      <point x="336.58947368421053" y="998.1263157894737"/>
      <point x="614.5263157894736" y="1259.4105263157894"/>
      <point x="863.1999999999999" y="1483.3052631578948" type="curve"/>
      <point x="772.4631578947368" y="1525.3894736842105" type="line"/>
      <point x="532.3157894736843" y="1300.9052631578945"/>
      <point x="248.44210526315788" y="1032.926315789474"/>
      <point x="175.43157894736842" y="690.021052631579" type="curve" smooth="yes"/>
      <point x="102.42105263157896" y="348.9473684210526"/>
      <point x="275.8105263157895" y="30.421052631578945"/>
    </contour>
  </outline>
</glyph>
<glyph name="asterisk" format="2">
  <advance width="925.2631578947369"/>
  <unicode hex="002A"/>
  <outline>
    <contour>
      <point x="872.1684210526315" y="690.5894736842107" type="curve"/>
      <point x="934.4631578947368" y="756.4000000000001" type="line"/>
      <point x="822.7789473684212" y="855.3894736842105"/>
      <point x="708.9263157894736" y="956.042105263158"/>
      <point x="597.2421052631579" y="1055.0315789473686" type="curve"/>
      <point x="493.41052631578947" y="1165.8736842105263"/>
      <point x="386.0842105263158" y="1273.3894736842108"/>
      <point x="282.42105263157896" y="1380.5684210526315" type="curve"/>
      <point x="221.95789473684212" y="1314.5894736842106" type="line"/>
      <point x="331.8105263157895" y="1215.4315789473683"/>
      <point x="445.3263157894737" y="1114.9473684210527"/>
      <point x="557.3473684210527" y="1013.9578947368423" type="curve"/>
      <point x="662.8421052631579" y="906.778947368421"/>
      <point x="768.5052631578947" y="797.6"/>
    </contour>
    <contour>
      <point x="169.05263157894737" y="841.242105263158" type="line"/>
      <point x="307.38947368421054" y="896.5894736842105"/>
      <point x="447.38947368421054" y="951.9368421052632"/>
      <point x="587.5578947368421" y="1009.1157894736842" type="curve"/>
      <point x="730.5684210526315" y="1055.2631578947369"/>
      <point x="873.7473684210527" y="1099.7473684210527"/>
      <point x="1016.757894736842" y="1145.894736842105" type="curve"/>
      <point x="985.3684210526316" y="1229.9157894736843" type="line"/>
      <point x="847.2" y="1174.568421052632"/>
      <point x="707.2" y="1119.2210526315791"/>
      <point x="568.8631578947369" y="1063.8736842105263" type="curve"/>
      <point x="424.021052631579" y="1015.7263157894738"/>
      <point x="280.67368421052635" y="971.4105263157895"/>
      <point x="137.66315789473686" y="925.263157894737" type="curve"/>
    </contour>
    <contour>
      <point x="438.7789473684211" y="604.0000000000001" type="curve"/>
      <point x="527.1368421052631" y="584.1263157894738" type="line"/>
      <point x="553.7894736842105" y="732.9684210526316"/>
      <point x="580.1052631578948" y="881.6421052631579"/>
      <point x="604.9263157894737" y="1032.3157894736842" type="curve"/>
      <point x="642.4421052631579" y="1176.6526315789474"/>
      <point x="678.1263157894737" y="1320.9894736842107"/>
      <point x="715.6421052631578" y="1467.157894736842" type="curve"/>
      <point x="627.4526315789474" y="1486.863157894737" type="line"/>
      <point x="600.8" y="1338.1894736842107"/>
      <point x="574.4842105263158" y="1189.3473684210526"/>
      <point x="549.6631578947369" y="1044.1684210526316" type="curve"/>
      <point x="512.1473684210526" y="896.1684210526315"/>
      <point x="476.2947368421053" y="750.1684210526316"/>
    </contour>
  </outline>
</glyph>
<glyph name="plus" format="2">
  <advance width="1165.0526315789473"/>
  <unicode hex="002B"/>
  <outline>
    <contour>
      <point x="454.52631578947364" y="126.46315789473684" type="curve"/>
      <point x="554.6736842105263" y="126.46315789473684" type="line"/>
      <point x="578.842105263158" y="248.9894736842105"/>
      <point x="604.8421052631579" y="380.84210526315786"/>
      <point x="619.3473684210526" y="454.5473684210526" type="curve"/>
      <point x="678.3368421052631" y="730.1684210526316" type="line"/>
      <point x="695.5157894736841" y="804.2105263157895"/>
      <point x="726.1894736842106" y="939.3894736842105"/>
      <point x="753.1999999999999" y="1058.2526315789473" type="curve"/>
      <point x="653.0526315789474" y="1058.2526315789473" type="line"/>
      <point x="630.715789473684" y="941.5578947368421"/>
      <point x="602.7157894736841" y="801.8736842105263"/>
      <point x="588.2105263157894" y="730.1684210526316" type="curve"/>
      <point x="529.2210526315789" y="454.5473684210526" type="line"/>
      <point x="514.0421052631579" y="382.67368421052623"/>
      <point x="483.3684210526316" y="247.15789473684208"/>
    </contour>
    <contour>
      <point x="146.08421052631581" y="543.8736842105263" type="line"/>
      <point x="265.11578947368423" y="546.2105263157894"/>
      <point x="400.79999999999995" y="548.5473684210526"/>
      <point x="474.5052631578947" y="548.8842105263158" type="curve"/>
      <point x="713.4947368421053" y="548.8842105263158" type="line"/>
      <point x="787.2" y="548.5473684210526"/>
      <point x="922.5473684210526" y="546.2105263157894"/>
      <point x="1041.2421052631578" y="543.8736842105263" type="curve"/>
      <point x="1061.4736842105265" y="640.8421052631578" type="line"/>
      <point x="942.6105263157895" y="638.5052631578948"/>
      <point x="805.0947368421052" y="636.1684210526315"/>
      <point x="731.3894736842105" y="635.8315789473684" type="curve"/>
      <point x="492.4" y="635.8315789473684" type="line"/>
      <point x="418.6947368421052" y="636.1684210526315"/>
      <point x="285.17894736842106" y="638.5052631578948"/>
      <point x="166.31578947368422" y="640.8421052631578" type="curve"/>
    </contour>
  </outline>
</glyph>
<glyph name="comma" format="2">
  <advance width="438.2736842105263"/>
  <unicode hex="002C"/>
  <outline>
    <contour>
      <point x="-62.252631578947366" y="-314.0" type="curve"/>
      <point x="2.2315789473684333" y="-311.8315789473684" type="line"/>
      <point x="86.56842105263155" y="-185.7052631578947"/>
      <point x="220.5052631578947" y="11.17894736842105"/>
      <point x="235.3473684210526" y="85.89473684210527" type="curve" smooth="yes"/>
      <point x="246.69473684210524" y="143.47368421052633"/>
      <point x="229.34736842105266" y="184.37894736842105"/>
      <point x="176.92631578947368" y="194.56842105263158" type="curve"/>
      <point x="111.6" y="191.22105263157894" type="line"/>
      <point x="103.60000000000001" y="138.0"/>
      <point x="97.26315789473685" y="84.77894736842106"/>
      <point x="89.09473684210525" y="32.56842105263158" type="curve"/>
      <point x="41.26315789473684" y="-82.44210526315788"/>
      <point x="-8.757894736842095" y="-196.16842105263157"/>
    </contour>
  </outline>
</glyph>
<glyph name="hyphen" format="2">
  <advance width="841.6842105263158"/>
  <unicode hex="002D"/>
  <outline>
    <contour>
      <point x="145.9157894736842" y="543.0315789473684" type="line"/>
      <point x="249.93684210526317" y="545.3684210526314"/>
      <point x="367.1157894736842" y="547.7052631578947"/>
      <point x="431.9789473684211" y="548.0421052631579" type="curve"/>
      <point x="496.8421052631579" y="547.7052631578947"/>
      <point x="613.6842105263158" y="545.3684210526314"/>
      <point x="717.7052631578947" y="543.0315789473684" type="curve"/>
      <point x="737.7684210526315" y="640.0" type="line"/>
      <point x="633.578947368421" y="637.663157894737"/>
      <point x="514.7368421052631" y="635.3263157894737"/>
      <point x="449.70526315789476" y="634.9894736842106" type="curve"/>
      <point x="385.01052631578943" y="635.3263157894737"/>
      <point x="269.8315789473684" y="637.663157894737"/>
      <point x="165.97894736842105" y="640.0" type="curve"/>
    </contour>
  </outline>
</glyph>
<glyph name="slash" format="2">
  <advance width="883.9157894736843"/>
  <unicode hex="002F"/>
  <outline>
    <contour>
      <point x="-35.242105263157896" y="0.0" type="curve"/>
      <point x="80.8" y="0.0" type="line"/>
      <point x="174.77894736842103" y="148.0"/>
      <point x="254.75789473684213" y="272.0"/>
      <point x="372.0631578947368" y="456.0" type="curve"/>
      <point x="693.1789473684211" y="948.0" type="line"/>
      <point x="818.1684210526316" y="1137.8315789473684"/>
      <point x="903.4947368421053" y="1265.8315789473684"/>
      <point x="1010.8210526315788" y="1426.0" type="curve"/>
      <point x="894.9473684210526" y="1426.0" type="line"/>
      <point x="797.1368421052632" y="1273.8315789473684"/>
      <point x="715.1578947368422" y="1144.0"/>
      <point x="592.021052631579" y="952.1684210526316" type="curve"/>
      <point x="268.7368421052632" y="456.0" type="line"/>
      <point x="145.74736842105267" y="272.5052631578947"/>
      <point x="62.421052631578945" y="146.50526315789475"/>
    </contour>
  </outline>
</glyph>
<glyph name="one" format="2">
  <advance width="829.8105263157895"/>
  <unicode hex="0031"/>
  <outline>
    <contour>
      <point x="215.13684210526316" y="1017.8947368421053" type="line"/>
      <point x="379.81052631578945" y="1103.0526315789473"/>
      <point x="540.8210526315789" y="1186.378947368421"/>
      <point x="705.8315789473684" y="1271.7052631578947" type="curve"/>
      <point x="727.4105263157895" y="1373.6842105263158" type="line"/>
      <point x="553.0315789473685" y="1288.1894736842105"/>
      <point x="379.15789473684214" y="1204.6947368421052"/>
      <point x="204.94736842105263" y="1119.2" type="curve"/>
    </contour>
    <contour>
      <point x="382.69473684210527" y="0.0" type="curve"/>
      <point x="491.59999999999997" y="0.0" type="line"/>
      <point x="520.5894736842104" y="148.98947368421054"/>
      <point x="547.4105263157893" y="278.14736842105265"/>
      <point x="578.5684210526315" y="440.65263157894736" type="curve"/>
      <point x="674.9052631578946" y="894.3368421052631" type="line"/>
      <point x="713.4105263157894" y="1063.3263157894737"/>
      <point x="750.2526315789473" y="1223.157894736842"/>
      <point x="783.4315789473683" y="1369.0105263157895" type="curve"/>
      <point x="727.4105263157895" y="1373.6842105263158" type="line"/>
      <point x="667.1789473684212" y="1324.042105263158" type="line"/>
      <point x="637.8526315789474" y="1177.3894736842105"/>
      <point x="605.0315789473684" y="1012.5894736842105"/>
      <point x="579.3684210526316" y="886.0842105263158" type="curve"/>
      <point x="484.8842105263158" y="440.65263157894736" type="line"/>
      <point x="445.87368421052633" y="278.14736842105265"/>
      <point x="417.3684210526316" y="148.98947368421054"/>
    </contour>
  </outline>
</glyph>
<glyph name="two" format="2">
  <advance width="1093.0736842105264"/>
  <unicode hex="0032"/>
  <outline>
    <contour>
      <point x="-0.6947368421052573" y="0.0" type="line"/>
      <point x="873.2842105263157" y="0.0" type="line"/>
      <point x="893.8526315789474" y="96.82105263157895" type="line"/>
      <point x="733.5578947368422" y="93.81052631578947"/>
      <point x="571.7684210526318" y="90.8"/>
      <point x="408.9684210526316" y="87.62105263157895" type="curve"/>
      <point x="114.21052631578948" y="87.62105263157895" type="line"/>
      <point x="130.73684210526315" y="59.38947368421053" type="line"/>
      <point x="408.9894736842105" y="265.30526315789473" type="line"/>
      <point x="785.8947368421052" y="545.0315789473684"/>
      <point x="995.6421052631579" y="725.1578947368421"/>
      <point x="1044.9684210526316" y="963.4526315789474" type="curve" smooth="yes"/>
      <point x="1092.3157894736842" y="1194.842105263158"/>
      <point x="981.5789473684212" y="1393.6842105263158"/>
      <point x="698.5052631578948" y="1393.6842105263158" type="curve" smooth="yes"/>
      <point x="608.3368421052633" y="1393.6842105263158"/>
      <point x="370.1894736842105" y="1312.5473684210526"/>
      <point x="259.978947368421" y="1274.7157894736843" type="curve"/>
      <point x="253.59999999999997" y="1163.0526315789475" type="line"/>
      <point x="436.8842105263158" y="1235.8736842105263"/>
      <point x="636.7578947368421" y="1303.0736842105264"/>
      <point x="688.4000000000001" y="1303.0736842105264" type="curve"/>
      <point x="908.6105263157895" y="1300.7368421052631"/>
      <point x="989.7473684210527" y="1163.157894736842"/>
      <point x="949.7684210526317" y="975.0947368421054" type="curve" smooth="yes"/>
      <point x="903.2842105263159" y="751.0105263157894"/>
      <point x="683.4947368421053" y="573.5578947368421"/>
      <point x="323.43157894736845" y="303.9789473684211" type="curve"/>
      <point x="222.12631578947367" y="230.8421052631579"/>
      <point x="117.49473684210528" y="156.0421052631579"/>
      <point x="16.18947368421053" y="82.90526315789475" type="curve"/>
    </contour>
  </outline>
</glyph>
<glyph name="four" format="2">
  <advance width="1184.6206896551723"/>
  <unicode hex="0034"/>
  <outline>
    <contour>
      <point x="638.183908045977" y="0.0" type="curve"/>
      <point x="747.1724137931034" y="0.0" type="line"/>
      <point x="770.8045977011494" y="123.47126436781609"/>
      <point x="790.0689655172413" y="221.31034482758622"/>
      <point x="817.7011494252873" y="365.51724137931035" type="curve"/>
      <point x="928.5977011494252" y="887.1034482758621" type="line"/>
      <point x="965.3333333333333" y="1047.103448275862"/>
      <point x="1000.4367816091954" y="1201.471264367816"/>
      <point x="1039.1724137931033" y="1369.103448275862" type="curve"/>
      <point x="926.183908045977" y="1369.103448275862" type="line"/>
      <point x="844.022988505747" y="1276.2068965517242"/>
      <point x="760.2298850574713" y="1182.0459770114942"/>
      <point x="678.4367816091954" y="1089.5172413793102" type="curve"/>
      <point x="441.74712643678157" y="832.4597701149426" type="line"/>
      <point x="323.58620689655174" y="705.0344827586207"/>
      <point x="160.8965517241379" y="532.344827586207"/>
      <point x="48.735632183908045" y="410.91954022988506" type="curve"/>
      <point x="33.58620689655173" y="331.37931034482756" type="line"/>
      <point x="770.4827586206897" y="331.37931034482756" type="line"/>
      <point x="867.4252873563219" y="330.64367816091954"/>
      <point x="1007.8390804597701" y="328.2758620689655"/>
      <point x="1096.7816091954023" y="325.90804597701145" type="curve"/>
      <point x="1117.4022988505747" y="424.8045977011494" type="line"/>
      <point x="1028.0919540229886" y="422.4367816091954"/>
      <point x="885.6781609195403" y="419.7011494252873"/>
      <point x="788.0" y="418.9655172413793" type="curve"/>
      <point x="761.264367816092" y="418.9655172413793" type="line"/>
      <point x="132.8505747126437" y="418.9655172413793" type="line"/>
      <point x="138.6896551724138" y="382.39080459770116" type="line"/>
      <point x="222.48275862068968" y="476.55172413793105"/>
      <point x="305.01149425287355" y="569.448275862069"/>
      <point x="388.8045977011494" y="663.6091954022988" type="curve"/>
      <point x="714.183908045977" y="1016.9885057471265" type="line"/>
      <point x="812.3448275862069" y="1124.0459770114944"/>
      <point x="911.7701149425287" y="1232.7356321839084"/>
      <point x="1011.9310344827585" y="1340.16091954023" type="curve"/>
      <point x="921.448275862069" y="1314.9655172413793" type="line"/>
      <point x="892.1839080459769" y="1166.4367816091954"/>
      <point x="863.2873563218391" y="1027.1724137931035"/>
      <point x="834.390804597701" y="878.6436781609195" type="curve"/>
      <point x="731.7011494252873" y="394.0919540229885" type="line"/>
      <point x="723.8620689655172" y="365.51724137931035" type="line"/>
      <point x="690.3908045977012" y="221.31034482758622"/>
      <point x="667.2873563218391" y="123.83908045977012"/>
    </contour>
  </outline>
</glyph>
<glyph name="five" format="2">
  <advance width="1140.4137931034481"/>
  <unicode hex="0035"/>
  <outline>
    <contour>
      <point x="469.4712643678161" y="-19.103448275862068" type="curve" smooth="yes"/>
      <point x="764.6666666666667" y="-19.103448275862068"/>
      <point x="945.9310344827587" y="115.10344827586208"/>
      <point x="1004.2988505747128" y="389.67816091954023" type="curve" smooth="yes"/>
      <point x="1067.9310344827586" y="685.6781609195402"/>
      <point x="876.8735632183908" y="871.5172413793103"/>
      <point x="636.7126436781609" y="871.5172413793103" type="curve" smooth="yes"/>
      <point x="541.7011494252873" y="871.5172413793103"/>
      <point x="440.1149425287356" y="832.4597701149426"/>
      <point x="355.7931034482759" y="797.9310344827586" type="curve"/>
      <point x="342.32183908045977" y="797.9310344827586" type="line"/>
      <point x="363.2183908045977" y="898.0459770114943" type="line"/>
      <point x="389.5862068965517" y="1020.7356321839081"/>
      <point x="425.37931034482756" y="1178.0689655172414"/>
      <point x="455.01149425287355" y="1319.0804597701149" type="curve"/>
      <point x="408.2988505747126" y="1281.5172413793102" type="line"/>
      <point x="615.1954022988506" y="1281.5172413793102" type="line"/>
      <point x="774.0919540229886" y="1278.4137931034481"/>
      <point x="939.3563218390806" y="1275.3103448275863"/>
      <point x="1101.8850574712644" y="1272.206896551724" type="curve"/>
      <point x="1122.1379310344828" y="1369.103448275862" type="line"/>
      <point x="362.2758620689655" y="1369.103448275862" type="line"/>
      <point x="334.64367816091954" y="1222.528735632184"/>
      <point x="302.64367816091954" y="1059.2183908045977"/>
      <point x="268.64367816091954" y="885.9080459770115" type="curve"/>
      <point x="225.90804597701148" y="680.2298850574713" type="line"/>
      <point x="269.5172413793103" y="675.4942528735633" type="line"/>
      <point x="393.7931034482759" y="744.344827586207"/>
      <point x="528.6436781609195" y="782.8735632183908"/>
      <point x="610.8045977011495" y="782.8735632183908" type="curve"/>
      <point x="808.3448275862069" y="780.5057471264367"/>
      <point x="962.0459770114943" y="655.8620689655172"/>
      <point x="909.7241379310345" y="400.78160919540227" type="curve" smooth="yes"/>
      <point x="862.6666666666666" y="169.12643678160921"/>
      <point x="713.1264367816091" y="73.74712643678161"/>
      <point x="467.83908045977006" y="71.37931034482759" type="curve"/>
      <point x="375.72413793103453" y="71.37931034482759"/>
      <point x="217.99999999999997" y="135.95402298850573"/>
      <point x="49.67816091954023" y="213.74712643678163" type="curve"/>
      <point x="15.954022988505749" y="116.32183908045977" type="line"/>
      <point x="175.74712643678163" y="51.264367816091955"/>
      <point x="369.31034482758616" y="-19.103448275862068"/>
    </contour>
  </outline>
</glyph>
<glyph name="six" format="2">
  <advance width="1203.1494252873563"/>
  <unicode hex="0036"/>
  <outline>
    <contour>
      <point x="575.3103448275862" y="-19.103448275862068" type="curve" smooth="yes"/>
      <point x="860.6666666666667" y="-19.103448275862068"/>
      <point x="1026.2988505747126" y="166.57471264367817"/>
      <point x="1074.2988505747126" y="399.1034482758621" type="curve" smooth="yes"/>
      <point x="1127.4022988505747" y="652.7816091954023"/>
      <point x="984.2988505747127" y="875.5172413793103"/>
      <point x="703.6091954022988" y="875.5172413793103" type="curve" smooth="yes"/>
      <point x="590.3908045977013" y="875.5172413793103"/>
      <point x="382.1609195402299" y="771.0344827586207"/>
      <point x="280.89655172413796" y="703.7701149425287" type="curve"/>
      <point x="255.42528735632183" y="705.7701149425287" type="line"/>
      <point x="234.39080459770113" y="666.735632183908"/>
      <point x="226.39080459770116" y="631.471264367816"/>
      <point x="230.1149425287356" y="582.8505747126437" type="curve"/>
      <point x="372.551724137931" y="695.4942528735633"/>
      <point x="600.367816091954" y="784.5057471264369"/>
      <point x="685.4252873563219" y="787.2413793103449" type="curve"/>
      <point x="936.5057471264369" y="784.5057471264369"/>
      <point x="1022.0919540229885" y="599.7471264367816"/>
      <point x="982.2988505747127" y="412.41379310344826" type="curve" smooth="yes"/>
      <point x="942.5057471264367" y="225.08045977011494"/>
      <point x="815.4942528735631" y="75.74712643678161"/>
      <point x="574.7816091954022" y="71.37931034482759" type="curve"/>
      <point x="292.2758620689655" y="76.85057471264368"/>
      <point x="179.05747126436782" y="308.1379310344828"/>
      <point x="258.85057471264366" y="683.103448275862" type="curve" smooth="yes"/>
      <point x="351.17241379310343" y="1116.5517241379312"/>
      <point x="519.0804597701151" y="1298.6206896551723"/>
      <point x="805.6781609195402" y="1302.9885057471265" type="curve"/>
      <point x="845.83908045977" y="1302.9885057471265"/>
      <point x="1001.8850574712644" y="1253.8850574712644"/>
      <point x="1142.5747126436781" y="1193.7241379310342" type="curve"/>
      <point x="1175.0344827586207" y="1290.0459770114944" type="line"/>
      <point x="1084.4597701149428" y="1325.3103448275863"/>
      <point x="879.6781609195402" y="1393.83908045977"/>
      <point x="805.6781609195402" y="1393.83908045977" type="curve" smooth="yes"/>
      <point x="471.14942528735634" y="1393.83908045977"/>
      <point x="264.6896551724138" y="1167.7701149425286"/>
      <point x="165.2183908045977" y="697.1494252873564" type="curve" smooth="yes"/>
      <point x="74.48275862068967" y="266.36781609195407"/>
      <point x="237.5862068965517" y="-19.103448275862068"/>
    </contour>
  </outline>
</glyph>
<glyph name="seven" format="2">
  <advance width="1032.4421052631578"/>
  <unicode hex="0037"/>
  <outline>
    <contour>
      <point x="128.06315789473683" y="0.0" type="curve"/>
      <point x="254.16842105263154" y="0.0" type="line"/>
      <point x="364.63157894736844" y="169.47368421052633"/>
      <point x="474.58947368421053" y="340.4421052631579"/>
      <point x="583.221052631579" y="506.2526315789474" type="curve"/>
      <point x="777.0105263157894" y="793.8736842105263" type="line"/>
      <point x="893.978947368421" y="967.6631578947369"/>
      <point x="1001.2842105263156" y="1125.957894736842"/>
      <point x="1112.7578947368422" y="1292.421052631579" type="curve"/>
      <point x="1129.8105263157895" y="1369.0105263157895" type="line"/>
      <point x="234.0" y="1369.0105263157895" type="line"/>
      <point x="213.43157894736842" y="1271.6842105263158" type="line"/>
      <point x="388.40000000000003" y="1274.8631578947368"/>
      <point x="563.5368421052631" y="1278.2105263157896"/>
      <point x="738.5052631578948" y="1281.3894736842105" type="curve"/>
      <point x="1031.1157894736843" y="1281.3894736842105" type="line"/>
      <point x="1006.1894736842105" y="1306.9473684210527" type="line"/>
      <point x="934.7157894736843" y="1200.8"/>
      <point x="866.7368421052632" y="1096.3157894736842"/>
      <point x="798.9263157894736" y="990.1684210526316" type="curve"/>
      <point x="509.1578947368421" y="559.4105263157894" type="line"/>
      <point x="383.5157894736842" y="376.10526315789474"/>
      <point x="255.70526315789476" y="187.13684210526316"/>
    </contour>
  </outline>
</glyph>
<glyph name="less" format="2">
  <advance width="1125.0526315789473"/>
  <unicode hex="003C"/>
  <outline>
    <contour>
      <point x="919.6631578947369" y="161.38947368421051" type="curve"/>
      <point x="941.8947368421052" y="262.69473684210527" type="line"/>
      <point x="804.2736842105262" y="326.9894736842105"/>
      <point x="650.3368421052631" y="398.61052631578946"/>
      <point x="509.0526315789474" y="464.7368421052631" type="curve"/>
      <point x="279.4736842105263" y="576.8421052631579" type="line"/>
      <point x="283.64210526315793" y="590.5263157894736" type="line"/>
      <point x="558.6947368421053" y="702.2947368421053" type="line"/>
      <point x="728.2947368421053" y="768.2526315789473"/>
      <point x="912.5473684210525" y="839.8736842105263"/>
      <point x="1078.4842105263156" y="904.0" type="curve"/>
      <point x="1101.221052631579" y="1019.6631578947367" type="line"/>
      <point x="971.8526315789472" y="964.9894736842105"/>
      <point x="847.4947368421053" y="912.6526315789473"/>
      <point x="739.1368421052632" y="868.1473684210526" type="curve"/>
      <point x="522.4842105263158" y="780.1684210526316" type="line"/>
      <point x="417.9578947368421" y="738.5052631578948"/>
      <point x="293.4315789473684" y="689.0105263157895"/>
      <point x="166.4" y="641.178947368421" type="curve"/>
      <point x="144.16842105263157" y="539.8736842105263" type="line"/>
      <point x="251.2" y="492.0421052631579"/>
      <point x="355.89473684210526" y="442.5473684210526"/>
      <point x="440.7578947368421" y="400.88421052631577" type="curve"/>
      <point x="622.0842105263158" y="312.90526315789475" type="line"/>
      <point x="710.2736842105263" y="268.40000000000003"/>
      <point x="814.2947368421051" y="214.2315789473684"/>
    </contour>
  </outline>
</glyph>
<glyph name="equal" format="2">
  <advance width="1125.0526315789473"/>
  <unicode hex="003D"/>
  <outline>
    <contour>
      <point x="102.92631578947368" y="329.6631578947368" type="line"/>
      <point x="221.9578947368421" y="332.0"/>
      <point x="357.64210526315793" y="334.33684210526314"/>
      <point x="431.34736842105264" y="334.6736842105263" type="curve"/>
      <point x="626.9684210526316" y="334.6736842105263" type="line"/>
      <point x="700.6736842105263" y="334.33684210526314"/>
      <point x="836.021052631579" y="332.0"/>
      <point x="954.7157894736841" y="329.6631578947368" type="curve"/>
      <point x="974.9473684210527" y="426.63157894736844" type="line"/>
      <point x="856.0842105263158" y="424.29473684210524"/>
      <point x="718.5684210526316" y="421.9578947368421"/>
      <point x="644.8631578947369" y="421.62105263157895" type="curve"/>
      <point x="449.2421052631579" y="421.62105263157895" type="line"/>
      <point x="375.5368421052632" y="421.9578947368421"/>
      <point x="242.02105263157893" y="424.29473684210524"/>
      <point x="123.15789473684208" y="426.63157894736844" type="curve"/>
    </contour>
    <contour>
      <point x="190.94736842105263" y="758.0842105263158" type="line"/>
      <point x="309.978947368421" y="760.4210526315788"/>
      <point x="445.66315789473686" y="762.7578947368421"/>
      <point x="519.3684210526317" y="763.0947368421052" type="curve"/>
      <point x="714.9894736842106" y="763.0947368421052" type="line"/>
      <point x="788.6947368421053" y="762.7578947368421"/>
      <point x="924.0421052631579" y="760.4210526315788"/>
      <point x="1042.7368421052631" y="758.0842105263158" type="curve"/>
      <point x="1062.9684210526316" y="855.0526315789473" type="line"/>
      <point x="944.1052631578948" y="852.7157894736843"/>
      <point x="806.5894736842106" y="850.378947368421"/>
      <point x="732.8842105263159" y="850.0421052631579" type="curve"/>
      <point x="537.263157894737" y="850.0421052631579" type="line"/>
      <point x="463.5578947368421" y="850.378947368421"/>
      <point x="330.04210526315785" y="852.7157894736843"/>
      <point x="211.17894736842103" y="855.0526315789473" type="curve"/>
    </contour>
  </outline>
</glyph>
<glyph name="greater" format="2">
  <advance width="1125.0526315789473"/>
  <unicode hex="003E"/>
  <outline>
    <contour>
      <point x="64.58947368421052" y="161.38947368421051" type="line"/>
      <point x="193.9578947368421" y="216.06315789473683"/>
      <point x="318.3157894736842" y="268.40000000000003"/>
      <point x="426.67368421052635" y="312.90526315789475" type="curve"/>
      <point x="643.3263157894737" y="400.88421052631577" type="line"/>
      <point x="747.8526315789475" y="442.5473684210526"/>
      <point x="872.378947368421" y="492.0421052631579"/>
      <point x="999.4105263157894" y="539.8736842105263" type="curve"/>
      <point x="1021.6421052631579" y="641.178947368421" type="line"/>
      <point x="914.6105263157895" y="689.0105263157894"/>
      <point x="809.9157894736842" y="738.5052631578948"/>
      <point x="725.0526315789474" y="780.1684210526316" type="curve"/>
      <point x="543.7263157894736" y="868.1473684210526" type="line"/>
      <point x="455.53684210526313" y="912.6526315789474"/>
      <point x="351.51578947368415" y="966.8210526315788"/>
      <point x="246.14736842105262" y="1019.6631578947367" type="curve"/>
      <point x="223.9157894736842" y="918.357894736842" type="line"/>
      <point x="361.53684210526313" y="854.0631578947368"/>
      <point x="515.4736842105262" y="782.4421052631578"/>
      <point x="656.7578947368421" y="716.3157894736842" type="curve"/>
      <point x="886.3368421052631" y="604.2105263157895" type="line"/>
      <point x="882.1684210526315" y="590.5263157894738" type="line"/>
      <point x="607.1157894736842" y="478.7578947368421" type="line"/>
      <point x="437.5157894736842" y="412.8"/>
      <point x="253.26315789473685" y="341.17894736842106"/>
      <point x="87.32631578947368" y="277.0526315789474" type="curve"/>
    </contour>
  </outline>
</glyph>
<glyph name="at" format="2">
  <advance width="1754.5473684210526"/>
  <unicode hex="0040"/>
  <outline>
    <contour>
      <point x="947.3684210526317" y="-249.89473684210526" type="curve" smooth="yes"/>
      <point x="1075.7052631578947" y="-249.89473684210526"/>
      <point x="1329.2" y="-161.0736842105263"/>
      <point x="1511.7052631578947" y="-100.25263157894736" type="curve"/>
      <point x="1511.7052631578947" y="-8.905263157894737" type="line"/>
      <point x="1287.684210526316" y="-93.74736842105263"/>
      <point x="1046.6736842105265" y="-168.73684210526318"/>
      <point x="947.3684210526317" y="-172.90526315789475" type="curve"/>
      <point x="379.4315789473684" y="-166.5684210526316"/>
      <point x="125.78947368421053" y="234.33684210526314"/>
      <point x="216.46315789473684" y="666.8421052631579" type="curve" smooth="yes"/>
      <point x="302.4421052631579" y="1075.7263157894736"/>
      <point x="587.6842105263158" y="1246.2736842105262"/>
      <point x="937.3684210526317" y="1252.6105263157895" type="curve"/>
      <point x="1381.642105263158" y="1246.2736842105262"/>
      <point x="1630.6105263157895" y="914.8842105263159"/>
      <point x="1553.2842105263157" y="502.5684210526316" type="curve" smooth="yes"/>
      <point x="1538.1263157894737" y="422.77894736842103"/>
      <point x="1348.3789473684208" y="204.02105263157895"/>
      <point x="1281.0526315789473" y="201.66315789473683" type="curve"/>
      <point x="1172.9263157894738" y="207.8315789473684"/>
      <point x="1127.4526315789474" y="264.65263157894736"/>
      <point x="1154.2947368421053" y="398.0210526315789" type="curve"/>
      <point x="1216.0842105263157" y="695.4736842105262" type="line"/>
      <point x="1237.4315789473685" y="772.3368421052631"/>
      <point x="1264.2736842105267" y="869.1789473684211"/>
      <point x="1289.2842105263157" y="958.021052631579" type="curve"/>
      <point x="1202.042105263158" y="951.1789473684211" type="line"/>
      <point x="1171.536842105263" y="839.0315789473683" type="line"/>
      <point x="1160.1894736842105" y="839.0315789473683" type="line"/>
      <point x="1090.3578947368421" y="898.378947368421"/>
      <point x="970.2315789473683" y="969.8526315789474"/>
      <point x="883.7684210526317" y="969.8526315789474" type="curve" smooth="yes"/>
      <point x="696.1052631578948" y="969.8526315789474"/>
      <point x="550.2947368421053" y="828.9894736842106"/>
      <point x="503.13684210526316" y="602.3578947368421" type="curve" smooth="yes"/>
      <point x="452.9684210526316" y="364.1684210526316"/>
      <point x="546.9894736842106" y="144.98947368421054"/>
      <point x="786.6315789473684" y="144.98947368421054" type="curve" smooth="yes"/>
      <point x="852.2736842105264" y="144.98947368421054"/>
      <point x="965.4105263157895" y="207.81052631578947"/>
      <point x="1055.9157894736843" y="286.63157894736844" type="curve"/>
      <point x="1067.0947368421052" y="286.63157894736844" type="line"/>
      <point x="1084.1263157894737" y="205.47368421052633"/>
      <point x="1142.5263157894738" y="125.32631578947368"/>
      <point x="1295.0526315789475" y="125.32631578947368" type="curve" smooth="yes"/>
      <point x="1366.9052631578948" y="125.32631578947368"/>
      <point x="1604.9473684210527" y="355.4947368421053"/>
      <point x="1629.7894736842104" y="487.2" type="curve" smooth="yes"/>
      <point x="1716.9684210526316" y="945.7473684210527"/>
      <point x="1421.0947368421052" y="1329.6"/>
      <point x="939.5368421052632" y="1329.6" type="curve" smooth="yes"/>
      <point x="558.1894736842106" y="1329.6"/>
      <point x="229.4736842105263" y="1126.5894736842106"/>
      <point x="138.29473684210527" y="679.0526315789474" type="curve" smooth="yes"/>
      <point x="41.93684210526315" y="209.9578947368421"/>
      <point x="332.14736842105265" y="-249.89473684210526"/>
    </contour>
    <contour>
      <point x="803.221052631579" y="225.3684210526316" type="curve"/>
      <point x="614.6947368421053" y="229.3684210526316"/>
      <point x="545.0736842105264" y="386.7789473684211"/>
      <point x="588.2105263157895" y="591.4736842105264" type="curve" smooth="yes"/>
      <point x="624.1894736842106" y="760.2105263157895"/>
      <point x="724.4631578947369" y="882.9684210526316"/>
      <point x="895.3473684210527" y="887.1368421052632" type="curve"/>
      <point x="966.9684210526317" y="884.8000000000001"/>
      <point x="1072.5473684210526" y="827.3473684210527"/>
      <point x="1146.6526315789474" y="765.8947368421053" type="curve"/>
      <point x="1066.5263157894738" y="395.57894736842104" type="line"/>
      <point x="978.9263157894737" y="294.4842105263158"/>
      <point x="864.0210526315791" y="229.87368421052633"/>
    </contour>
  </outline>
</glyph>
<glyph name="A" format="2">
  <advance width="1350.3157894736842"/>
  <unicode hex="0041"/>
  <anchor x="571.0736842105263" y="0.0" name="bottom"/>
  <anchor x="1185.7052631578947" y="0.0" name="ogonek"/>
  <anchor x="870.7368421052631" y="1426.0" name="top"/>
  <outline>
    <contour>
      <point x="-48.06315789473684" y="0.0" type="curve"/>
      <point x="84.37894736842104" y="0.0" type="line"/>
      <point x="184.8210526315789" y="177.78947368421052"/>
      <point x="291.2631578947369" y="364.42105263157896"/>
      <point x="389.8736842105263" y="538.5473684210526" type="curve"/>
      <point x="850.1684210526316" y="1325.8736842105263" type="line"/>
      <point x="863.8526315789474" y="1325.8736842105263" type="line"/>
      <point x="990.5684210526316" y="536.378947368421" type="line"/>
      <point x="1015.1999999999999" y="366.0842105263158"/>
      <point x="1043.3263157894737" y="170.4631578947368"/>
      <point x="1067.9578947368423" y="0.0" type="curve"/>
      <point x="1186.715789473684" y="0.0" type="line"/>
      <point x="1159.0526315789475" y="149.66315789473683"/>
      <point x="1127.221052631579" y="324.5052631578947"/>
      <point x="1097.7263157894736" y="485.1578947368421" type="curve"/>
      <point x="1017.4315789473684" y="974.0" type="line"/>
      <point x="993.7894736842105" y="1142.3368421052633"/>
      <point x="973.8105263157893" y="1283.3263157894737"/>
      <point x="953.8315789473685" y="1426.0" type="curve"/>
      <point x="793.642105263158" y="1426.0" type="line"/>
      <point x="709.6631578947369" y="1277.9999999999998"/>
      <point x="633.5157894736843" y="1143.8315789473684"/>
      <point x="537.8736842105263" y="975.8315789473684" type="curve"/>
      <point x="249.9157894736842" y="486.0" type="line"/>
      <point x="156.42105263157896" y="333.8315789473684"/>
      <point x="47.263157894736835" y="155.8315789473684"/>
    </contour>
    <contour>
      <point x="267.9578947368421" y="391.34736842105264" type="line"/>
      <point x="1045.8315789473684" y="391.34736842105264" type="line"/>
      <point x="1059.178947368421" y="476.61052631578946" type="line"/>
      <point x="289.89473684210526" y="476.61052631578946" type="line"/>
    </contour>
  </outline>
</glyph>
<glyph name="E" format="2">
  <advance width="1184.0229885057472"/>
  <unicode hex="0045"/>
  <anchor x="532.8735632183907" y="0.0" name="bottom"/>
  <anchor x="956.9655172413792" y="0.0" name="ogonek"/>
  <anchor x="832.8735632183907" y="1426.0" name="top"/>
  <anchor x="269.816091954023" y="1426.0" name="topleft"/>
  <outline>
    <contour>
      <point x="98.94252873563221" y="0.0" type="curve"/>
      <point x="213.4022988505747" y="0.0" type="line"/>
      <point x="216.87356321839079" y="13.885057471264368" type="line"/>
      <point x="247.77011494252872" y="174.41379310344826"/>
      <point x="273.0344827586207" y="312.41379310344826"/>
      <point x="307.9310344827586" y="488.41379310344826" type="curve"/>
      <point x="403.35632183908046" y="937.7471264367816" type="line"/>
      <point x="442.82758620689657" y="1114.8505747126437"/>
      <point x="475.1954022988506" y="1252.4827586206898"/>
      <point x="511.9310344827586" y="1413.7471264367816" type="curve"/>
      <point x="513.4022988505747" y="1426.0" type="line"/>
      <point x="398.94252873563215" y="1426.0" type="line"/>
      <point x="367.6781609195402" y="1268.3678160919542"/>
      <point x="340.7816091954023" y="1125.8390804597702"/>
      <point x="305.88505747126436" y="946.0" type="curve"/>
      <point x="205.51724137931035" y="474.5287356321839" type="line"/>
      <point x="166.04597701149427" y="299.7931034482759"/>
      <point x="135.67816091954023" y="164.52873563218392"/>
    </contour>
    <contour>
      <point x="189.51724137931038" y="0.0" type="line"/>
      <point x="957.7011494252872" y="0.0" type="line"/>
      <point x="978.6896551724137" y="101.26436781609195" type="line"/>
      <point x="827.6321839080458" y="98.52873563218391"/>
      <point x="666.2068965517241" y="93.79310344827586"/>
      <point x="483.8850574712644" y="90.6896551724138" type="curve"/>
      <point x="209.40229885057474" y="90.6896551724138" type="line"/>
    </contour>
    <contour>
      <point x="327.05747126436785" y="679.6551724137931" type="line"/>
      <point x="611.3793103448274" y="679.6551724137931" type="line"/>
      <point x="796.8045977011493" y="678.9195402298851"/>
      <point x="921.3333333333333" y="676.551724137931"/>
      <point x="1057.1264367816093" y="676.1839080459771" type="curve"/>
      <point x="1077.7471264367816" y="776.3448275862069" type="line"/>
      <point x="949.2183908045976" y="773.9770114942529"/>
      <point x="820.6896551724137" y="771.6091954022988"/>
      <point x="632.8965517241378" y="768.8735632183908" type="curve"/>
      <point x="346.5747126436782" y="768.8735632183908" type="line"/>
    </contour>
    <contour>
      <point x="466.6896551724138" y="1335.3103448275863" type="line"/>
      <point x="733.9080459770114" y="1335.3103448275863" type="line"/>
      <point x="949.1264367816092" y="1332.2068965517242"/>
      <point x="1098.183908045977" y="1327.471264367816"/>
      <point x="1237.9770114942528" y="1324.7356321839081" type="curve"/>
      <point x="1258.5977011494253" y="1426.0" type="line"/>
      <point x="486.5747126436782" y="1426.0" type="line"/>
    </contour>
  </outline>
</glyph>
<glyph name="F" format="2">
  <advance width="1144.5263157894738"/>
  <unicode hex="0046"/>
  <outline>
    <contour>
      <point x="99.0315789473684" y="0.0" type="curve"/>
      <point x="213.62105263157898" y="0.0" type="line"/>
      <point x="244.61052631578949" y="160.82105263157894"/>
      <point x="269.6" y="294.31578947368416"/>
      <point x="304.5894736842106" y="474.4842105263158" type="curve"/>
      <point x="403.4105263157895" y="937.6" type="line"/>
      <point x="442.75789473684216" y="1114.778947368421"/>
      <point x="475.6" y="1252.4421052631578"/>
      <point x="512.2736842105263" y="1413.7684210526315" type="curve"/>
      <point x="513.621052631579" y="1426.0" type="line"/>
      <point x="399.0315789473684" y="1426.0" type="line"/>
      <point x="368.04210526315785" y="1268.336842105263"/>
      <point x="341.05263157894734" y="1125.8526315789472"/>
      <point x="305.89473684210526" y="946.1684210526315" type="curve"/>
      <point x="205.5578947368421" y="474.4842105263158" type="line"/>
      <point x="166.21052631578948" y="299.6421052631579"/>
      <point x="135.70526315789473" y="164.4842105263158"/>
    </contour>
    <contour>
      <point x="325.7894736842105" y="676.8210526315789" type="line"/>
      <point x="591.7684210526317" y="676.8210526315789" type="line"/>
      <point x="777.0736842105263" y="675.978947368421"/>
      <point x="901.3894736842104" y="673.6421052631579"/>
      <point x="1037.3684210526317" y="673.1368421052631" type="curve"/>
      <point x="1057.9368421052632" y="773.6210526315789" type="line"/>
      <point x="929.4526315789475" y="771.2842105263157"/>
      <point x="801.1368421052632" y="768.778947368421"/>
      <point x="613.1578947368421" y="766.1052631578947" type="curve"/>
      <point x="345.34736842105264" y="766.1052631578947" type="line"/>
    </contour>
    <contour>
      <point x="466.1263157894737" y="1335.2" type="line"/>
      <point x="714.9263157894737" y="1335.2" type="line"/>
      <point x="930.5473684210526" y="1332.021052631579"/>
      <point x="1079.3473684210526" y="1327.5157894736842"/>
      <point x="1218.9894736842107" y="1324.842105263158" type="curve"/>
      <point x="1239.5578947368422" y="1426.0" type="line"/>
      <point x="486.021052631579" y="1426.0" type="line"/>
    </contour>
  </outline>
</glyph>
<glyph name="H" format="2">
  <advance width="1501.8526315789475"/>
  <unicode hex="0048"/>
  <anchor x="646.8421052631579" y="0.0" name="bottom"/>
  <anchor x="796.8421052631579" y="714.0" name="center"/>
  <anchor x="946.8421052631579" y="1426.0" name="top"/>
  <anchor x="269.0105263157895" y="1426.0" name="topleft"/>
  <outline>
    <contour>
      <point x="1078.8842105263159" y="0.0" type="curve"/>
      <point x="1194.4842105263156" y="0.0" type="line"/>
      <point x="1225.3052631578946" y="160.4842105263158"/>
      <point x="1250.463157894737" y="293.978947368421"/>
      <point x="1285.4526315789471" y="474.4842105263158" type="curve"/>
      <point x="1385.7894736842104" y="946.1684210526315" type="line"/>
      <point x="1427.136842105263" y="1127.515789473684"/>
      <point x="1457.8105263157895" y="1264.6736842105263"/>
      <point x="1494.4842105263156" y="1426.0" type="curve"/>
      <point x="1378.8842105263159" y="1426.0" type="line"/>
      <point x="1347.8947368421052" y="1268.336842105263"/>
      <point x="1320.905263157895" y="1125.8526315789472"/>
      <point x="1285.7473684210527" y="946.1684210526315" type="curve"/>
      <point x="1185.4105263157896" y="474.4842105263158" type="line"/>
      <point x="1146.0631578947368" y="299.6421052631579"/>
      <point x="1115.5578947368422" y="164.4842105263158"/>
    </contour>
    <contour>
      <point x="99.0315789473684" y="0.0" type="curve"/>
      <point x="214.6315789473684" y="0.0" type="line"/>
      <point x="245.45263157894738" y="160.4842105263158"/>
      <point x="270.6105263157895" y="293.978947368421"/>
      <point x="305.6" y="474.4842105263158" type="curve"/>
      <point x="405.93684210526317" y="946.1684210526315" type="line"/>
      <point x="447.2842105263158" y="1127.515789473684"/>
      <point x="477.9578947368421" y="1264.6736842105263"/>
      <point x="514.6315789473684" y="1426.0" type="curve"/>
      <point x="399.0315789473684" y="1426.0" type="line"/>
      <point x="368.04210526315785" y="1268.336842105263"/>
      <point x="341.05263157894734" y="1125.8526315789472"/>
      <point x="305.89473684210526" y="946.1684210526315" type="curve"/>
      <point x="205.5578947368421" y="474.4842105263158" type="line"/>
      <point x="166.21052631578948" y="299.6421052631579"/>
      <point x="135.70526315789473" y="164.4842105263158"/>
    </contour>
    <contour>
      <point x="300.0" y="678.6736842105263" type="line"/>
      <point x="1282.9473684210525" y="678.6736842105263" type="line"/>
      <point x="1303.0105263157893" y="769.4736842105264" type="line"/>
      <point x="320.06315789473683" y="769.4736842105264" type="line"/>
    </contour>
  </outline>
</glyph>
<glyph name="I" format="2">
  <advance width="524.5263157894736"/>
  <unicode hex="0049"/>
  <anchor x="156.42105263157893" y="0.0" name="bottom"/>
  <anchor x="215.4736842105263" y="0.0" name="ogonek"/>
  <anchor x="456.42105263157896" y="1426.0" name="top"/>
  <anchor x="268.821052631579" y="1426.0" name="topleft"/>
  <outline>
    <contour>
      <point x="99.87368421052629" y="0.0" type="curve"/>
      <point x="216.3157894736842" y="0.0" type="line"/>
      <point x="247.13684210526313" y="160.4842105263158"/>
      <point x="272.29473684210524" y="293.978947368421"/>
      <point x="307.2842105263158" y="474.4842105263158" type="curve"/>
      <point x="407.62105263157895" y="946.1684210526315" type="line"/>
      <point x="448.9684210526316" y="1127.515789473684"/>
      <point x="479.6421052631579" y="1264.6736842105263"/>
      <point x="516.3157894736842" y="1426.0" type="curve"/>
      <point x="399.87368421052633" y="1426.0" type="line"/>
      <point x="368.88421052631577" y="1268.336842105263"/>
      <point x="341.89473684210526" y="1125.8526315789472"/>
      <point x="306.7368421052632" y="946.1684210526315" type="curve"/>
      <point x="206.39999999999998" y="474.4842105263158" type="line"/>
      <point x="167.05263157894737" y="299.6421052631579"/>
      <point x="136.54736842105262" y="164.4842105263158"/>
    </contour>
  </outline>
</glyph>
<glyph name="J" format="2">
  <advance width="556.4842105263158"/>
  <unicode hex="004A"/>
  <anchor x="187.22105263157897" y="0.0" name="bottom"/>
  <anchor x="487.22105263157897" y="1426.0" name="top"/>
  <outline>
    <contour>
      <point x="-120.21052631578948" y="-318.65263157894736" type="curve"/>
      <point x="-2.0631578947368387" y="-318.65263157894736" type="line"/>
      <point x="72.61052631578949" y="-215.49473684210528"/>
      <point x="251.26315789473682" y="35.30526315789474"/>
      <point x="259.45263157894743" y="77.41052631578947" type="curve" smooth="yes"/>
      <point x="293.7894736842105" y="233.76842105263157"/>
      <point x="322.2736842105263" y="394.8"/>
      <point x="356.9473684210526" y="558.1684210526316" type="curve"/>
      <point x="439.57894736842104" y="946.1684210526315" type="line"/>
      <point x="480.9263157894737" y="1127.515789473684"/>
      <point x="511.6" y="1264.6736842105263"/>
      <point x="548.2736842105262" y="1426.0" type="curve"/>
      <point x="432.67368421052635" y="1426.0" type="line"/>
      <point x="401.6842105263158" y="1268.336842105263"/>
      <point x="374.69473684210527" y="1125.8526315789472"/>
      <point x="339.5368421052632" y="946.1684210526315" type="curve"/>
      <point x="244.0842105263158" y="497.7263157894737" type="line"/>
      <point x="147.2210526315789" y="72.25263157894737" type="line"/>
      <point x="40.7578947368421" y="-82.58947368421053"/>
      <point x="-36.063157894736854" y="-196.1263157894737"/>
    </contour>
  </outline>
</glyph>
<glyph name="K" format="2">
  <advance width="1312.315789473684"/>
  <unicode hex="004B"/>
  <anchor x="567.2421052631579" y="0.0" name="bottom"/>
  <anchor x="867.2421052631579" y="1426.0" name="top"/>
  <outline>
    <contour>
      <point x="1003.4315789473683" y="0.0" type="curve"/>
      <point x="1149.3894736842105" y="0.0" type="line"/>
      <point x="1043.4315789473685" y="119.51578947368421"/>
      <point x="875.6631578947369" y="308.37894736842105"/>
      <point x="750.5473684210527" y="449.89473684210526" type="curve"/>
      <point x="486.00000000000006" y="758.4421052631579" type="line"/>
      <point x="489.3263157894737" y="707.2842105263157" type="line"/>
      <point x="835.8947368421053" y="983.4736842105262" type="line"/>
      <point x="1021.3473684210525" y="1126.6526315789472"/>
      <point x="1208.463157894737" y="1271.326315789474"/>
      <point x="1409.0736842105262" y="1426.0" type="curve"/>
      <point x="1243.9368421052632" y="1426.0" type="line"/>
      <point x="1048.5684210526315" y="1269.7052631578947"/>
      <point x="916.6526315789474" y="1161.557894736842"/>
      <point x="766.0842105263158" y="1039.9157894736843" type="curve"/>
      <point x="436.7789473684211" y="780.1473684210526" type="line"/>
      <point x="353.2842105263158" y="780.1473684210526" type="line"/>
      <point x="333.89473684210526" y="691.5368421052632" type="line"/>
      <point x="416.23157894736846" y="691.5368421052632" type="line"/>
      <point x="679.3684210526316" y="385.2631578947368" type="line"/>
      <point x="777.6210526315789" y="267.2842105263158"/>
      <point x="881.1999999999999" y="145.4736842105263"/>
    </contour>
    <contour>
      <point x="99.0315789473684" y="0.0" type="curve"/>
      <point x="214.46315789473684" y="0.0" type="line"/>
      <point x="245.28421052631577" y="160.4842105263158"/>
      <point x="270.4421052631579" y="293.978947368421"/>
      <point x="305.43157894736845" y="474.4842105263158" type="curve"/>
      <point x="405.7684210526316" y="946.1684210526315" type="line"/>
      <point x="447.11578947368423" y="1127.515789473684"/>
      <point x="477.7894736842105" y="1264.6736842105263"/>
      <point x="514.4631578947368" y="1426.0" type="curve"/>
      <point x="399.0315789473684" y="1426.0" type="line"/>
      <point x="368.04210526315785" y="1268.336842105263"/>
      <point x="341.05263157894734" y="1125.8526315789472"/>
      <point x="305.89473684210526" y="946.1684210526315" type="curve"/>
      <point x="205.5578947368421" y="474.4842105263158" type="line"/>
      <point x="166.21052631578948" y="299.6421052631579"/>
      <point x="135.70526315789473" y="164.4842105263158"/>
    </contour>
  </outline>
</glyph>
<glyph name="L" format="2">
  <advance width="1134.1894736842105"/>
  <unicode hex="004C"/>
  <anchor x="530.2947368421052" y="0.0" name="bottom"/>
  <anchor x="877.2421052631579" y="714.5052631578948" name="center"/>
  <anchor x="572.4631578947368" y="1426.0" name="top"/>
  <anchor x="649.9368421052632" y="989.3473684210526" name="topright"/>
  <outline>
    <contour>
      <point x="99.0315789473684" y="0.0" type="curve"/>
      <point x="214.6315789473684" y="0.0" type="line"/>
      <point x="217.97894736842102" y="14.063157894736843" type="line"/>
      <point x="247.62105263157892" y="174.8842105263158"/>
      <point x="272.77894736842103" y="312.0421052631579"/>
      <point x="308.9473684210526" y="488.5473684210526" type="curve"/>
      <point x="405.93684210526317" y="946.1684210526315" type="line"/>
      <point x="447.2842105263158" y="1127.515789473684"/>
      <point x="477.9578947368421" y="1264.6736842105263"/>
      <point x="514.6315789473684" y="1426.0" type="curve"/>
      <point x="399.0315789473684" y="1426.0" type="line"/>
      <point x="368.04210526315785" y="1268.336842105263"/>
      <point x="341.05263157894734" y="1125.8526315789472"/>
      <point x="305.89473684210526" y="946.1684210526315" type="curve"/>
      <point x="205.5578947368421" y="474.4842105263158" type="line"/>
      <point x="166.21052631578948" y="299.6421052631579"/>
      <point x="135.70526315789473" y="164.4842105263158"/>
    </contour>
    <contour>
      <point x="189.5578947368421" y="0.0" type="line"/>
      <point x="956.3789473684211" y="0.0" type="line"/>
      <point x="977.6210526315789" y="104.02105263157895" type="line"/>
      <point x="812.8210526315789" y="100.84210526315789"/>
      <point x="673.6842105263158" y="98.0"/>
      <point x="432.9052631578947" y="92.48421052631579" type="curve"/>
      <point x="209.95789473684206" y="92.48421052631579" type="line"/>
    </contour>
  </outline>
</glyph>
<glyph name="M" format="2">
  <advance width="1905.3684210526314"/>
  <unicode hex="004D"/>
  <anchor x="847.5157894736841" y="0.0" name="bottom"/>
  <anchor x="1147.5157894736842" y="1426.0" name="top"/>
  <outline>
    <contour>
      <point x="37.55789473684211" y="0.0" type="curve"/>
      <point x="154.29473684210527" y="0.0" type="line"/>
      <point x="242.5684210526316" y="273.53684210526313"/>
      <point x="327.17894736842106" y="537.0736842105264"/>
      <point x="398.63157894736844" y="757.4736842105264" type="curve"/>
      <point x="553.8947368421052" y="1232.0842105263157" type="line"/>
      <point x="562.0842105263157" y="1232.0842105263157" type="line"/>
      <point x="669.0105263157895" y="715.8315789473684" type="line"/>
      <point x="714.8" y="474.9473684210526"/>
      <point x="765.9157894736841" y="202.0842105263158"/>
      <point x="804.3789473684211" y="0.0" type="curve"/>
      <point x="894.3368421052631" y="0.0" type="line"/>
      <point x="1024.4210526315792" y="211.0736842105263"/>
      <point x="1183.9789473684211" y="470.9473684210526"/>
      <point x="1336.378947368421" y="719.4947368421052" type="curve"/>
      <point x="1655.6842105263158" y="1232.0842105263157" type="line"/>
      <point x="1663.8736842105263" y="1232.0842105263157" type="line"/>
      <point x="1621.7263157894738" y="757.4736842105264" type="line"/>
      <point x="1597.5578947368424" y="533.5789473684212"/>
      <point x="1571.38947368421" y="281.0315789473684"/>
      <point x="1541.3894736842103" y="0.0" type="curve"/>
      <point x="1657.6421052631579" y="0.0" type="line"/>
      <point x="1670.4631578947367" y="160.65263157894736"/>
      <point x="1681.4526315789476" y="302.3157894736842"/>
      <point x="1694.2736842105262" y="474.4842105263158" type="curve"/>
      <point x="1737.7684210526315" y="945.8315789473684" type="line"/>
      <point x="1756.4421052631578" y="1121.494736842105"/>
      <point x="1771.115789473684" y="1262.6736842105263"/>
      <point x="1787.621052631579" y="1426.0" type="curve"/>
      <point x="1664.5263157894735" y="1426.0" type="line"/>
      <point x="1526.2736842105262" y="1200.7578947368422"/>
      <point x="1401.8526315789472" y="996.021052631579"/>
      <point x="1271.6" y="783.2842105263157" type="curve"/>
      <point x="884.1473684210525" y="164.2315789473684" type="line"/>
      <point x="874.2947368421052" y="164.2315789473684" type="line"/>
      <point x="749.8736842105263" y="783.2842105263157" type="line"/>
      <point x="711.0736842105263" y="994.1894736842105"/>
      <point x="672.4421052631579" y="1201.2631578947369"/>
      <point x="631.8105263157895" y="1426.0" type="curve"/>
      <point x="512.0631578947368" y="1426.0" type="line"/>
      <point x="460.90526315789475" y="1262.6736842105263"/>
      <point x="415.2421052631579" y="1115.9999999999998"/>
      <point x="361.9157894736842" y="945.8315789473684" type="curve"/>
      <point x="205.4105263157895" y="474.4842105263158" type="line"/>
      <point x="144.5684210526316" y="300.82105263157894"/>
      <point x="93.72631578947369" y="160.31578947368422"/>
    </contour>
  </outline>
</glyph>
<glyph name="N" format="2">
  <advance width="1521.157894736842"/>
  <unicode hex="004E"/>
  <anchor x="653.8315789473684" y="0.0" name="bottom"/>
  <anchor x="953.8315789473684" y="1426.0" name="top"/>
  <outline>
    <contour>
      <point x="99.0315789473684" y="0.0" type="curve"/>
      <point x="211.76842105263157" y="0.0" type="line"/>
      <point x="242.5894736842105" y="160.4842105263158"/>
      <point x="267.7473684210526" y="293.978947368421"/>
      <point x="302.7368421052632" y="474.4842105263158" type="curve"/>
      <point x="469.11578947368423" y="1265.242105263158" type="line"/>
      <point x="479.1368421052632" y="1265.242105263158" type="line"/>
      <point x="725.8315789473685" y="766.3157894736842" type="line"/>
      <point x="870.5684210526315" y="468.2947368421053"/>
      <point x="988.9894736842105" y="223.57894736842107"/>
      <point x="1096.5894736842104" y="0.0" type="curve"/>
      <point x="1208.294736842105" y="0.0" type="line"/>
      <point x="1239.1157894736843" y="160.4842105263158"/>
      <point x="1264.2736842105264" y="293.978947368421"/>
      <point x="1299.2631578947369" y="474.4842105263158" type="curve"/>
      <point x="1399.6" y="946.1684210526315" type="line"/>
      <point x="1440.9473684210525" y="1127.515789473684"/>
      <point x="1471.621052631579" y="1264.6736842105263"/>
      <point x="1508.294736842105" y="1426.0" type="curve"/>
      <point x="1395.5578947368422" y="1426.0" type="line"/>
      <point x="1364.5684210526315" y="1268.336842105263"/>
      <point x="1337.5789473684213" y="1125.8526315789472"/>
      <point x="1302.421052631579" y="946.1684210526315" type="curve"/>
      <point x="1136.3789473684212" y="168.0842105263158" type="line"/>
      <point x="1126.1894736842107" y="168.0842105263158" type="line"/>
      <point x="881.8315789473684" y="663.1789473684211" type="line"/>
      <point x="763.9157894736842" y="907.3894736842107"/>
      <point x="643.8315789473684" y="1156.273684210526"/>
      <point x="513.9157894736842" y="1426.0" type="curve"/>
      <point x="399.0315789473684" y="1426.0" type="line"/>
      <point x="368.04210526315785" y="1268.336842105263"/>
      <point x="341.05263157894734" y="1125.8526315789472"/>
      <point x="305.89473684210526" y="946.1684210526315" type="curve"/>
      <point x="205.5578947368421" y="474.4842105263158" type="line"/>
      <point x="166.21052631578948" y="299.6421052631579"/>
      <point x="135.70526315789473" y="164.4842105263158"/>
    </contour>
  </outline>
</glyph>
<glyph name="O" format="2">
  <advance width="1636.6526315789474"/>
  <unicode hex="004F"/>
  <anchor x="715.1578947368421" y="0.0" name="bottom"/>
  <anchor x="865.1578947368421" y="714.0" name="center"/>
  <anchor x="937.0947368421054" y="0.0" name="ogonek"/>
  <anchor x="1015.1578947368421" y="1426.0" name="top"/>
  <anchor x="251.1578947368421" y="1426.0" name="topleft"/>
  <anchor x="1582.3368421052633" y="1426.0" name="topright"/>
  <outline>
    <contour>
      <point x="805.4947368421053" y="-19.178947368421053" type="curve" smooth="yes"/>
      <point x="1187.3894736842105" y="-19.178947368421053"/>
      <point x="1472.2105263157896" y="241.66315789473683"/>
      <point x="1552.5473684210526" y="619.0105263157894" type="curve" smooth="yes"/>
      <point x="1646.7157894736843" y="1059.5157894736842"/>
      <point x="1397.221052631579" y="1450.6736842105263"/>
      <point x="935.8105263157895" y="1450.6736842105263" type="curve" smooth="yes"/>
      <point x="546.5894736842106" y="1450.6736842105263"/>
      <point x="258.10526315789474" y="1195.0105263157893"/>
      <point x="170.4421052631579" y="787.6842105263157" type="curve" smooth="yes"/>
      <point x="78.44210526315788" y="353.5157894736842"/>
      <point x="335.0736842105263" y="-19.178947368421053"/>
    </contour>
    <contour>
      <point x="806.1684210526315" y="74.61052631578947" type="curve"/>
      <point x="415.38947368421054" y="83.9578947368421"/>
      <point x="186.69473684210524" y="370.0"/>
      <point x="270.9894736842105" y="771.6421052631579" type="curve" smooth="yes"/>
      <point x="345.7894736842105" y="1115.157894736842"/>
      <point x="565.5157894736842" y="1347.8736842105263"/>
      <point x="935.3052631578947" y="1356.8842105263159" type="curve"/>
      <point x="1321.6" y="1347.5368421052633"/>
      <point x="1537.6210526315788" y="1042.505263157895"/>
      <point x="1451.6631578947367" y="636.042105263158" type="curve" smooth="yes"/>
      <point x="1387.6842105263158" y="322.65263157894736"/>
      <point x="1167.9578947368423" y="83.28421052631579"/>
    </contour>
  </outline>
</glyph>
<glyph name="S" format="2">
  <advance width="1156.9885057471265"/>
  <unicode hex="0053"/>
  <anchor x="484.2068965517241" y="0.0" name="bottom"/>
  <anchor x="784.2068965517241" y="1426.0" name="top"/>
  <outline>
    <contour>
      <point x="537.8390804597702" y="-19.103448275862068" type="curve" smooth="yes"/>
      <point x="833.9310344827586" y="-19.103448275862068"/>
      <point x="987.0344827586208" y="107.42528735632183"/>
      <point x="1032.505747126437" y="322.7816091954023" type="curve" smooth="yes"/>
      <point x="1071.2413793103449" y="508.09195402298855"/>
      <point x="990.8735632183908" y="638.2988505747127"/>
      <point x="674.7126436781609" y="772.8275862068965" type="curve" smooth="yes"/>
      <point x="407.58620689655174" y="886.9425287356322"/>
      <point x="320.0" y="963.1034482758621"/>
      <point x="355.7931034482759" y="1130.8045977011493" type="curve" smooth="yes"/>
      <point x="394.4827586206897" y="1313.3563218390805"/>
      <point x="573.609195402299" y="1352.7816091954023"/>
      <point x="737.6781609195402" y="1356.7816091954023" type="curve"/>
      <point x="782.5747126436783" y="1356.7816091954023"/>
      <point x="959.6781609195402" y="1296.7816091954023"/>
      <point x="1121.5172413793105" y="1228.7816091954023" type="curve"/>
      <point x="1151.9770114942528" y="1329.3103448275863" type="line"/>
      <point x="1040.0919540229884" y="1368.9425287356319"/>
      <point x="820.0459770114942" y="1450.7356321839081"/>
      <point x="733.6321839080459" y="1450.7356321839081" type="curve" smooth="yes"/>
      <point x="462.2758620689655" y="1450.7356321839081"/>
      <point x="297.01149425287355" y="1340.528735632184"/>
      <point x="255.90804597701148" y="1144.6436781609195" type="curve" smooth="yes"/>
      <point x="209.54022988505744" y="928.0689655172414"/>
      <point x="324.2758620689655" y="817.448275862069"/>
      <point x="610.3908045977012" y="696.3908045977012" type="curve" smooth="yes"/>
      <point x="843.1954022988506" y="598.4367816091954"/>
      <point x="968.4137931034483" y="510.85057471264366"/>
      <point x="932.6206896551724" y="335.88505747126436" type="curve" smooth="yes"/>
      <point x="886.6666666666667" y="117.54022988505747"/>
      <point x="706.6436781609195" y="78.48275862068965"/>
      <point x="539.8390804597702" y="74.48275862068965" type="curve"/>
      <point x="443.35632183908046" y="74.48275862068965"/>
      <point x="278.94252873563215" y="140.48275862068962"/>
      <point x="93.47126436781608" y="225.7471264367816" type="curve"/>
      <point x="61.01149425287357" y="123.95402298850574" type="line"/>
      <point x="233.95402298850578" y="51.79310344827587"/>
      <point x="433.4712643678161" y="-19.103448275862068"/>
    </contour>
  </outline>
</glyph>
<glyph name="T" format="2">
  <advance width="1276.3578947368421"/>
  <unicode hex="0054"/>
  <anchor x="537.0105263157894" y="0.0" name="bottom"/>
  <anchor x="684.8210526315789" y="704.2315789473685" name="center"/>
  <anchor x="837.0105263157894" y="1426.0" name="top"/>
  <outline>
    <contour>
      <point x="479.9578947368421" y="0.0" type="curve"/>
      <point x="595.3894736842105" y="0.0" type="line"/>
      <point x="626.2105263157895" y="160.4842105263158"/>
      <point x="651.3684210526316" y="293.978947368421"/>
      <point x="686.3578947368421" y="474.4842105263158" type="curve"/>
      <point x="785.3473684210526" y="937.6" type="line"/>
      <point x="825.3473684210527" y="1118.4421052631578"/>
      <point x="856.3578947368421" y="1252.4421052631578"/>
      <point x="894.2105263157895" y="1413.7684210526315" type="curve"/>
      <point x="895.5578947368422" y="1426.0" type="line"/>
      <point x="780.1263157894737" y="1426.0" type="line"/>
      <point x="776.9473684210526" y="1413.7684210526315" type="line"/>
      <point x="747.1368421052631" y="1252.4421052631578"/>
      <point x="721.8105263157895" y="1116.6105263157895"/>
      <point x="685.4736842105262" y="937.6" type="curve"/>
      <point x="586.4842105263158" y="474.4842105263158" type="line"/>
      <point x="547.1368421052632" y="299.6421052631579"/>
      <point x="516.6315789473686" y="164.4842105263158"/>
    </contour>
    <contour>
      <point x="244.06315789473683" y="1321.9789473684211" type="line"/>
      <point x="360.5473684210527" y="1324.9894736842105"/>
      <point x="483.5368421052632" y="1330.0"/>
      <point x="650.8421052631579" y="1333.5157894736842" type="curve"/>
      <point x="782.8210526315789" y="1333.5157894736842" type="line"/>
      <point x="803.0526315789473" y="1426.0" type="line"/>
      <point x="265.30526315789473" y="1426.0" type="line"/>
    </contour>
    <contour>
      <point x="848.7368421052632" y="1333.5157894736842" type="line"/>
      <point x="980.7157894736843" y="1333.5157894736842" type="line"/>
      <point x="1148.1894736842105" y="1329.8315789473684"/>
      <point x="1270.0" y="1324.9894736842107"/>
      <point x="1385.4736842105265" y="1321.9789473684211" type="curve"/>
      <point x="1406.7157894736843" y="1426.0" type="line"/>
      <point x="868.9684210526316" y="1426.0" type="line"/>
    </contour>
  </outline>
</glyph>
<glyph name="U" format="2">
  <advance width="1462.9894736842105"/>
  <unicode hex="0055"/>
  <anchor x="629.3263157894736" y="0.0" name="bottom"/>
  <anchor x="841.578947368421" y="0.0" name="ogonek"/>
  <anchor x="929.3263157894736" y="1426.0" name="top"/>
  <anchor x="1578.378947368421" y="1426.0" name="topright"/>
  <outline>
    <contour>
      <point x="663.6631578947367" y="-19.178947368421053" type="curve" smooth="yes"/>
      <point x="1049.915789473684" y="-19.178947368421053"/>
      <point x="1212.9263157894736" y="197.1578947368421"/>
      <point x="1271.9368421052632" y="475.0315789473684" type="curve" smooth="yes"/>
      <point x="1291.6" y="569.1789473684211"/>
      <point x="1330.9263157894736" y="758.1894736842105"/>
      <point x="1370.421052631579" y="946.1684210526315" type="curve"/>
      <point x="1411.7684210526315" y="1127.515789473684"/>
      <point x="1442.442105263158" y="1264.6736842105263"/>
      <point x="1479.1157894736841" y="1426.0" type="curve"/>
      <point x="1363.5157894736842" y="1426.0" type="line"/>
      <point x="1332.5263157894738" y="1268.336842105263"/>
      <point x="1305.5368421052633" y="1125.8526315789472"/>
      <point x="1270.378947368421" y="946.1684210526315" type="curve"/>
      <point x="1174.0631578947368" y="500.90526315789475" type="line" smooth="yes"/>
      <point x="1120.421052631579" y="250.02105263157895"/>
      <point x="1001.8105263157893" y="77.28421052631579"/>
      <point x="668.6947368421053" y="74.61052631578947" type="curve"/>
      <point x="330.75789473684205" y="77.28421052631579"/>
      <point x="243.81052631578945" y="297.4947368421052"/>
      <point x="303.1157894736842" y="578.5263157894738" type="curve" smooth="yes"/>
      <point x="382.4421052631579" y="946.1684210526315" type="line"/>
      <point x="423.7894736842105" y="1127.515789473684"/>
      <point x="454.46315789473687" y="1264.6736842105263"/>
      <point x="491.13684210526316" y="1426.0" type="curve"/>
      <point x="375.7052631578947" y="1426.0" type="line"/>
      <point x="344.71578947368414" y="1268.336842105263"/>
      <point x="317.72631578947363" y="1125.8526315789472"/>
      <point x="282.56842105263155" y="946.1684210526315" type="curve"/>
      <point x="250.90526315789472" y="796.3578947368421"/>
      <point x="216.56842105263158" y="657.1999999999999"/>
      <point x="200.73684210526315" y="580.2105263157895" type="curve" smooth="yes"/>
      <point x="131.7263157894737" y="259.3263157894737"/>
      <point x="270.0842105263158" y="-19.178947368421053"/>
    </contour>
  </outline>
</glyph>
<glyph name="V" format="2">
  <advance width="1348.1263157894737"/>
  <unicode hex="0056"/>
  <anchor x="571.8947368421053" y="0.0" name="bottom"/>
  <anchor x="871.8947368421053" y="1426.0" name="top"/>
  <outline>
    <contour>
      <point x="497.2842105263158" y="0.0" type="curve"/>
      <point x="656.6526315789473" y="0.0" type="line"/>
      <point x="738.2947368421053" y="143.49473684210525"/>
      <point x="839.4315789473683" y="322.821052631579"/>
      <point x="913.9157894736842" y="453.8315789473684" type="curve"/>
      <point x="1175.5368421052633" y="900.0" type="line"/>
      <point x="1269.0315789473686" y="1054.0000000000002"/>
      <point x="1388.357894736842" y="1251.8315789473684"/>
      <point x="1493.8526315789475" y="1426.0" type="curve"/>
      <point x="1358.5263157894738" y="1426.0" type="line"/>
      <point x="1233.9368421052632" y="1205.8947368421052"/>
      <point x="1090.6947368421054" y="954.8000000000001"/>
      <point x="966.1052631578947" y="734.5263157894736" type="curve"/>
      <point x="600.9684210526316" y="107.53684210526316" type="line"/>
      <point x="587.2842105263157" y="107.53684210526316" type="line"/>
      <point x="480.7368421052632" y="730.6947368421053" type="line"/>
      <point x="445.2842105263158" y="950.6315789473683"/>
      <point x="404.3368421052632" y="1205.8947368421052"/>
      <point x="368.8842105263158" y="1426.0" type="curve"/>
      <point x="247.93684210526314" y="1426.0" type="line"/>
      <point x="281.2631578947368" y="1254.0"/>
      <point x="320.42105263157896" y="1048.5052631578951"/>
      <point x="349.7473684210526" y="898.1684210526316" type="curve"/>
      <point x="426.69473684210527" y="453.8315789473684" type="line"/>
      <point x="448.5052631578948" y="317.8315789473684"/>
      <point x="475.64210526315793" y="142.33684210526314"/>
    </contour>
  </outline>
</glyph>
<glyph name="W" format="2">
  <advance width="2010.1263157894737"/>
  <unicode hex="0057"/>
  <anchor x="899.3894736842104" y="0.0" name="bottom"/>
  <anchor x="1199.3894736842105" y="1426.0" name="top"/>
  <outline>
    <contour>
      <point x="377.0315789473685" y="0.0" type="curve"/>
      <point x="537.3052631578947" y="0.0" type="line"/>
      <point x="638.9052631578948" y="211.57894736842104"/>
      <point x="759.3263157894737" y="467.30526315789473"/>
      <point x="860.7578947368421" y="678.2105263157895" type="curve"/>
      <point x="1162.2526315789473" y="1291.1157894736841" type="line"/>
      <point x="1175.9368421052632" y="1291.1157894736841" type="line"/>
      <point x="1224.042105263158" y="678.2105263157894" type="line"/>
      <point x="1237.5157894736844" y="466.63157894736844"/>
      <point x="1254.484210526316" y="211.57894736842104"/>
      <point x="1269.7894736842106" y="0.0" type="curve"/>
      <point x="1433.915789473684" y="0.0" type="line"/>
      <point x="1498.9052631578945" y="134.0"/>
      <point x="1581.557894736842" y="305.8315789473684"/>
      <point x="1652.378947368421" y="451.8315789473684" type="curve"/>
      <point x="1880.1894736842105" y="900.0" type="line"/>
      <point x="1965.6842105263156" y="1059.157894736842"/>
      <point x="2068.1894736842105" y="1254.0"/>
      <point x="2160.1894736842105" y="1426.0" type="curve"/>
      <point x="2025.705263157895" y="1426.0" type="line"/>
      <point x="1918.4421052631578" y="1209.242105263158"/>
      <point x="1792.5263157894738" y="950.3368421052631"/>
      <point x="1686.9263157894736" y="736.7368421052632" type="curve"/>
      <point x="1375.9368421052632" y="116.94736842105263" type="line"/>
      <point x="1362.2526315789473" y="116.94736842105263" type="line"/>
      <point x="1315.157894736842" y="736.4" type="line"/>
      <point x="1300.1894736842105" y="958.9894736842106"/>
      <point x="1283.7263157894736" y="1205.4105263157894"/>
      <point x="1268.757894736842" y="1426.0" type="curve"/>
      <point x="1120.863157894737" y="1426.0" type="line"/>
      <point x="1016.7578947368421" y="1210.7368421052631"/>
      <point x="892.0000000000001" y="949.6631578947369"/>
      <point x="791.7263157894737" y="738.5684210526316" type="curve"/>
      <point x="487.22105263157897" y="116.94736842105263" type="line"/>
      <point x="473.53684210526313" y="116.94736842105263" type="line"/>
      <point x="421.95789473684215" y="723.578947368421" type="line"/>
      <point x="405.66315789473686" y="944.3368421052631"/>
      <point x="387.8736842105263" y="1205.4105263157896"/>
      <point x="371.57894736842104" y="1426.0" type="curve"/>
      <point x="245.6" y="1426.0" type="line"/>
      <point x="263.7684210526316" y="1257.8315789473686"/>
      <point x="287.9368421052631" y="1052.3368421052633"/>
      <point x="305.93684210526317" y="890.8421052631579" type="curve"/>
      <point x="345.41052631578947" y="450.0" type="line"/>
      <point x="356.0631578947369" y="308.0"/>
      <point x="368.3789473684211" y="142.16842105263157"/>
    </contour>
  </outline>
</glyph>
<glyph name="X" format="2">
  <advance width="1334.6736842105263"/>
  <unicode hex="0058"/>
  <outline>
    <contour>
      <point x="-27.24210526315789" y="0.0" type="curve"/>
      <point x="121.91578947368421" y="0.0" type="line"/>
      <point x="236.00000000000003" y="133.1157894736842"/>
      <point x="330.1052631578946" y="242.75789473684213"/>
      <point x="436.69473684210527" y="367.87368421052633" type="curve"/>
      <point x="682.2105263157895" y="648.4421052631579" type="line"/>
      <point x="695.8947368421052" y="648.4421052631579" type="line"/>
      <point x="838.9473684210526" y="369.70526315789476" type="line"/>
      <point x="895.8947368421053" y="255.9157894736842"/>
      <point x="954.6736842105263" y="135.62105263157895"/>
      <point x="1020.6105263157893" y="0.0" type="curve"/>
      <point x="1154.0842105263157" y="0.0" type="line"/>
      <point x="1071.7684210526318" y="152.0"/>
      <point x="997.2842105263156" y="286.1684210526316"/>
      <point x="914.9684210526315" y="438.1684210526316" type="curve"/>
      <point x="756.6947368421052" y="748.5052631578948" type="line"/>
      <point x="747.3473684210526" y="707.2631578947369" type="line"/>
      <point x="1032.6315789473683" y="1026.463157894737" type="line"/>
      <point x="1137.6210526315788" y="1140.8000000000002"/>
      <point x="1264.6105263157895" y="1277.8105263157895"/>
      <point x="1400.6105263157895" y="1426.0" type="curve"/>
      <point x="1249.4526315789474" y="1426.0" type="line"/>
      <point x="1136.5263157894738" y="1293.3684210526314"/>
      <point x="1018.4421052631579" y="1155.5789473684213"/>
      <point x="915.1789473684211" y="1037.2842105263157" type="curve"/>
      <point x="710.9684210526316" y="806.1894736842105" type="line"/>
      <point x="697.2842105263157" y="806.1894736842105" type="line"/>
      <point x="585.5368421052632" y="1033.621052631579" type="line"/>
      <point x="530.4210526315788" y="1151.5789473684213"/>
      <point x="468.1473684210526" y="1287.705263157895"/>
      <point x="405.70526315789476" y="1426.0" type="curve"/>
      <point x="274.08421052631576" y="1426.0" type="line"/>
      <point x="358.2315789473684" y="1265.3263157894735"/>
      <point x="424.7157894736842" y="1131.3263157894737"/>
      <point x="493.2" y="998.9894736842106" type="curve"/>
      <point x="635.6421052631579" y="708.3157894736842" type="line"/>
      <point x="643.3263157894737" y="748.7157894736843" type="line"/>
      <point x="337.2210526315789" y="400.69473684210527" type="line"/>
      <point x="206.73684210526315" y="258.0210526315789"/>
      <point x="90.25263157894734" y="129.68421052631578"/>
    </contour>
  </outline>
</glyph>
<glyph name="Y" format="2">
  <advance width="1272.1473684210525"/>
  <unicode hex="0059"/>
  <anchor x="533.4105263157895" y="0.0" name="bottom"/>
  <anchor x="833.7473684210527" y="1426.0" name="top"/>
  <anchor x="235.83157894736843" y="1426.0" name="topleft"/>
  <outline>
    <contour>
      <point x="611.8947368421052" y="586.8631578947368" type="line"/>
      <point x="703.0526315789473" y="586.8631578947368" type="line"/>
      <point x="1132.8631578947368" y="1096.778947368421" type="line"/>
      <point x="1225.0315789473682" y="1201.9578947368423"/>
      <point x="1321.3684210526317" y="1313.3052631578948"/>
      <point x="1418.715789473684" y="1426.0" type="curve"/>
      <point x="1273.0526315789475" y="1426.0" type="line"/>
      <point x="1110.336842105263" y="1224.2315789473685"/>
      <point x="1024.3999999999996" y="1119.7684210526315"/>
      <point x="889.6631578947367" y="952.8210526315789" type="curve"/>
      <point x="680.2947368421053" y="700.7368421052631" type="line"/>
      <point x="666.778947368421" y="700.7368421052631" type="line"/>
      <point x="559.5368421052632" y="962.1473684210526" type="line"/>
      <point x="497.59999999999997" y="1119.6000000000001"/>
      <point x="457.64210526315793" y="1222.2315789473685"/>
      <point x="377.5578947368421" y="1426.0" type="curve"/>
      <point x="251.09473684210528" y="1426.0" type="line"/>
      <point x="309.6" y="1295.8105263157895"/>
      <point x="350.10526315789474" y="1204.294736842105"/>
      <point x="398.4421052631579" y="1096.778947368421" type="curve"/>
    </contour>
    <contour>
      <point x="476.69473684210527" y="0.0" type="curve"/>
      <point x="592.4631578947368" y="0.0" type="line"/>
      <point x="623.2842105263157" y="160.4842105263158"/>
      <point x="648.4421052631578" y="293.978947368421"/>
      <point x="683.4315789473684" y="474.4842105263158" type="curve"/>
      <point x="725.3052631578947" y="669.3473684210526" type="line"/>
      <point x="625.0947368421052" y="669.3473684210526" type="line"/>
      <point x="583.2210526315789" y="474.4842105263158" type="line"/>
      <point x="543.8736842105263" y="299.6421052631579"/>
      <point x="513.3684210526316" y="164.4842105263158"/>
    </contour>
  </outline>
</glyph>
<glyph name="Z" format="2">
  <advance width="1325.578947368421"/>
  <unicode hex="005A"/>
  <anchor x="559.5368421052631" y="0.0" name="bottom"/>
  <anchor x="709.5368421052631" y="714.0" name="center"/>
  <anchor x="859.5368421052631" y="1426.0" name="top"/>
  <outline>
    <contour>
      <point x="1.6210526315789413" y="0.0" type="line"/>
      <point x="1106.4631578947367" y="0.0" type="line"/>
      <point x="1129.1999999999998" y="104.16842105263159" type="line"/>
      <point x="955.5789473684209" y="101.15789473684211"/>
      <point x="677.4947368421053" y="95.6421052631579"/>
      <point x="486.3789473684211" y="90.63157894736842" type="curve"/>
      <point x="89.49473684210528" y="90.63157894736842" type="line"/>
      <point x="114.50526315789473" y="31.221052631578946" type="line"/>
      <point x="891.2421052631579" y="834.6105263157895" type="line"/>
      <point x="1054.357894736842" y="1000.7157894736843"/>
      <point x="1217.3052631578946" y="1168.6526315789474"/>
      <point x="1380.5684210526315" y="1335.0736842105264" type="curve"/>
      <point x="1399.7894736842104" y="1426.0" type="line"/>
      <point x="314.8" y="1426.0" type="line"/>
      <point x="293.89473684210526" y="1322.9894736842107" type="line"/>
      <point x="510.50526315789483" y="1326.6736842105263"/>
      <point x="713.2842105263159" y="1332.021052631579"/>
      <point x="892.7368421052631" y="1335.3684210526317" type="curve"/>
      <point x="1326.9473684210527" y="1335.3684210526317" type="line"/>
      <point x="1280.9473684210525" y="1380.1263157894737" type="line"/>
      <point x="551.8315789473685" y="623.3473684210526" type="line"/>
      <point x="388.04210526315785" y="456.56842105263155"/>
      <point x="163.76842105263162" y="227.6421052631579"/>
      <point x="19.831578947368413" y="80.54736842105264" type="curve"/>
    </contour>
  </outline>
</glyph>
<glyph name="bracketleft" format="2">
  <advance width="706.8421052631579"/>
  <unicode hex="005B"/>
  <outline>
    <contour>
      <point x="55.368421052631575" y="-227.03157894736842" type="curve"/>
      <point x="160.8842105263158" y="-227.03157894736842" type="line"/>
      <point x="162.23157894736843" y="-214.8" type="line"/>
      <point x="193.2210526315789" y="-53.97894736842105"/>
      <point x="220.04210526315788" y="86.84210526315789"/>
      <point x="253.2" y="261.5157894736842" type="curve"/>
      <point x="416.3578947368421" y="1035.4736842105262" type="line"/>
      <point x="455.70526315789476" y="1210.821052631579"/>
      <point x="488.3789473684211" y="1350.3157894736842"/>
      <point x="525.0526315789474" y="1511.6421052631579" type="curve"/>
      <point x="528.4" y="1523.8736842105263" type="line"/>
      <point x="422.88421052631577" y="1523.8736842105263" type="line"/>
      <point x="391.5578947368422" y="1362.2105263157894"/>
      <point x="362.5684210526316" y="1223.557894736842"/>
      <point x="329.2421052631579" y="1047.7052631578947" type="curve"/>
      <point x="161.38947368421051" y="247.45263157894738" type="line"/>
      <point x="120.54736842105262" y="72.77894736842106"/>
      <point x="91.70526315789475" y="-66.54736842105264"/>
    </contour>
    <contour>
      <point x="136.82105263157897" y="-227.03157894736842" type="line"/>
      <point x="530.8" y="-227.03157894736842" type="line"/>
      <point x="548.3578947368421" y="-138.92631578947368" type="line"/>
      <point x="451.0315789473684" y="-139.6"/>
      <point x="346.5473684210526" y="-142.10526315789474"/>
      <point x="228.88421052631577" y="-142.94736842105263" type="curve"/>
      <point x="153.87368421052633" y="-142.94736842105263" type="line"/>
    </contour>
    <contour>
      <point x="484.42105263157896" y="1439.7894736842106" type="line"/>
      <point x="554.6105263157895" y="1439.7894736842106" type="line"/>
      <point x="693.4315789473684" y="1438.9473684210527"/>
      <point x="790.5894736842105" y="1436.4421052631578"/>
      <point x="879.9157894736843" y="1435.7684210526318" type="curve"/>
      <point x="899.3052631578947" y="1523.8736842105263" type="line"/>
      <point x="501.6421052631579" y="1523.8736842105263" type="line"/>
    </contour>
  </outline>
</glyph>
<glyph name="backslash" format="2">
  <advance width="883.9157894736843"/>
  <unicode hex="005C"/>
  <outline>
    <contour>
      <point x="608.3157894736843" y="0.0" type="curve"/>
      <point x="711.9999999999999" y="0.0" type="line"/>
      <point x="674.0" y="146.67368421052632"/>
      <point x="642.0" y="272.5052631578947"/>
      <point x="594.3368421052633" y="456.0" type="curve"/>
      <point x="475.8736842105263" y="950.1684210526316" type="line"/>
      <point x="432.4" y="1141.8315789473684"/>
      <point x="402.25263157894733" y="1275.494736842105"/>
      <point x="368.1052631578947" y="1426.0" type="curve"/>
      <point x="264.7578947368421" y="1426.0" type="line"/>
      <point x="304.58947368421053" y="1269.494736842105"/>
      <point x="338.25263157894733" y="1136.0"/>
      <point x="385.9157894736842" y="949.8315789473684" type="curve"/>
      <point x="504.2105263157895" y="456.0" type="line"/>
      <point x="545.8526315789474" y="272.0"/>
      <point x="574.3368421052633" y="148.0"/>
    </contour>
  </outline>
</glyph>
<glyph name="asciicircum" format="2">
  <advance width="1191.4526315789474"/>
  <unicode hex="005E"/>
  <outline>
    <contour>
      <point x="1027.2421052631576" y="778.7368421052631" type="curve"/>
      <point x="1120.9894736842105" y="780.9052631578948" type="line"/>
      <point x="1027.8526315789475" y="978.1052631578948"/>
      <point x="936.5473684210527" y="1171.8105263157895"/>
      <point x="843.4105263157895" y="1369.0105263157895" type="curve"/>
      <point x="698.4842105263158" y="1369.0105263157895" type="line"/>
      <point x="529.8526315789474" y="1173.8105263157895"/>
      <point x="361.05263157894746" y="980.1052631578948"/>
      <point x="192.42105263157893" y="784.9052631578948" type="curve"/>
      <point x="300.86315789473684" y="784.9052631578948" type="line"/>
      <point x="452.63157894736844" y="951.6842105263158"/>
      <point x="605.5578947368422" y="1119.4526315789474"/>
      <point x="757.3263157894737" y="1286.2315789473685" type="curve"/>
      <point x="770.8421052631579" y="1286.2315789473685" type="line"/>
      <point x="855.6421052631579" y="1117.7894736842106"/>
      <point x="942.442105263158" y="947.178947368421"/>
    </contour>
  </outline>
</glyph>
<glyph name="underscore" format="2">
  <advance width="773.4736842105264"/>
  <unicode hex="005F"/>
  <outline>
    <contour>
      <point x="-166.7157894736842" y="-201.22105263157894" type="line"/>
      <point x="-47.85263157894737" y="-198.8842105263158"/>
      <point x="89.66315789473687" y="-196.54736842105262"/>
      <point x="163.5368421052632" y="-196.21052631578948" type="curve"/>
      <point x="320.8421052631579" y="-196.21052631578948" type="line"/>
      <point x="394.37894736842105" y="-196.54736842105262"/>
      <point x="527.8947368421053" y="-198.8842105263158"/>
      <point x="646.7578947368421" y="-201.22105263157894" type="curve"/>
      <point x="666.4842105263159" y="-109.93684210526315" type="line"/>
      <point x="547.4526315789474" y="-112.27368421052631"/>
      <point x="409.93684210526317" y="-114.61052631578947"/>
      <point x="336.23157894736846" y="-114.94736842105263" type="curve"/>
      <point x="178.9263157894737" y="-114.94736842105263" type="line"/>
      <point x="105.22105263157896" y="-114.61052631578947"/>
      <point x="-28.294736842105262" y="-112.27368421052631"/>
      <point x="-146.98947368421054" y="-109.93684210526315" type="curve"/>
    </contour>
  </outline>
</glyph>
<glyph name="b" format="2">
  <advance width="1181.3473684210528"/>
  <unicode hex="0062"/>
  <outline>
    <contour>
      <point x="572.2947368421052" y="-19.178947368421053" type="curve" smooth="yes"/>
      <point x="815.2842105263157" y="-19.178947368421053"/>
      <point x="992.9263157894736" y="154.52631578947367"/>
      <point x="1052.9263157894736" y="442.0210526315789" type="curve" smooth="yes"/>
      <point x="1115.0947368421052" y="742.3578947368421"/>
      <point x="994.4631578947368" y="1010.3578947368421"/>
      <point x="692.3368421052631" y="1010.3578947368421" type="curve" smooth="yes"/>
      <point x="608.8631578947368" y="1010.3578947368421"/>
      <point x="457.0947368421053" y="923.8947368421053"/>
      <point x="382.08421052631576" y="866.5473684210526" type="curve"/>
      <point x="368.4" y="866.5473684210526" type="line"/>
      <point x="393.38947368421054" y="987.8315789473684" type="line"/>
      <point x="433.0736842105263" y="1159.6842105263158"/>
      <point x="470.25263157894733" y="1318.8631578947368"/>
      <point x="510.9263157894737" y="1482.021052631579" type="curve"/>
      <point x="386.0" y="1458.5052631578947" type="line"/>
      <point x="359.68421052631584" y="1312.6526315789474"/>
      <point x="331.3684210526316" y="1156.821052631579"/>
      <point x="301.0526315789474" y="987.8315789473684" type="curve"/>
      <point x="184.8842105263158" y="440.65263157894736" type="line"/>
      <point x="145.87368421052633" y="278.14736842105265"/>
      <point x="117.36842105263159" y="148.98947368421054"/>
      <point x="82.69473684210526" y="0.0" type="curve"/>
      <point x="167.81052631578945" y="0.0" type="line"/>
      <point x="212.8421052631579" y="161.62105263157898" type="line"/>
      <point x="226.02105263157895" y="161.62105263157898" type="line"/>
      <point x="324.3578947368421" y="67.95789473684212"/>
      <point x="468.82105263157894" y="-19.178947368421053"/>
    </contour>
    <contour>
      <point x="560.6736842105263" y="71.09473684210526" type="curve"/>
      <point x="475.7263157894737" y="75.26315789473684"/>
      <point x="329.01052631578943" y="149.70526315789473"/>
      <point x="238.08421052631576" y="257.2842105263158" type="curve"/>
      <point x="342.86315789473684" y="749.2" type="line"/>
      <point x="445.4526315789474" y="843.3052631578947"/>
      <point x="609.1578947368422" y="918.0842105263158"/>
      <point x="670.4631578947368" y="920.5894736842106" type="curve"/>
      <point x="922.9473684210526" y="914.5894736842106"/>
      <point x="1011.0526315789473" y="707.3684210526316"/>
      <point x="958.4210526315788" y="452.0421052631579" type="curve" smooth="yes"/>
      <point x="912.9473684210526" y="234.16842105263157"/>
      <point x="788.021052631579" y="77.26315789473684"/>
    </contour>
  </outline>
</glyph>
<glyph name="c" format="2">
  <advance width="999.2842105263157"/>
  <unicode hex="0063"/>
  <anchor x="473.13684210526316" y="0.0" name="bottom"/>
  <anchor x="664.9894736842106" y="989.3473684210526" name="top"/>
  <outline>
    <contour>
      <point x="556.1894736842105" y="-18.673684210526318" type="curve" smooth="yes"/>
      <point x="626.6736842105263" y="-18.673684210526318"/>
      <point x="751.6631578947369" y="21.642105263157895"/>
      <point x="805.6631578947369" y="43.13684210526316" type="curve"/>
      <point x="810.8842105263159" y="146.2315789473684" type="line"/>
      <point x="738.0631578947368" y="109.57894736842105"/>
      <point x="615.2421052631579" y="71.91578947368421"/>
      <point x="563.9368421052632" y="70.08421052631579" type="curve" smooth="yes"/>
      <point x="302.56842105263155" y="74.08421052631579"/>
      <point x="158.1263157894737" y="246.31578947368422"/>
      <point x="219.26315789473685" y="533.8315789473684" type="curve" smooth="yes"/>
      <point x="272.4" y="781.1789473684211"/>
      <point x="443.7894736842105" y="910.5894736842105"/>
      <point x="655.8315789473684" y="920.5894736842105" type="curve"/>
      <point x="690.4842105263157" y="920.5894736842105"/>
      <point x="823.3052631578947" y="879.0947368421052"/>
      <point x="949.4526315789474" y="826.1052631578948" type="curve"/>
      <point x="978.5263157894736" y="920.042105263158" type="line"/>
      <point x="894.6526315789474" y="950.7157894736843"/>
      <point x="722.6526315789473" y="1010.1894736842105"/>
      <point x="657.4947368421053" y="1010.1894736842105" type="curve" smooth="yes"/>
      <point x="390.42105263157896" y="1010.1894736842105"/>
      <point x="181.26315789473685" y="820.6947368421053"/>
      <point x="124.92631578947369" y="547.8526315789475" type="curve" smooth="yes"/>
      <point x="57.915789473684214" y="220.14736842105265"/>
      <point x="228.79999999999998" y="-18.673684210526318"/>
    </contour>
  </outline>
</glyph>
<glyph name="d" format="2">
  <advance width="1147.7052631578947"/>
  <unicode hex="0064"/>
  <anchor x="510.5263157894737" y="0.0" name="bottom"/>
  <anchor x="579.1789473684211" y="494.6736842105263" name="center"/>
  <anchor x="814.8631578947369" y="1447.6842105263158" name="top"/>
  <anchor x="1199.5578947368422" y="989.3473684210526" name="topright"/>
  <outline>
    <contour>
      <point x="489.178947368421" y="-19.178947368421053" type="curve" smooth="yes"/>
      <point x="577.4947368421051" y="-19.178947368421053"/>
      <point x="719.9578947368419" y="56.80000000000001"/>
      <point x="815.1368421052631" y="153.45263157894735" type="curve"/>
      <point x="828.3157894736842" y="153.45263157894735" type="line"/>
      <point x="795.5157894736843" y="0.0" type="line"/>
      <point x="884.8210526315788" y="0.0" type="line"/>
      <point x="913.8105263157894" y="148.98947368421054"/>
      <point x="938.8" y="278.14736842105265"/>
      <point x="969.9578947368421" y="440.65263157894736" type="curve"/>
      <point x="1086.1263157894737" y="987.8315789473684" type="line"/>
      <point x="1125.8105263157895" y="1159.6842105263158"/>
      <point x="1162.9894736842107" y="1318.8631578947368"/>
      <point x="1203.6631578947367" y="1482.021052631579" type="curve"/>
      <point x="1078.736842105263" y="1458.5052631578947" type="line"/>
      <point x="1052.421052631579" y="1312.6526315789474"/>
      <point x="1024.1052631578946" y="1156.821052631579"/>
      <point x="993.7894736842105" y="987.8315789473684" type="curve"/>
      <point x="966.9684210526317" y="855.5578947368422" type="line"/>
      <point x="953.2842105263159" y="855.5578947368422" type="line"/>
      <point x="869.2842105263157" y="925.8947368421051"/>
      <point x="715.1789473684211" y="1010.3578947368421"/>
      <point x="609.221052631579" y="1010.3578947368421" type="curve" smooth="yes"/>
      <point x="366.2315789473684" y="1010.3578947368421"/>
      <point x="188.58947368421053" y="836.6526315789473"/>
      <point x="128.58947368421053" y="549.1578947368421" type="curve" smooth="yes"/>
      <point x="66.42105263157896" y="248.82105263157894"/>
      <point x="187.05263157894737" y="-19.178947368421053"/>
    </contour>
    <contour>
      <point x="511.0526315789474" y="70.58947368421053" type="curve"/>
      <point x="258.5684210526316" y="74.7578947368421"/>
      <point x="168.63157894736844" y="285.6421052631579"/>
      <point x="223.09473684210528" y="539.1368421052632" type="curve" smooth="yes"/>
      <point x="270.40000000000003" y="760.6736842105263"/>
      <point x="393.4947368421053" y="913.9157894736842"/>
      <point x="620.8421052631579" y="920.0842105263158" type="curve"/>
      <point x="711.2842105263157" y="917.7473684210527"/>
      <point x="852.5052631578948" y="843.3052631578947"/>
      <point x="945.2631578947369" y="766.8631578947368" type="curve"/>
      <point x="844.1473684210526" y="282.2736842105263" type="line"/>
      <point x="752.5473684210526" y="169.85263157894732"/>
      <point x="610.8210526315789" y="74.92631578947368"/>
    </contour>
  </outline>
</glyph>
<glyph name="e" format="2">
  <advance width="1056.816091954023"/>
  <unicode hex="0065"/>
  <anchor x="472.6091954022989" y="0.0" name="bottom"/>
  <anchor x="663.6436781609195" y="0.0" name="ogonek"/>
  <anchor x="662.448275862069" y="989.471264367816" name="top"/>
  <outline>
    <contour>
      <point x="545.7586206896551" y="-19.103448275862068" type="curve" smooth="yes"/>
      <point x="616.8620689655171" y="-19.103448275862068"/>
      <point x="749.5977011494252" y="12.160919540229889"/>
      <point x="844.3333333333334" y="44.160919540229884" type="curve"/>
      <point x="858.3793103448276" y="148.43678160919544" type="line"/>
      <point x="730.3793103448276" y="97.54022988505747"/>
      <point x="603.4827586206895" y="69.54022988505747"/>
      <point x="554.5862068965517" y="69.54022988505747" type="curve" smooth="yes"/>
      <point x="290.7241379310345" y="69.54022988505747"/>
      <point x="158.03448275862067" y="244.66666666666666"/>
      <point x="213.4597701149425" y="509.632183908046" type="curve"/>
      <point x="214.9310344827586" y="521.1494252873564" type="line"/>
      <point x="273.9885057471264" y="796.3908045977012"/>
      <point x="442.95402298850576" y="916.5057471264367"/>
      <point x="632.609195402299" y="922.5057471264367" type="curve"/>
      <point x="827.896551724138" y="916.5057471264367"/>
      <point x="921.8045977011494" y="788.0229885057472"/>
      <point x="880.3793103448276" y="587.103448275862" type="curve" smooth="yes"/>
      <point x="876.3793103448276" y="567.471264367816"/>
      <point x="870.3793103448276" y="545.8390804597701"/>
      <point x="864.3793103448276" y="527.8390804597701" type="curve"/>
      <point x="937.5977011494253" y="470.6896551724138" type="line"/>
      <point x="947.9655172413793" y="499.7931034482758"/>
      <point x="961.5977011494253" y="543.0574712643678"/>
      <point x="968.3333333333334" y="574.896551724138" type="curve" smooth="yes"/>
      <point x="1018.0114942528736" y="810.7816091954023"/>
      <point x="902.4942528735633" y="1008.5747126436783"/>
      <point x="635.1379310344828" y="1008.5747126436783" type="curve" smooth="yes"/>
      <point x="386.35632183908046" y="1008.5747126436783"/>
      <point x="183.82758620689654" y="827.1034482758621"/>
      <point x="123.82758620689654" y="542.3678160919541" type="curve" smooth="yes"/>
      <point x="51.82758620689655" y="207.79310344827587"/>
      <point x="225.50574712643675" y="-19.103448275862068"/>
    </contour>
    <contour>
      <point x="150.4942528735632" y="470.6896551724138" type="line"/>
      <point x="937.5977011494253" y="470.6896551724138" type="line"/>
      <point x="951.4367816091954" y="541.1494252873563" type="line"/>
      <point x="892.1494252873563" y="551.2873563218391" type="line"/>
      <point x="164.33333333333331" y="549.448275862069" type="line"/>
    </contour>
  </outline>
</glyph>
<glyph name="h" format="2">
  <advance width="1141.0526315789475"/>
  <unicode hex="0068"/>
  <guideline x="106.21052631578947" y="732.0105263157894" angle="4.470799999999997"/>
  <anchor x="476.021052631579" y="0.0" name="bottom"/>
  <anchor x="648.021052631579" y="818.0" name="center"/>
  <anchor x="744.3368421052633" y="1447.6842105263158" name="top"/>
  <outline>
    <contour>
      <point x="82.69473684210526" y="0.0" type="curve"/>
      <point x="190.25263157894736" y="0.0" type="line"/>
      <point x="219.2421052631579" y="148.98947368421054"/>
      <point x="244.06315789473683" y="278.14736842105265"/>
      <point x="276.7157894736842" y="438.46315789473687" type="curve"/>
      <point x="333.0315789473684" y="697.3894736842104" type="line"/>
      <point x="466.9263157894737" y="822.1263157894737"/>
      <point x="627.6631578947367" y="918.0631578947368"/>
      <point x="714.5894736842105" y="918.0631578947368" type="curve" smooth="yes"/>
      <point x="896.2947368421052" y="918.0631578947368"/>
      <point x="944.5894736842106" y="810.6105263157895"/>
      <point x="902.2736842105263" y="613.3684210526317" type="curve"/>
      <point x="866.2947368421053" y="438.46315789473687" type="line"/>
      <point x="828.1263157894737" y="278.1473684210526"/>
      <point x="799.621052631579" y="148.98947368421054"/>
      <point x="765.1157894736842" y="0.0" type="curve"/>
      <point x="872.3368421052631" y="0.0" type="line"/>
      <point x="901.3263157894737" y="148.98947368421054"/>
      <point x="926.1473684210525" y="278.1473684210526"/>
      <point x="959.1368421052631" y="440.65263157894736" type="curve"/>
      <point x="975.1368421052631" y="516.821052631579"/>
      <point x="988.6526315789474" y="570.1894736842105"/>
      <point x="1000.6526315789474" y="624.5263157894736" type="curve" smooth="yes"/>
      <point x="1054.1473684210525" y="867.1789473684211"/>
      <point x="961.978947368421" y="1010.3578947368421"/>
      <point x="740.9894736842105" y="1010.3578947368421" type="curve" smooth="yes"/>
      <point x="626.2105263157895" y="1010.3578947368421"/>
      <point x="463.0947368421053" y="897.0736842105263"/>
      <point x="370.7578947368421" y="818.9052631578949" type="curve"/>
      <point x="358.7368421052632" y="818.9052631578949" type="line"/>
      <point x="393.38947368421054" y="987.8315789473684" type="line"/>
      <point x="433.0736842105263" y="1159.6842105263158"/>
      <point x="470.25263157894733" y="1318.863157894737"/>
      <point x="510.9263157894737" y="1482.021052631579" type="curve"/>
      <point x="386.0" y="1458.5052631578947" type="line"/>
      <point x="359.68421052631584" y="1312.6526315789474"/>
      <point x="331.3684210526316" y="1156.821052631579"/>
      <point x="301.0526315789474" y="987.8315789473684" type="curve"/>
      <point x="184.8842105263158" y="440.65263157894736" type="line"/>
      <point x="145.87368421052633" y="278.14736842105265"/>
      <point x="117.36842105263159" y="148.98947368421054"/>
    </contour>
  </outline>
</glyph>
<glyph name="k" format="2">
  <advance width="1049.0105263157895"/>
  <unicode hex="006B"/>
  <anchor x="437.89473684210526" y="0.0" name="bottom"/>
  <anchor x="742.2315789473685" y="1447.6842105263158" name="top"/>
  <outline>
    <contour>
      <point x="763.8315789473684" y="0.0" type="curve"/>
      <point x="906.5684210526315" y="0.0" type="line"/>
      <point x="791.2842105263159" y="115.01052631578948"/>
      <point x="675.8315789473684" y="228.3578947368421"/>
      <point x="560.5473684210527" y="343.36842105263156" type="curve"/>
      <point x="380.61052631578946" y="528.4421052631579" type="line"/>
      <point x="395.1578947368421" y="477.6421052631579" type="line"/>
      <point x="613.5789473684209" y="644.9894736842106" type="line"/>
      <point x="766.6947368421053" y="759.8315789473684"/>
      <point x="921.4736842105262" y="874.5052631578948"/>
      <point x="1078.2526315789473" y="989.3473684210526" type="curve"/>
      <point x="923.6842105263158" y="989.3473684210526" type="line"/>
      <point x="799.9368421052632" y="892.8631578947368"/>
      <point x="674.357894736842" y="794.7157894736843"/>
      <point x="550.6105263157895" y="698.2315789473685" type="curve"/>
      <point x="345.0736842105263" y="540.7578947368421" type="line"/>
      <point x="283.7263157894737" y="540.7578947368421" type="line"/>
      <point x="267.6842105263158" y="465.5578947368421" type="line"/>
      <point x="318.37894736842105" y="465.5578947368421" type="line"/>
      <point x="494.7368421052632" y="287.4315789473684" type="line"/>
      <point x="585.1578947368421" y="191.62105263157895"/>
      <point x="675.4105263157895" y="95.81052631578947"/>
    </contour>
    <contour>
      <point x="82.69473684210526" y="0.0" type="curve"/>
      <point x="190.25263157894736" y="0.0" type="line"/>
      <point x="218.56842105263158" y="146.96842105263158"/>
      <point x="243.22105263157894" y="274.4421052631579"/>
      <point x="275.5368421052632" y="432.7368421052632" type="curve"/>
      <point x="393.38947368421054" y="987.8315789473684" type="line"/>
      <point x="433.0736842105263" y="1159.6842105263158"/>
      <point x="470.25263157894733" y="1318.863157894737"/>
      <point x="510.9263157894737" y="1482.021052631579" type="curve"/>
      <point x="386.0" y="1458.5052631578947" type="line"/>
      <point x="359.68421052631584" y="1312.6526315789474"/>
      <point x="331.3684210526316" y="1156.821052631579"/>
      <point x="301.0526315789474" y="987.8315789473684" type="curve"/>
      <point x="184.8842105263158" y="440.65263157894736" type="line"/>
      <point x="145.87368421052633" y="278.14736842105265"/>
      <point x="117.36842105263159" y="148.98947368421054"/>
    </contour>
  </outline>
</glyph>
<glyph name="l" format="2">
  <advance width="486.77894736842103"/>
  <unicode hex="006C"/>
  <anchor x="137.38947368421051" y="0.0" name="bottom"/>
  <anchor x="312.2315789473684" y="818.0" name="center"/>
  <anchor x="444.0421052631579" y="1447.6842105263158" name="top"/>
  <anchor x="505.9789473684211" y="989.3473684210526" name="topright"/>
  <outline>
    <contour>
      <point x="82.69473684210526" y="0.0" type="curve"/>
      <point x="190.25263157894736" y="0.0" type="line"/>
      <point x="219.2421052631579" y="148.98947368421054"/>
      <point x="246.06315789473683" y="278.14736842105265"/>
      <point x="277.22105263157897" y="440.65263157894736" type="curve"/>
      <point x="393.38947368421054" y="987.8315789473684" type="line"/>
      <point x="433.0736842105263" y="1159.6842105263158"/>
      <point x="470.25263157894733" y="1318.8631578947368"/>
      <point x="510.9263157894737" y="1482.021052631579" type="curve"/>
      <point x="386.0" y="1458.5052631578947" type="line"/>
      <point x="359.68421052631584" y="1312.6526315789474"/>
      <point x="331.3684210526316" y="1156.821052631579"/>
      <point x="301.0526315789474" y="987.8315789473684" type="curve"/>
      <point x="184.8842105263158" y="440.65263157894736" type="line"/>
      <point x="145.87368421052633" y="278.14736842105265"/>
      <point x="117.36842105263159" y="148.98947368421054"/>
    </contour>
  </outline>
</glyph>
<glyph name="m" format="2">
  <advance width="1756.3578947368421"/>
  <unicode hex="006D"/>
  <anchor x="797.3263157894736" y="0.0" name="bottom"/>
  <anchor x="1005.6631578947369" y="989.3473684210526" name="top"/>
  <outline>
    <contour>
      <point x="94.3578947368421" y="0.0" type="curve"/>
      <point x="201.91578947368419" y="0.0" type="line"/>
      <point x="230.90526315789472" y="148.98947368421054"/>
      <point x="255.89473684210526" y="278.14736842105265"/>
      <point x="288.378947368421" y="438.46315789473687" type="curve"/>
      <point x="344.6947368421052" y="697.3894736842104" type="line"/>
      <point x="478.58947368421053" y="822.1263157894736"/>
      <point x="629.8315789473685" y="918.0631578947368"/>
      <point x="714.9263157894737" y="918.0631578947368" type="curve" smooth="yes"/>
      <point x="874.3157894736842" y="918.0631578947368"/>
      <point x="922.6105263157896" y="810.6105263157895"/>
      <point x="880.2947368421053" y="613.3684210526317" type="curve"/>
      <point x="844.3157894736843" y="438.46315789473687" type="line"/>
      <point x="806.1473684210526" y="278.1473684210526"/>
      <point x="777.642105263158" y="148.98947368421054"/>
      <point x="743.1368421052632" y="0.0" type="curve"/>
      <point x="850.3578947368421" y="0.0" type="line"/>
      <point x="879.3473684210526" y="148.98947368421054"/>
      <point x="904.1684210526315" y="278.1473684210526"/>
      <point x="937.1578947368421" y="440.65263157894736" type="curve"/>
      <point x="953.1578947368421" y="516.821052631579"/>
      <point x="966.6736842105263" y="570.1894736842105"/>
      <point x="978.6736842105263" y="624.5263157894736" type="curve" smooth="yes"/>
      <point x="989.0105263157894" y="673.8736842105263"/>
      <point x="994.6736842105263" y="719.0526315789474"/>
      <point x="994.0" y="758.0631578947368" type="curve"/>
      <point x="990.6526315789474" y="765.3894736842105" type="line"/>
      <point x="985.978947368421" y="921.3684210526317"/>
      <point x="898.1473684210525" y="1010.3578947368421"/>
      <point x="739.4947368421053" y="1010.3578947368421" type="curve" smooth="yes"/>
      <point x="627.2" y="1010.3578947368421"/>
      <point x="466.2315789473684" y="894.7368421052631"/>
      <point x="372.2105263157895" y="816.0631578947368" type="curve"/>
      <point x="360.18947368421055" y="816.0631578947368" type="line"/>
      <point x="388.00000000000006" y="996.5263157894736" type="line"/>
      <point x="291.68421052631584" y="989.3473684210526" type="line"/>
      <point x="275.6842105263158" y="881.957894736842"/>
      <point x="261.8526315789473" y="771.9157894736842"/>
      <point x="246.02105263157898" y="670.6947368421053" type="curve"/>
      <point x="196.54736842105265" y="440.65263157894736" type="line"/>
      <point x="157.5368421052632" y="278.14736842105265"/>
      <point x="129.03157894736842" y="148.98947368421054"/>
    </contour>
    <contour>
      <point x="1380.421052631579" y="0.0" type="curve"/>
      <point x="1487.642105263158" y="0.0" type="line"/>
      <point x="1516.6315789473683" y="148.98947368421054"/>
      <point x="1541.4526315789476" y="278.1473684210526"/>
      <point x="1574.442105263158" y="440.65263157894736" type="curve"/>
      <point x="1590.442105263158" y="516.821052631579"/>
      <point x="1603.9578947368423" y="570.1894736842105"/>
      <point x="1615.9578947368423" y="624.5263157894736" type="curve" smooth="yes"/>
      <point x="1669.4526315789474" y="867.1789473684212"/>
      <point x="1577.2842105263157" y="1010.3578947368421"/>
      <point x="1376.778947368421" y="1010.3578947368421" type="curve" smooth="yes"/>
      <point x="1264.4842105263158" y="1010.3578947368421"/>
      <point x="1096.021052631579" y="891.0736842105264"/>
      <point x="999.4947368421051" y="808.2315789473683" type="curve"/>
      <point x="983.9789473684211" y="808.2315789473683" type="line"/>
      <point x="981.978947368421" y="697.3894736842104" type="line"/>
      <point x="1115.8736842105263" y="822.1263157894737"/>
      <point x="1267.1157894736843" y="918.0631578947368"/>
      <point x="1352.2105263157894" y="918.0631578947368" type="curve" smooth="yes"/>
      <point x="1511.6000000000001" y="918.0631578947368"/>
      <point x="1559.8947368421052" y="810.6105263157895"/>
      <point x="1517.578947368421" y="613.3684210526317" type="curve"/>
      <point x="1481.6" y="438.46315789473687" type="line"/>
      <point x="1443.4315789473685" y="278.1473684210526"/>
      <point x="1414.9263157894736" y="148.98947368421054"/>
    </contour>
  </outline>
</glyph>
<glyph name="n" format="2">
  <advance width="1152.7157894736843"/>
  <unicode hex="006E"/>
  <anchor x="484.67368421052635" y="0.0" name="bottom"/>
  <anchor x="693.0105263157895" y="989.3473684210526" name="top"/>
  <outline>
    <contour>
      <point x="94.3578947368421" y="0.0" type="curve"/>
      <point x="201.91578947368419" y="0.0" type="line"/>
      <point x="230.90526315789472" y="148.98947368421054"/>
      <point x="255.89473684210526" y="278.14736842105265"/>
      <point x="288.378947368421" y="438.46315789473687" type="curve"/>
      <point x="344.6947368421052" y="697.3894736842104" type="line"/>
      <point x="478.58947368421053" y="822.1263157894737"/>
      <point x="639.3263157894736" y="918.0631578947368"/>
      <point x="726.2526315789473" y="918.0631578947368" type="curve" smooth="yes"/>
      <point x="907.957894736842" y="918.0631578947368"/>
      <point x="956.2526315789474" y="810.6105263157895"/>
      <point x="913.9368421052632" y="613.3684210526317" type="curve"/>
      <point x="877.9578947368421" y="438.46315789473687" type="line"/>
      <point x="839.7894736842105" y="278.1473684210526"/>
      <point x="811.2842105263159" y="148.98947368421054"/>
      <point x="776.7789473684211" y="0.0" type="curve"/>
      <point x="884.0" y="0.0" type="line"/>
      <point x="912.9894736842105" y="148.98947368421054"/>
      <point x="937.8105263157894" y="278.1473684210526"/>
      <point x="970.8" y="440.65263157894736" type="curve"/>
      <point x="986.8" y="516.821052631579"/>
      <point x="1000.3157894736842" y="570.1894736842105"/>
      <point x="1012.3157894736842" y="624.5263157894736" type="curve" smooth="yes"/>
      <point x="1065.8105263157893" y="867.1789473684211"/>
      <point x="973.6421052631579" y="1010.3578947368421"/>
      <point x="752.6526315789473" y="1010.3578947368421" type="curve" smooth="yes"/>
      <point x="636.6947368421052" y="1010.3578947368421"/>
      <point x="466.0631578947369" y="894.7368421052631"/>
      <point x="372.04210526315785" y="816.0631578947368" type="curve"/>
      <point x="360.0210526315789" y="816.0631578947368" type="line"/>
      <point x="389.8315789473685" y="996.5263157894736" type="line"/>
      <point x="291.68421052631584" y="989.3473684210526" type="line"/>
      <point x="275.6842105263158" y="881.957894736842"/>
      <point x="261.8526315789473" y="771.9157894736842"/>
      <point x="246.02105263157898" y="670.6947368421053" type="curve"/>
      <point x="196.54736842105265" y="440.65263157894736" type="line"/>
      <point x="157.5368421052632" y="278.14736842105265"/>
      <point x="129.03157894736842" y="148.98947368421054"/>
    </contour>
  </outline>
</glyph>
<glyph name="p" format="2">
  <advance width="1193.0105263157895"/>
  <unicode hex="0070"/>
  <outline>
    <contour>
      <point x="10.52631578947369" y="-388.6736842105263" type="curve"/>
      <point x="120.92631578947368" y="-384.0" type="line"/>
      <point x="149.57894736842104" y="-235.01052631578946"/>
      <point x="174.2315789473684" y="-105.85263157894737"/>
      <point x="206.54736842105262" y="54.463157894736845" type="curve"/>
      <point x="229.70526315789473" y="158.92631578947368" type="line"/>
      <point x="242.54736842105265" y="158.92631578947368" type="line"/>
      <point x="339.70526315789476" y="66.94736842105264"/>
      <point x="481.3263157894737" y="-19.178947368421053"/>
      <point x="583.9578947368421" y="-19.178947368421053" type="curve" smooth="yes"/>
      <point x="826.9473684210527" y="-19.178947368421053"/>
      <point x="1004.5894736842105" y="154.52631578947367"/>
      <point x="1064.5894736842104" y="442.0210526315789" type="curve" smooth="yes"/>
      <point x="1126.757894736842" y="742.3578947368421"/>
      <point x="1006.1263157894737" y="1010.3578947368421"/>
      <point x="704.0" y="1010.3578947368421" type="curve" smooth="yes"/>
      <point x="617.8526315789474" y="1010.3578947368421"/>
      <point x="462.4" y="923.3894736842104"/>
      <point x="384.3789473684211" y="860.5263157894736" type="curve"/>
      <point x="370.3578947368422" y="860.5263157894736" type="line"/>
      <point x="385.85263157894735" y="996.5263157894736" type="line"/>
      <point x="291.6842105263159" y="989.3473684210526" type="line"/>
      <point x="275.6842105263158" y="881.957894736842"/>
      <point x="261.8526315789473" y="771.9157894736842"/>
      <point x="246.02105263157895" y="670.6947368421053" type="curve"/>
      <point x="114.71578947368423" y="56.65263157894737" type="line"/>
      <point x="77.70526315789473" y="-105.85263157894737"/>
      <point x="45.03157894736842" y="-239.68421052631578"/>
    </contour>
    <contour>
      <point x="572.3368421052631" y="71.09473684210526" type="curve"/>
      <point x="487.3894736842105" y="75.26315789473684"/>
      <point x="340.6736842105263" y="149.70526315789473"/>
      <point x="249.7473684210526" y="257.2842105263158" type="curve"/>
      <point x="354.52631578947364" y="749.2" type="line"/>
      <point x="457.11578947368423" y="843.3052631578947"/>
      <point x="620.8210526315789" y="918.0842105263158"/>
      <point x="682.1263157894737" y="920.5894736842106" type="curve"/>
      <point x="934.6105263157895" y="914.5894736842106"/>
      <point x="1022.7157894736843" y="707.3684210526316"/>
      <point x="970.0842105263158" y="452.0421052631579" type="curve" smooth="yes"/>
      <point x="924.6105263157895" y="234.16842105263157"/>
      <point x="799.6842105263158" y="77.26315789473684"/>
    </contour>
  </outline>
</glyph>
<glyph name="q" format="2">
  <advance width="1172.673684210526"/>
  <unicode hex="0071"/>
  <outline>
    <contour>
      <point x="695.2631578947369" y="-388.6736842105263" type="curve"/>
      <point x="804.6526315789473" y="-384.0" type="line"/>
      <point x="833.6421052631578" y="-235.01052631578946"/>
      <point x="858.6315789473683" y="-105.85263157894737"/>
      <point x="891.6210526315789" y="56.65263157894737" type="curve"/>
      <point x="1021.2631578947369" y="670.6947368421053" type="line"/>
      <point x="1047.284210526316" y="774.2526315789474"/>
      <point x="1080.9684210526316" y="886.8000000000001"/>
      <point x="1111.3263157894737" y="996.5263157894736" type="curve"/>
      <point x="1013.8315789473684" y="989.3473684210526" type="line"/>
      <point x="975.3263157894737" y="847.7052631578947" type="line"/>
      <point x="961.642105263158" y="847.7052631578947" type="line"/>
      <point x="874.8000000000001" y="921.3894736842105"/>
      <point x="717.6842105263158" y="1010.3578947368421"/>
      <point x="609.221052631579" y="1010.3578947368421" type="curve" smooth="yes"/>
      <point x="366.2315789473684" y="1010.3578947368421"/>
      <point x="188.58947368421053" y="836.6526315789473"/>
      <point x="128.58947368421053" y="549.1578947368421" type="curve" smooth="yes"/>
      <point x="66.42105263157896" y="248.82105263157894"/>
      <point x="187.05263157894737" y="-19.178947368421053"/>
      <point x="489.178947368421" y="-19.178947368421053" type="curve" smooth="yes"/>
      <point x="574.4842105263158" y="-19.178947368421053"/>
      <point x="713.4315789473685" y="52.294736842105266"/>
      <point x="804.7578947368421" y="143.93684210526317" type="curve"/>
      <point x="818.2736842105263" y="143.93684210526317" type="line"/>
      <point x="798.778947368421" y="54.463157894736845" type="line"/>
      <point x="762.4421052631578" y="-105.85263157894737"/>
      <point x="729.7684210526314" y="-239.68421052631578"/>
    </contour>
    <contour>
      <point x="511.0526315789474" y="70.58947368421053" type="curve"/>
      <point x="258.5684210526316" y="74.7578947368421"/>
      <point x="168.63157894736844" y="285.6421052631579"/>
      <point x="223.09473684210528" y="539.1368421052632" type="curve" smooth="yes"/>
      <point x="270.40000000000003" y="760.6736842105263"/>
      <point x="393.4947368421053" y="913.9157894736842"/>
      <point x="620.8421052631579" y="920.0842105263158" type="curve"/>
      <point x="711.2842105263157" y="917.7473684210527"/>
      <point x="852.5052631578948" y="843.3052631578947"/>
      <point x="948.9263157894737" y="761.3684210526316" type="curve"/>
      <point x="845.9789473684211" y="282.2736842105263" type="line"/>
      <point x="752.5473684210526" y="169.85263157894732"/>
      <point x="610.8210526315789" y="74.92631578947368"/>
    </contour>
  </outline>
</glyph>
<glyph name="r" format="2">
  <advance width="795.4105263157894"/>
  <unicode hex="0072"/>
  <anchor x="140.21052631578948" y="0.0" name="bottom"/>
  <anchor x="569.0105263157895" y="989.3473684210526" name="top"/>
  <outline>
    <contour>
      <point x="94.3578947368421" y="0.0" type="curve"/>
      <point x="201.91578947368419" y="0.0" type="line"/>
      <point x="230.90526315789472" y="148.98947368421054"/>
      <point x="255.89473684210526" y="278.14736842105265"/>
      <point x="288.378947368421" y="438.46315789473687" type="curve"/>
      <point x="338.35789473684207" y="663.1999999999999" type="line"/>
      <point x="501.0736842105264" y="827.4105263157895"/>
      <point x="629.3684210526317" y="914.1894736842105"/>
      <point x="689.6631578947369" y="914.1894736842105" type="curve" smooth="yes"/>
      <point x="705.8315789473684" y="914.1894736842105"/>
      <point x="761.6631578947367" y="900.1894736842106"/>
      <point x="813.3473684210526" y="887.5157894736843" type="curve"/>
      <point x="843.1157894736841" y="988.5263157894738" type="line"/>
      <point x="793.7894736842105" y="1002.3578947368421"/>
      <point x="728.6315789473683" y="1010.3578947368421"/>
      <point x="707.3052631578947" y="1010.3578947368421" type="curve" smooth="yes"/>
      <point x="628.6315789473684" y="1010.3578947368421"/>
      <point x="511.68421052631567" y="933.3894736842104"/>
      <point x="366.5473684210526" y="790.421052631579" type="curve"/>
      <point x="354.5263157894737" y="790.421052631579" type="line"/>
      <point x="388.00000000000006" y="996.5263157894736" type="line"/>
      <point x="291.68421052631584" y="989.3473684210526" type="line"/>
      <point x="275.6842105263158" y="881.957894736842"/>
      <point x="261.8526315789473" y="771.9157894736842"/>
      <point x="246.02105263157898" y="670.6947368421053" type="curve"/>
      <point x="196.54736842105265" y="440.65263157894736" type="line"/>
      <point x="157.5368421052632" y="278.14736842105265"/>
      <point x="129.03157894736842" y="148.98947368421054"/>
    </contour>
  </outline>
</glyph>
<glyph name="t" format="2">
  <advance width="806.0631578947368"/>
  <unicode hex="0074"/>
  <anchor x="368.9894736842105" y="0.0" name="bottom"/>
  <anchor x="413.2" y="494.6736842105263" name="center"/>
  <anchor x="553.2210526315789" y="1257.4315789473685" name="top"/>
  <anchor x="549.663157894737" y="989.3473684210526" name="topright"/>
  <outline>
    <contour>
      <point x="464.6947368421053" y="-19.178947368421053" type="curve" smooth="yes"/>
      <point x="509.68421052631584" y="-19.178947368421053"/>
      <point x="590.0631578947367" y="7.9789473684210535"/>
      <point x="645.7473684210526" y="28.147368421052633" type="curve"/>
      <point x="652.1263157894738" y="129.5578947368421" type="line"/>
      <point x="583.3052631578947" y="96.39999999999999"/>
      <point x="508.3157894736842" y="69.2421052631579"/>
      <point x="479.6631578947369" y="69.2421052631579" type="curve" smooth="yes"/>
      <point x="348.5684210526315" y="69.2421052631579"/>
      <point x="276.77894736842103" y="142.2315789473684"/>
      <point x="316.7578947368421" y="327.4736842105263" type="curve" smooth="yes"/>
      <point x="450.7157894736842" y="954.9473684210526" type="line"/>
      <point x="481.7263157894737" y="1100.0"/>
      <point x="501.7473684210526" y="1192.5473684210526"/>
      <point x="534.1052631578947" y="1336.4" type="curve"/>
      <point x="431.2" y="1309.5157894736842" type="line"/>
      <point x="406.7157894736842" y="1188.0"/>
      <point x="385.5578947368421" y="1082.6526315789474"/>
      <point x="358.88421052631577" y="954.9473684210526" type="curve"/>
      <point x="327.34736842105264" y="806.2736842105263"/>
      <point x="277.2" y="585.5578947368421"/>
      <point x="222.06315789473683" y="325.3684210526316" type="curve" smooth="yes"/>
      <point x="175.05263157894737" y="105.81052631578947"/>
      <point x="275.95789473684215" y="-19.178947368421053"/>
    </contour>
    <contour>
      <point x="140.08421052631581" y="902.0842105263158" type="line"/>
      <point x="370.12631578947367" y="914.9473684210526" type="line"/>
      <point x="401.9578947368421" y="914.9473684210526" type="line"/>
      <point x="535.2631578947369" y="912.1052631578947"/>
      <point x="678.7368421052631" y="907.0947368421052"/>
      <point x="814.5473684210526" y="902.0842105263158" type="curve"/>
      <point x="833.7684210526317" y="989.3473684210526" type="line"/>
      <point x="159.30526315789473" y="989.3473684210526" type="line"/>
    </contour>
  </outline>
</glyph>
<glyph name="u" format="2">
  <advance width="1105.7473684210527"/>
  <unicode hex="0075"/>
  <anchor x="449.3684210526315" y="0.0" name="bottom"/>
  <anchor x="835.3473684210525" y="0.0" name="ogonek"/>
  <anchor x="657.5368421052632" y="989.3473684210526" name="top"/>
  <anchor x="1149.7684210526315" y="989.3473684210526" name="topright"/>
  <outline>
    <contour>
      <point x="400.88421052631577" y="-19.178947368421053" type="curve" smooth="yes"/>
      <point x="505.8526315789473" y="-19.178947368421053"/>
      <point x="676.4842105263159" y="96.4421052631579"/>
      <point x="770.5052631578948" y="175.11578947368423" type="curve"/>
      <point x="782.5263157894736" y="175.11578947368423" type="line"/>
      <point x="745.3894736842104" y="0.0" type="line"/>
      <point x="836.3578947368419" y="0.0" type="line"/>
      <point x="865.3473684210526" y="148.98947368421054"/>
      <point x="890.1684210526315" y="278.14736842105265"/>
      <point x="921.3263157894737" y="440.65263157894736" type="curve"/>
      <point x="943.6631578947369" y="542.3368421052631" type="line"/>
      <point x="981.3473684210526" y="707.5368421052632"/>
      <point x="1013.5157894736842" y="840.3578947368421"/>
      <point x="1048.0210526315789" y="989.3473684210526" type="curve"/>
      <point x="939.1368421052632" y="989.3473684210526" type="line"/>
      <point x="910.3157894736842" y="840.3578947368421"/>
      <point x="883.3263157894737" y="707.5368421052632"/>
      <point x="852.3368421052631" y="547.2210526315789" type="curve"/>
      <point x="797.6842105263158" y="292.9473684210526" type="line"/>
      <point x="663.7894736842106" y="168.21052631578948"/>
      <point x="503.0526315789474" y="72.27368421052631"/>
      <point x="427.11578947368423" y="72.27368421052631" type="curve" smooth="yes"/>
      <point x="245.41052631578947" y="72.27368421052631"/>
      <point x="196.9473684210526" y="179.7263157894737"/>
      <point x="239.26315789473682" y="376.9684210526316" type="curve"/>
      <point x="273.7473684210526" y="547.2210526315789" type="line"/>
      <point x="310.0842105263157" y="707.5368421052632"/>
      <point x="344.4210526315789" y="845.0315789473684"/>
      <point x="378.9263157894737" y="994.021052631579" type="curve"/>
      <point x="267.53684210526313" y="989.3473684210526" type="line"/>
      <point x="238.7157894736842" y="840.3578947368421"/>
      <point x="211.72631578947366" y="707.536842105263"/>
      <point x="180.39999999999998" y="542.3368421052631" type="curve"/>
      <point x="164.39999999999998" y="471.66315789473686"/>
      <point x="153.72631578947366" y="420.9894736842105"/>
      <point x="141.72631578947366" y="366.65263157894736" type="curve" smooth="yes"/>
      <point x="88.23157894736842" y="124.0"/>
      <point x="179.8947368421053" y="-19.178947368421053"/>
    </contour>
  </outline>
</glyph>
<glyph name="v" format="2">
  <advance width="1006.6526315789474"/>
  <unicode hex="0076"/>
  <outline>
    <contour>
      <point x="339.5578947368421" y="0.0" type="curve"/>
      <point x="462.92631578947373" y="0.0" type="line"/>
      <point x="535.9157894736843" y="124.16842105263157"/>
      <point x="606.9052631578948" y="246.33684210526317"/>
      <point x="678.0631578947368" y="370.5052631578947" type="curve"/>
      <point x="783.3894736842105" y="546.8421052631578" type="line"/>
      <point x="871.5578947368422" y="693.1789473684211"/>
      <point x="963.221052631579" y="843.1789473684211"/>
      <point x="1053.0526315789473" y="989.3473684210526" type="curve"/>
      <point x="932.1473684210525" y="989.3473684210526" type="line"/>
      <point x="829.3894736842105" y="809.2631578947369"/>
      <point x="731.621052631579" y="636.8210526315789"/>
      <point x="626.5263157894738" y="451.38947368421054" type="curve"/>
      <point x="424.65263157894736" y="104.18947368421053" type="line"/>
      <point x="410.9684210526316" y="104.18947368421053" type="line"/>
      <point x="355.0315789473684" y="451.38947368421054" type="line"/>
      <point x="326.9052631578947" y="634.8210526315789"/>
      <point x="300.61052631578946" y="811.2631578947369"/>
      <point x="272.31578947368416" y="994.021052631579" type="curve"/>
      <point x="165.6" y="989.3473684210526" type="line"/>
      <point x="193.4315789473684" y="845.5157894736842"/>
      <point x="221.4315789473684" y="695.0105263157894"/>
      <point x="249.26315789473685" y="550.6736842105263" type="curve"/>
      <point x="278.7578947368421" y="374.5052631578947" type="line"/>
      <point x="297.74736842105267" y="255.83157894736843"/>
      <point x="320.5684210526316" y="120.50526315789472"/>
    </contour>
  </outline>
</glyph>
<glyph name="w" format="2">
  <advance width="1583.4736842105262"/>
  <unicode hex="0077"/>
  <anchor x="689.3894736842105" y="0.0" name="bottom"/>
  <anchor x="897.5578947368422" y="989.3473684210526" name="top"/>
  <outline>
    <contour>
      <point x="289.5578947368421" y="0.0" type="curve"/>
      <point x="413.41052631578947" y="0.0" type="line"/>
      <point x="501.51578947368415" y="171.9157894736842"/>
      <point x="597.1157894736842" y="355.1578947368421"/>
      <point x="685.2210526315789" y="525.2421052631579" type="curve"/>
      <point x="856.7789473684211" y="852.0842105263158" type="line"/>
      <point x="870.1263157894737" y="852.0842105263158" type="line"/>
      <point x="906.2526315789473" y="529.7473684210527" type="line"/>
      <point x="921.8947368421051" y="368.4842105263158"/>
      <point x="943.0315789473683" y="162.7578947368421"/>
      <point x="958.842105263158" y="0.0" type="curve"/>
      <point x="1092.2315789473685" y="0.0" type="line"/>
      <point x="1155.557894736842" y="120.33684210526314"/>
      <point x="1220.7157894736843" y="246.50526315789472"/>
      <point x="1289.8736842105263" y="378.5052631578947" type="curve"/>
      <point x="1383.536842105263" y="552.5052631578947" type="line"/>
      <point x="1464.0421052631582" y="697.1789473684211"/>
      <point x="1544.2105263157894" y="841.1789473684211"/>
      <point x="1628.378947368421" y="989.3473684210526" type="curve"/>
      <point x="1507.3052631578948" y="989.3473684210526" type="line"/>
      <point x="1424.5263157894735" y="829.0736842105264"/>
      <point x="1320.9263157894738" y="627.978947368421"/>
      <point x="1230.4842105263158" y="452.0421052631579" type="curve"/>
      <point x="1046.9263157894738" y="104.16842105263157" type="line"/>
      <point x="1035.242105263158" y="104.16842105263157" type="line"/>
      <point x="997.957894736842" y="449.87368421052633" type="line"/>
      <point x="980.8210526315788" y="625.9789473684211"/>
      <point x="962.0210526315789" y="817.2421052631579"/>
      <point x="944.8842105263158" y="989.3473684210526" type="curve"/>
      <point x="835.7263157894737" y="989.3473684210526" type="line"/>
      <point x="741.621052631579" y="805.9157894736842"/>
      <point x="649.5157894736842" y="626.3157894736842"/>
      <point x="557.0736842105263" y="446.2105263157895" type="curve"/>
      <point x="379.0105263157895" y="104.16842105263157" type="line"/>
      <point x="367.3263157894737" y="104.16842105263157" type="line"/>
      <point x="328.2105263157895" y="438.88421052631577" type="line"/>
      <point x="311.0736842105263" y="614.9894736842106"/>
      <point x="290.4421052631578" y="814.2526315789473"/>
      <point x="271.4736842105263" y="994.021052631579" type="curve"/>
      <point x="162.7578947368421" y="989.3473684210526" type="line"/>
      <point x="184.7578947368421" y="839.3473684210527"/>
      <point x="204.92631578947368" y="698.8421052631578"/>
      <point x="225.09473684210525" y="552.5052631578947" type="curve"/>
      <point x="248.25263157894736" y="374.6736842105263" type="line"/>
      <point x="263.24210526315795" y="244.84210526315792"/>
      <point x="276.40000000000003" y="124.16842105263157"/>
    </contour>
  </outline>
</glyph>
<glyph name="x" format="2">
  <advance width="1037.3473684210526"/>
  <unicode hex="0078"/>
  <outline>
    <contour>
      <point x="-40.06315789473684" y="0.0" type="curve"/>
      <point x="95.85263157894735" y="0.0" type="line"/>
      <point x="181.62105263157898" y="95.13684210526317"/>
      <point x="244.90526315789472" y="164.77894736842106"/>
      <point x="328.84210526315786" y="258.42105263157896" type="curve"/>
      <point x="497.7263157894737" y="440.5263157894737" type="line"/>
      <point x="509.0736842105263" y="440.5263157894737" type="line"/>
      <point x="612.3157894736842" y="253.9157894736842" type="line"/>
      <point x="661.5999999999999" y="160.77894736842106"/>
      <point x="696.2315789473686" y="92.80000000000001"/>
      <point x="745.5157894736843" y="0.0" type="curve"/>
      <point x="866.0842105263158" y="0.0" type="line"/>
      <point x="793.2631578947369" y="123.17894736842106"/>
      <point x="746.1052631578948" y="203.85263157894735"/>
      <point x="689.2842105263159" y="300.021052631579" type="curve"/>
      <point x="562.6526315789474" y="524.0421052631579" type="line"/>
      <point x="559.4947368421052" y="491.1578947368421" type="line"/>
      <point x="759.1368421052632" y="702.0" type="line"/>
      <point x="854.1263157894738" y="800.1684210526316"/>
      <point x="912.1263157894737" y="860.8421052631579"/>
      <point x="1036.947368421053" y="989.3473684210526" type="curve"/>
      <point x="900.8631578947369" y="989.3473684210526" type="line"/>
      <point x="814.7578947368421" y="894.2105263157895"/>
      <point x="752.9684210526315" y="824.2315789473685"/>
      <point x="674.1894736842105" y="736.0842105263158" type="curve"/>
      <point x="515.9578947368421" y="564.9684210526316" type="line"/>
      <point x="506.10526315789474" y="564.9684210526316" type="line"/>
      <point x="417.17894736842106" y="736.2526315789473" type="line"/>
      <point x="376.8842105263158" y="818.9052631578946"/>
      <point x="338.42105263157896" y="898.715789473684"/>
      <point x="290.8" y="994.021052631579" type="curve"/>
      <point x="176.7578947368421" y="989.3473684210526" type="line"/>
      <point x="243.2421052631579" y="868.8421052631578"/>
      <point x="282.56842105263155" y="796.3368421052631"/>
      <point x="339.05263157894734" y="694.5052631578948" type="curve"/>
      <point x="449.5157894736842" y="483.8315789473684" type="line"/>
      <point x="454.69473684210527" y="520.3789473684211" type="line"/>
      <point x="248.56842105263158" y="300.5263157894737" type="line"/>
      <point x="151.7473684210526" y="199.68421052631578"/>
      <point x="86.25263157894737" y="130.84210526315792"/>
    </contour>
  </outline>
</glyph>
<glyph name="y" format="2">
  <advance width="1013.978947368421"/>
  <unicode hex="0079"/>
  <anchor x="624.778947368421" y="0.0" name="bottom"/>
  <anchor x="612.9052631578948" y="989.3473684210526" name="top"/>
  <outline>
    <contour>
      <point x="101.85263157894735" y="-388.6736842105263" type="curve"/>
      <point x="223.09473684210528" y="-384.0" type="line"/>
      <point x="308.0842105263158" y="-241.83157894736843"/>
      <point x="405.4105263157895" y="-77.32631578947368"/>
      <point x="557.5578947368422" y="176.67368421052632" type="curve"/>
      <point x="727.0526315789474" y="455.0105263157895" type="line"/>
      <point x="880.5473684210527" y="705.0105263157894"/>
      <point x="954.7157894736843" y="825.5157894736842"/>
      <point x="1056.2105263157896" y="989.3473684210526" type="curve"/>
      <point x="935.8105263157894" y="989.3473684210526" type="line"/>
      <point x="832.5473684210527" y="809.578947368421"/>
      <point x="731.2842105263159" y="635.8105263157894"/>
      <point x="624.3578947368421" y="450.5473684210526" type="curve"/>
      <point x="416.65263157894736" y="102.84210526315789" type="line"/>
      <point x="402.9684210526316" y="102.84210526315789" type="line"/>
      <point x="350.69473684210527" y="448.88421052631577" type="line"/>
      <point x="324.4" y="634.4842105263158"/>
      <point x="298.1052631578948" y="808.421052631579"/>
      <point x="271.81052631578945" y="994.021052631579" type="curve"/>
      <point x="165.09473684210525" y="989.3473684210526" type="line"/>
      <point x="191.09473684210525" y="847.1789473684211"/>
      <point x="218.9263157894737" y="695.1789473684211"/>
      <point x="244.92631578947368" y="553.0105263157894" type="curve"/>
      <point x="274.2526315789474" y="373.0105263157895" type="line"/>
      <point x="295.0736842105264" y="236.8421052631579"/>
      <point x="316.0631578947368" y="98.84210526315789"/>
      <point x="336.88421052631577" y="-37.32631578947368" type="curve"/>
      <point x="343.5789473684211" y="-2.2736842105263158" type="line"/>
      <point x="263.89473684210526" y="-129.9578947368421"/>
      <point x="181.53684210526316" y="-260.98947368421057"/>
    </contour>
  </outline>
</glyph>
<glyph name="z" format="2">
  <advance width="973.0947368421052"/>
  <unicode hex="007A"/>
  <anchor x="378.5473684210526" y="0.0" name="bottom"/>
  <anchor x="482.7157894736842" y="494.6736842105263" name="center"/>
  <anchor x="586.8842105263159" y="989.3473684210526" name="top"/>
  <outline>
    <contour>
      <point x="-19.536842105263155" y="0.0" type="line"/>
      <point x="791.6210526315789" y="0.0" type="line"/>
      <point x="811.0105263157894" y="87.93684210526315" type="line"/>
      <point x="664.3789473684211" y="84.58947368421052"/>
      <point x="470.2736842105263" y="81.07368421052631"/>
      <point x="353.6421052631579" y="78.23157894736842" type="curve"/>
      <point x="95.22105263157894" y="78.23157894736842" type="line"/>
      <point x="108.08421052631579" y="54.33684210526316" type="line"/>
      <point x="547.7263157894737" y="507.4736842105263" type="line"/>
      <point x="681.1789473684211" y="643.7473684210528"/>
      <point x="849.1157894736841" y="814.3368421052633"/>
      <point x="952.2526315789473" y="918.6315789473684" type="curve"/>
      <point x="966.6315789473684" y="989.3473684210526" type="line"/>
      <point x="189.97894736842105" y="989.3473684210526" type="line"/>
      <point x="170.42105263157896" y="900.5684210526315" type="line"/>
      <point x="326.5473684210526" y="904.0842105263158"/>
      <point x="525.1578947368422" y="907.9368421052632"/>
      <point x="640.2947368421053" y="910.9473684210526" type="curve"/>
      <point x="873.8947368421053" y="910.9473684210526" type="line"/>
      <point x="859.5157894736842" y="953.1789473684211" type="line"/>
      <point x="420.0210526315789" y="498.8421052631579" type="line"/>
      <point x="294.23157894736846" y="369.8947368421053"/>
      <point x="147.11578947368417" y="219.62105263157892"/>
      <point x="-5.831578947368418" y="63.68421052631579" type="curve"/>
    </contour>
  </outline>
</glyph>
<glyph name="braceleft" format="2">
  <advance width="763.8736842105263"/>
  <unicode hex="007B"/>
  <outline>
    <contour>
      <point x="440.1052631578947" y="-227.03157894736842" type="curve" smooth="yes"/>
      <point x="589.6631578947369" y="-227.03157894736842" type="line"/>
      <point x="606.8842105263159" y="-140.2736842105263" type="line"/>
      <point x="540.7157894736841" y="-142.4421052631579"/>
      <point x="486.5473684210526" y="-142.77894736842106"/>
      <point x="452.5473684210526" y="-142.94736842105263" type="curve"/>
      <point x="311.62105263157895" y="-142.27368421052634"/>
      <point x="260.821052631579" y="-59.136842105263156"/>
      <point x="283.81052631578945" y="60.652631578947364" type="curve" smooth="yes"/>
      <point x="369.43157894736845" y="491.6421052631579" type="line" smooth="yes"/>
      <point x="371.76842105263154" y="505.4947368421052"/>
      <point x="305.57894736842104" y="596.3157894736842"/>
      <point x="258.2105263157895" y="636.1684210526316" type="curve"/>
      <point x="260.5473684210526" y="649.6842105263158" type="line"/>
      <point x="322.25263157894733" y="687.8736842105263"/>
      <point x="434.1052631578947" y="794.3578947368421"/>
      <point x="436.7789473684211" y="808.7157894736843" type="curve" smooth="yes"/>
      <point x="537.578947368421" y="1267.178947368421" type="line" smooth="yes"/>
      <point x="564.9052631578946" y="1392.463157894737"/>
      <point x="637.3684210526316" y="1439.1157894736841"/>
      <point x="769.3052631578947" y="1439.7894736842106" type="curve"/>
      <point x="808.8000000000001" y="1439.621052631579"/>
      <point x="886.4421052631578" y="1437.4526315789474"/>
      <point x="937.1157894736842" y="1437.1157894736843" type="curve"/>
      <point x="956.3368421052631" y="1523.8736842105263" type="line"/>
      <point x="769.4526315789473" y="1523.8736842105263" type="line" smooth="yes"/>
      <point x="591.2" y="1523.8736842105263"/>
      <point x="476.46315789473687" y="1451.3473684210528"/>
      <point x="443.7894736842105" y="1284.442105263158" type="curve"/>
      <point x="439.95789473684215" y="1265.1157894736841"/>
      <point x="370.82105263157894" y="916.8842105263159"/>
      <point x="366.98947368421057" y="897.7263157894737" type="curve"/>
      <point x="339.6631578947369" y="761.0947368421054"/>
      <point x="202.90526315789472" y="686.9473684210526"/>
      <point x="139.22105263157897" y="686.9473684210526" type="curve" smooth="yes"/>
      <point x="61.873684210526314" y="686.9473684210526" type="line"/>
      <point x="45.49473684210526" y="608.0631578947368" type="line"/>
      <point x="122.84210526315789" y="608.0631578947368" type="line" smooth="yes"/>
      <point x="186.52631578947367" y="608.0631578947368"/>
      <point x="293.7894736842105" y="552.2315789473685"/>
      <point x="260.9684210526316" y="397.2842105263158" type="curve"/>
      <point x="257.1368421052632" y="378.1263157894737"/>
      <point x="192.6526315789474" y="83.41052631578948"/>
      <point x="188.82105263157897" y="64.25263157894737" type="curve"/>
      <point x="155.47368421052633" y="-96.98947368421052"/>
      <point x="245.3684210526316" y="-227.03157894736842"/>
    </contour>
  </outline>
</glyph>
<glyph name="cent" format="2">
  <advance width="999.2842105263157"/>
  <unicode hex="00A2"/>
  <anchor x="473.13684210526316" y="0.0" name="bottom"/>
  <anchor x="664.9894736842106" y="989.3473684210526" name="top"/>
  <outline>
    <contour>
      <point x="348.40000000000003" y="-274.0" type="curve"/>
      <point x="438.1473684210526" y="-274.0" type="line"/>
      <point x="494.63157894736844" y="-1.8736842105263172"/>
      <point x="554.6105263157895" y="296.2105263157895"/>
      <point x="572.4631578947368" y="384.1684210526316" type="curve"/>
      <point x="616.4631578947368" y="588.6736842105263" type="line"/>
      <point x="635.6631578947369" y="676.6315789473684"/>
      <point x="702.3157894736843" y="972.5473684210526"/>
      <point x="762.1473684210526" y="1246.842105263158" type="curve"/>
      <point x="672.4" y="1246.842105263158" type="line"/>
      <point x="615.7473684210527" y="972.2105263157895"/>
      <point x="555.9368421052632" y="676.4631578947368"/>
      <point x="538.0842105263158" y="588.6736842105263" type="curve"/>
      <point x="494.0842105263158" y="384.1684210526316" type="line"/>
      <point x="475.0526315789474" y="296.88421052631577"/>
      <point x="408.2315789473684" y="-1.5368421052631578"/>
    </contour>
    <contour>
      <point x="556.1894736842105" y="-18.673684210526318" type="curve" smooth="yes"/>
      <point x="626.6736842105263" y="-18.673684210526318"/>
      <point x="751.6631578947369" y="21.642105263157895"/>
      <point x="805.6631578947369" y="43.13684210526316" type="curve"/>
      <point x="810.8842105263159" y="146.2315789473684" type="line"/>
      <point x="738.0631578947368" y="109.57894736842105"/>
      <point x="615.2421052631579" y="71.91578947368421"/>
      <point x="563.9368421052632" y="70.08421052631579" type="curve" smooth="yes"/>
      <point x="302.56842105263155" y="74.08421052631579"/>
      <point x="158.1263157894737" y="246.31578947368422"/>
      <point x="219.26315789473685" y="533.8315789473684" type="curve" smooth="yes"/>
      <point x="272.4" y="781.1789473684211"/>
      <point x="443.7894736842105" y="910.5894736842105"/>
      <point x="655.8315789473684" y="920.5894736842105" type="curve"/>
      <point x="690.4842105263157" y="920.5894736842105"/>
      <point x="823.3052631578947" y="879.0947368421052"/>
      <point x="949.4526315789474" y="826.1052631578948" type="curve"/>
      <point x="978.5263157894736" y="920.042105263158" type="line"/>
      <point x="894.6526315789474" y="950.7157894736843"/>
      <point x="722.6526315789473" y="1010.1894736842105"/>
      <point x="657.4947368421053" y="1010.1894736842105" type="curve" smooth="yes"/>
      <point x="390.42105263157896" y="1010.1894736842105"/>
      <point x="181.26315789473685" y="820.6947368421053"/>
      <point x="124.92631578947369" y="547.8526315789475" type="curve" smooth="yes"/>
      <point x="57.915789473684214" y="220.14736842105265"/>
      <point x="228.79999999999998" y="-18.673684210526318"/>
    </contour>
  </outline>
</glyph>
<glyph name="sterling" format="2">
  <advance width="1165.4105263157894"/>
  <unicode hex="00A3"/>
  <outline>
    <contour>
      <point x="39.09473684210527" y="0.0" type="line"/>
      <point x="992.0842105263157" y="0.0" type="line"/>
      <point x="1012.8210526315789" y="97.66315789473684" type="line"/>
      <point x="853.8315789473685" y="94.82105263157895"/>
      <point x="596.5473684210527" y="91.6421052631579"/>
      <point x="416.88421052631577" y="88.63157894736842" type="curve"/>
      <point x="124.42105263157896" y="88.63157894736842" type="line"/>
      <point x="145.34736842105264" y="48.77894736842105" type="line"/>
      <point x="328.4842105263158" y="296.8842105263158"/>
      <point x="371.8105263157895" y="369.3684210526316"/>
      <point x="387.47368421052636" y="445.6842105263158" type="curve" smooth="yes"/>
      <point x="493.57894736842104" y="939.578947368421" type="line" smooth="yes"/>
      <point x="546.8842105263158" y="1187.4526315789474"/>
      <point x="661.0105263157894" y="1300.0631578947368"/>
      <point x="865.2421052631579" y="1302.5684210526315" type="curve"/>
      <point x="901.7263157894736" y="1302.5684210526315"/>
      <point x="1038.5473684210526" y="1261.0736842105264"/>
      <point x="1168.6947368421052" y="1207.9157894736843" type="curve"/>
      <point x="1201.2842105263157" y="1304.042105263158" type="line"/>
      <point x="1111.3894736842105" y="1334.3789473684212"/>
      <point x="930.5263157894738" y="1393.6842105263158"/>
      <point x="862.5263157894736" y="1393.6842105263158" type="curve" smooth="yes"/>
      <point x="631.9157894736843" y="1393.6842105263158"/>
      <point x="459.2210526315789" y="1255.4736842105262"/>
      <point x="396.88421052631577" y="957.2842105263157" type="curve" smooth="yes"/>
      <point x="361.89473684210526" y="799.1578947368421"/>
      <point x="321.9157894736842" y="594.5263157894738"/>
      <point x="288.2526315789474" y="434.0421052631579" type="curve"/>
      <point x="276.42105263157896" y="377.7263157894737"/>
      <point x="231.4315789473684" y="300.2526315789474"/>
      <point x="54.29473684210527" y="69.66315789473684" type="curve"/>
    </contour>
    <contour>
      <point x="174.75789473684213" y="718.3368421052631" type="line"/>
      <point x="293.7894736842106" y="720.6736842105262"/>
      <point x="431.13684210526316" y="723.0105263157894"/>
      <point x="505.0105263157895" y="723.3473684210526" type="curve"/>
      <point x="567.3684210526316" y="723.3473684210526" type="line"/>
      <point x="640.9052631578946" y="723.0105263157894"/>
      <point x="774.5894736842105" y="720.6736842105262"/>
      <point x="893.2842105263157" y="718.3368421052631" type="curve"/>
      <point x="912.0" y="804.9052631578948" type="line"/>
      <point x="793.1368421052632" y="802.5684210526317"/>
      <point x="657.4526315789474" y="800.2315789473685"/>
      <point x="583.578947368421" y="799.8947368421053" type="curve"/>
      <point x="521.2210526315789" y="799.8947368421053" type="line"/>
      <point x="447.6842105263158" y="800.2315789473685"/>
      <point x="312.3368421052632" y="802.5684210526317"/>
      <point x="193.4736842105263" y="804.9052631578948" type="curve"/>
    </contour>
  </outline>
</glyph>
<glyph name="currency" format="2">
  <advance width="1214.1473684210525"/>
  <unicode hex="00A4"/>
  <outline>
    <contour>
      <point x="608.2315789473685" y="250.73684210526318" type="curve" smooth="yes"/>
      <point x="823.1368421052631" y="250.73684210526318"/>
      <point x="969.1789473684211" y="361.74736842105267"/>
      <point x="1014.6947368421053" y="593.1368421052631" type="curve" smooth="yes"/>
      <point x="1062.0421052631577" y="830.3578947368421"/>
      <point x="900.0" y="1030.7578947368422"/>
      <point x="665.0736842105263" y="1030.7578947368422" type="curve" smooth="yes"/>
      <point x="462.98947368421057" y="1030.7578947368422"/>
      <point x="300.6315789473684" y="921.578947368421"/>
      <point x="255.1157894736842" y="690.1894736842105" type="curve" smooth="yes"/>
      <point x="207.76842105263157" y="451.13684210526316"/>
      <point x="365.9789473684211" y="250.73684210526318"/>
    </contour>
    <contour>
      <point x="165.6421052631579" y="133.6842105263158" type="line"/>
      <point x="251.49473684210523" y="215.87368421052633"/>
      <point x="348.33684210526314" y="309.2210526315789"/>
      <point x="401.0315789473684" y="360.08421052631576" type="curve"/>
      <point x="341.8315789473684" y="424.2947368421053" type="line"/>
      <point x="286.9684210526316" y="375.9368421052631"/>
      <point x="185.62105263157895" y="285.2631578947368"/>
      <point x="99.26315789473684" y="205.57894736842107" type="curve"/>
    </contour>
    <contour>
      <point x="614.2526315789474" y="339.3263157894737" type="curve"/>
      <point x="429.51578947368415" y="344.0"/>
      <point x="307.7473684210526" y="494.2526315789474"/>
      <point x="343.89473684210526" y="678.4842105263158" type="curve" smooth="yes"/>
      <point x="377.8736842105263" y="855.7052631578948"/>
      <point x="504.79999999999995" y="938.1684210526316"/>
      <point x="659.7263157894737" y="942.6736842105263" type="curve"/>
      <point x="839.3052631578947" y="937.8315789473684"/>
      <point x="962.4" y="787.2421052631579"/>
      <point x="926.421052631579" y="605.5157894736842" type="curve" smooth="yes"/>
      <point x="890.4421052631578" y="425.2842105263158"/>
      <point x="780.0" y="343.3263157894737"/>
    </contour>
    <contour>
      <point x="394.65263157894736" y="840.8842105263159" type="curve"/>
      <point x="456.52631578947364" y="899.2421052631579" type="line"/>
      <point x="407.99999999999994" y="954.1052631578948"/>
      <point x="317.32631578947365" y="1055.4526315789474"/>
      <point x="237.6421052631579" y="1141.978947368421" type="curve"/>
      <point x="168.2526315789474" y="1076.1052631578948" type="line"/>
      <point x="248.6105263157895" y="992.0842105263158"/>
      <point x="342.12631578947367" y="893.4105263157895"/>
    </contour>
    <contour>
      <point x="1040.1684210526316" y="141.68421052631578" type="curve"/>
      <point x="1109.5578947368422" y="207.55789473684212" type="line"/>
      <point x="1029.2" y="291.57894736842104"/>
      <point x="935.6842105263158" y="390.25263157894733"/>
      <point x="883.1578947368422" y="442.7789473684211" type="curve"/>
      <point x="821.2842105263159" y="384.4210526315789" type="line"/>
      <point x="869.8105263157895" y="329.5578947368421"/>
      <point x="960.4842105263158" y="228.2105263157895"/>
    </contour>
    <contour>
      <point x="935.9789473684211" y="859.3684210526316" type="line"/>
      <point x="990.8421052631578" y="907.7263157894737"/>
      <point x="1092.1894736842107" y="998.4"/>
      <point x="1178.5473684210526" y="1078.084210526316" type="curve"/>
      <point x="1112.1684210526316" y="1149.9789473684211" type="line"/>
      <point x="1026.3157894736842" y="1067.7894736842109"/>
      <point x="929.4736842105262" y="974.4421052631579"/>
      <point x="876.778947368421" y="923.578947368421" type="curve"/>
    </contour>
  </outline>
</glyph>
<glyph name="yen" format="2">
  <advance width="1219.4736842105262"/>
  <unicode hex="00A5"/>
  <outline>
    <contour>
      <point x="580.0631578947368" y="564.5473684210526" type="line"/>
      <point x="667.7052631578947" y="564.5473684210526" type="line"/>
      <point x="1073.6842105263158" y="1050.1263157894737" type="line"/>
      <point x="1170.021052631579" y="1161.8105263157895"/>
      <point x="1262.3578947368421" y="1271.157894736842"/>
      <point x="1346.8631578947368" y="1369.0105263157895" type="curve"/>
      <point x="1210.5684210526315" y="1369.0105263157895" type="line"/>
      <point x="1053.347368421053" y="1175.073684210526"/>
      <point x="982.0631578947368" y="1085.6"/>
      <point x="856.6526315789473" y="930.4842105263158" type="curve"/>
      <point x="645.4526315789474" y="674.5684210526316" type="line"/>
      <point x="632.1052631578948" y="674.5684210526316" type="line"/>
      <point x="532.3578947368421" y="922.1473684210526" type="line"/>
      <point x="472.42105263157896" y="1078.7578947368422"/>
      <point x="436.12631578947367" y="1171.4105263157894"/>
      <point x="359.8736842105263" y="1369.0105263157895" type="curve"/>
      <point x="240.61052631578949" y="1369.0105263157895" type="line"/>
      <point x="312.442105263158" y="1206.3157894736842"/>
      <point x="338.61052631578946" y="1144.9684210526316"/>
      <point x="380.4421052631579" y="1049.621052631579" type="curve"/>
    </contour>
    <contour>
      <point x="449.36842105263156" y="0.0" type="curve"/>
      <point x="560.778947368421" y="0.0" type="line"/>
      <point x="591.6" y="156.65263157894736"/>
      <point x="616.757894736842" y="285.8105263157895"/>
      <point x="649.7473684210526" y="454.14736842105265" type="curve"/>
      <point x="689.6210526315789" y="642.5052631578948" type="line"/>
      <point x="593.4315789473684" y="642.5052631578948" type="line"/>
      <point x="553.5578947368421" y="454.3157894736842" type="line"/>
      <point x="514.5473684210526" y="285.9789473684211"/>
      <point x="485.87368421052633" y="158.48421052631576"/>
    </contour>
    <contour>
      <point x="129.43157894736842" y="300.7157894736842" type="line"/>
      <point x="248.29473684210527" y="303.0526315789474"/>
      <point x="383.978947368421" y="305.38947368421054"/>
      <point x="457.6842105263158" y="305.7263157894737" type="curve"/>
      <point x="683.4105263157894" y="305.7263157894737" type="line"/>
      <point x="757.1157894736842" y="305.38947368421054"/>
      <point x="892.4631578947368" y="303.0526315789474"/>
      <point x="1011.3263157894736" y="300.7157894736842" type="curve"/>
      <point x="1027.3684210526317" y="383.0736842105263" type="line"/>
      <point x="908.3368421052631" y="381.0736842105263"/>
      <point x="772.8210526315789" y="379.0736842105263"/>
      <point x="699.1157894736841" y="378.90526315789475" type="curve"/>
      <point x="473.38947368421054" y="378.90526315789475" type="line"/>
      <point x="399.6842105263158" y="379.0736842105263"/>
      <point x="264.1684210526316" y="381.0736842105263"/>
      <point x="145.4736842105263" y="383.0736842105263" type="curve"/>
    </contour>
    <contour>
      <point x="185.45263157894735" y="569.8105263157894" type="line"/>
      <point x="306.14736842105265" y="571.8105263157894"/>
      <point x="441.66315789473686" y="573.8105263157894"/>
      <point x="515.3684210526316" y="573.978947368421" type="curve"/>
      <point x="741.0947368421052" y="573.978947368421" type="line"/>
      <point x="814.8000000000001" y="573.8105263157894"/>
      <point x="950.3157894736843" y="571.8105263157894"/>
      <point x="1067.3473684210528" y="569.8105263157894" type="curve"/>
      <point x="1085.2210526315791" y="652.1684210526315" type="line"/>
      <point x="966.1894736842106" y="649.8315789473685"/>
      <point x="830.5052631578948" y="647.4947368421052"/>
      <point x="756.8" y="647.1578947368421" type="curve"/>
      <point x="531.0736842105263" y="647.1578947368421" type="line"/>
      <point x="457.36842105263156" y="647.4947368421052"/>
      <point x="322.0210526315789" y="649.8315789473685"/>
      <point x="203.32631578947365" y="652.1684210526315" type="curve"/>
    </contour>
  </outline>
</glyph>
<glyph name="brokenbar" format="2">
  <advance width="508.7578947368421"/>
  <unicode hex="00A6"/>
  <outline>
    <contour>
      <point x="262.23157894736846" y="730.3157894736842" type="line"/>
      <point x="349.17894736842106" y="730.3157894736842" type="line"/>
      <point x="387.34736842105264" y="912.3157894736842" type="line"/>
      <point x="403.6842105263158" y="988.6526315789473"/>
      <point x="472.3578947368421" y="1292.6526315789472"/>
      <point x="533.0315789473684" y="1570.3157894736842" type="curve"/>
      <point x="434.71578947368425" y="1570.3157894736842" type="line"/>
      <point x="377.5578947368421" y="1292.6526315789472"/>
      <point x="316.23157894736846" y="988.4842105263158"/>
      <point x="300.40000000000003" y="912.3157894736842" type="curve"/>
    </contour>
    <contour>
      <point x="34.715789473684225" y="-309.6842105263158" type="curve"/>
      <point x="133.0315789473684" y="-309.6842105263158" type="line"/>
      <point x="190.1894736842105" y="-34.021052631578954"/>
      <point x="251.51578947368418" y="272.14736842105265"/>
      <point x="267.34736842105264" y="348.3157894736842" type="curve"/>
      <point x="305.34736842105264" y="530.3157894736842" type="line"/>
      <point x="218.4" y="530.3157894736842" type="line"/>
      <point x="180.4" y="348.3157894736842" type="line"/>
      <point x="164.23157894736843" y="272.4842105263158"/>
      <point x="95.38947368421056" y="-33.852631578947374"/>
    </contour>
  </outline>
</glyph>
<glyph name="section" format="2">
  <advance width="1056.183908045977"/>
  <unicode hex="00A7"/>
  <outline>
    <contour>
      <point x="367.8850574712644" y="-246.20689655172413" type="curve" smooth="yes"/>
      <point x="612.8735632183908" y="-246.20689655172413"/>
      <point x="749.080459770115" y="-147.26436781609195"/>
      <point x="785.448275862069" y="22.574712643678154" type="curve" smooth="yes"/>
      <point x="829.448275862069" y="227.67816091954023"/>
      <point x="684.5977011494252" y="330.4137931034483"/>
      <point x="478.55172413793105" y="423.14942528735634" type="curve" smooth="yes"/>
      <point x="253.01149425287355" y="524.367816091954"/>
      <point x="220.11494252873564" y="591.4252873563219"/>
      <point x="246.64367816091954" y="715.3333333333334" type="curve" smooth="yes"/>
      <point x="276.8045977011494" y="859.0344827586207"/>
      <point x="420.71264367816093" y="891.609195402299"/>
      <point x="506.87356321839087" y="899.6091954022988" type="curve"/>
      <point x="434.4597701149425" y="976.1609195402299" type="line"/>
      <point x="299.51724137931035" y="951.632183908046"/>
      <point x="180.11494252873564" y="863.7931034482758"/>
      <point x="150.64367816091956" y="725.5402298850576" type="curve" smooth="yes"/>
      <point x="111.37931034482759" y="540.8505747126436"/>
      <point x="212.02298850574712" y="452.0689655172414"/>
      <point x="413.17241379310343" y="356.5977011494253" type="curve" smooth="yes"/>
      <point x="642.9195402298851" y="248.27586206896552"/>
      <point x="720.3448275862069" y="183.42528735632183"/>
      <point x="688.183908045977" y="30.98850574712644" type="curve" smooth="yes"/>
      <point x="656.0229885057471" y="-122.71264367816092"/>
      <point x="514.4827586206898" y="-153.4022988505747"/>
      <point x="369.10344827586204" y="-157.4022988505747" type="curve"/>
      <point x="285.14942528735634" y="-157.4022988505747"/>
      <point x="151.1034482758621" y="-98.66666666666667"/>
      <point x="0.3678160919540172" y="-28.298850574712645" type="curve"/>
      <point x="-29.51724137931034" y="-122.04597701149426" type="line"/>
      <point x="114.52873563218391" y="-183.31034482758622"/>
      <point x="279.67816091954023" y="-246.20689655172413"/>
    </contour>
    <contour>
      <point x="705.3563218390805" y="234.0" type="line"/>
      <point x="859.2413793103449" y="264.8965517241379"/>
      <point x="953.4942528735631" y="354.36781609195407"/>
      <point x="982.2298850574712" y="489.8850574712643" type="curve" smooth="yes"/>
      <point x="1025.126436781609" y="689.6781609195402"/>
      <point x="881.3793103448276" y="790.7816091954023"/>
      <point x="675.7011494252873" y="883.5172413793103" type="curve" smooth="yes"/>
      <point x="450.8965517241379" y="984.735632183908"/>
      <point x="416.89655172413796" y="1056.3218390804598"/>
      <point x="443.42528735632186" y="1177.7011494252872" type="curve" smooth="yes"/>
      <point x="477.21839080459773" y="1334.2988505747126"/>
      <point x="638.0229885057472" y="1357.5632183908046"/>
      <point x="720.344827586207" y="1361.9310344827586" type="curve"/>
      <point x="761.2413793103449" y="1361.9310344827586"/>
      <point x="915.6091954022988" y="1312.8275862068963"/>
      <point x="1056.873563218391" y="1259.7241379310346" type="curve"/>
      <point x="1083.8620689655172" y="1354.3678160919542" type="line"/>
      <point x="985.448275862069" y="1387.103448275862"/>
      <point x="790.1379310344828" y="1450.7356321839081"/>
      <point x="715.1954022988506" y="1450.7356321839081" type="curve" smooth="yes"/>
      <point x="535.264367816092" y="1450.7356321839081"/>
      <point x="382.5287356321839" y="1356.528735632184"/>
      <point x="347.42528735632186" y="1190.1149425287356" type="curve" smooth="yes"/>
      <point x="307.42528735632186" y="1003.3793103448276"/>
      <point x="412.48275862068965" y="910.9655172413793"/>
      <point x="610.6896551724138" y="817.3333333333334" type="curve" smooth="yes"/>
      <point x="840.4367816091954" y="709.3793103448276"/>
      <point x="918.7586206896552" y="646.6896551724137"/>
      <point x="886.9655172413793" y="494.25287356321843" type="curve" smooth="yes"/>
      <point x="861.1724137931035" y="369.81609195402297"/>
      <point x="753.3793103448276" y="321.60919540229884"/>
      <point x="636.528735632184" y="308.3448275862069" type="curve"/>
    </contour>
  </outline>
</glyph>
<glyph name="ordfeminine" format="2">
  <advance width="780.4137931034483"/>
  <unicode hex="00AA"/>
  <outline>
    <contour>
      <point x="379.7471264367816" y="668.528735632184" type="curve" smooth="yes"/>
      <point x="450.4367816091954" y="668.528735632184"/>
      <point x="566.2298850574713" y="740.6896551724137"/>
      <point x="646.9655172413793" y="810.3218390804598" type="curve"/>
      <point x="657.7011494252874" y="810.3218390804598" type="line"/>
      <point x="661.7011494252874" y="682.8965517241379" type="line"/>
      <point x="741.9310344827586" y="682.8965517241379" type="line"/>
      <point x="740.2988505747127" y="755.471264367816"/>
      <point x="738.6666666666667" y="811.3103448275863"/>
      <point x="737.4022988505747" y="878.9885057471264" type="curve"/>
      <point x="763.5632183908046" y="1005.7931034482759" type="line" smooth="yes"/>
      <point x="777.1954022988506" y="1071.5862068965519"/>
      <point x="793.5632183908046" y="1131.5862068965519"/>
      <point x="799.9310344827587" y="1162.8965517241381" type="curve" smooth="yes"/>
      <point x="836.2988505747127" y="1334.735632183908"/>
      <point x="757.8850574712644" y="1450.7356321839081"/>
      <point x="573.8390804597701" y="1450.7356321839081" type="curve" smooth="yes"/>
      <point x="520.5747126436783" y="1450.7356321839081"/>
      <point x="383.7931034482758" y="1417.103448275862"/>
      <point x="314.32183908045977" y="1399.471264367816" type="curve"/>
      <point x="301.3793103448276" y="1310.344827586207" type="line"/>
      <point x="419.2183908045977" y="1345.448275862069"/>
      <point x="525.9540229885057" y="1373.816091954023"/>
      <point x="558.1149425287356" y="1373.816091954023" type="curve" smooth="yes"/>
      <point x="688.0689655172414" y="1373.816091954023"/>
      <point x="757.1264367816092" y="1312.3908045977012"/>
      <point x="720.8045977011494" y="1167.103448275862" type="curve"/>
      <point x="453.95402298850576" y="1115.310344827586" type="line" smooth="yes"/>
      <point x="327.3793103448277" y="1091.310344827586"/>
      <point x="206.32183908045977" y="1049.9999999999998"/>
      <point x="174.32183908045977" y="907.264367816092" type="curve" smooth="yes"/>
      <point x="142.32183908045977" y="768.8965517241378"/>
      <point x="231.58620689655174" y="668.528735632184"/>
    </contour>
    <contour>
      <point x="403.7241379310345" y="739.9770114942529" type="curve" smooth="yes"/>
      <point x="300.71264367816093" y="739.9770114942529"/>
      <point x="230.39080459770116" y="793.4022988505747"/>
      <point x="254.55172413793105" y="910.2068965517242" type="curve" smooth="yes"/>
      <point x="275.44827586206895" y="1008.3218390804598"/>
      <point x="367.9310344827586" y="1029.5862068965516"/>
      <point x="469.31034482758616" y="1050.4827586206895" type="curve" smooth="yes"/>
      <point x="637.5402298850574" y="1084.6436781609195"/>
      <point x="670.4367816091954" y="1096.2758620689654"/>
      <point x="708.5977011494253" y="1112.2758620689656" type="curve"/>
      <point x="662.8045977011494" y="901.6781609195403" type="line"/>
      <point x="563.7931034482759" y="791.7701149425287"/>
      <point x="456.04597701149424" y="739.9770114942529"/>
    </contour>
  </outline>
</glyph>
<glyph name="logicalnot" format="2">
  <advance width="1125.0526315789473"/>
  <unicode hex="00AC"/>
  <outline>
    <contour>
      <point x="818.2947368421053" y="126.46315789473684" type="curve"/>
      <point x="916.2736842105262" y="126.46315789473684" type="line"/>
      <point x="940.4421052631578" y="248.9894736842105"/>
      <point x="966.4421052631577" y="380.6736842105263"/>
      <point x="980.9473684210526" y="454.2105263157895" type="curve"/>
      <point x="1021.4736842105262" y="640.8421052631578" type="line"/>
      <point x="902.6105263157895" y="638.5052631578948"/>
      <point x="765.0947368421052" y="636.1684210526315"/>
      <point x="691.3894736842105" y="635.8315789473684" type="curve"/>
      <point x="492.4" y="635.8315789473684" type="line"/>
      <point x="418.6947368421052" y="636.1684210526315"/>
      <point x="285.17894736842106" y="638.5052631578948"/>
      <point x="166.31578947368422" y="640.8421052631578" type="curve"/>
      <point x="146.08421052631581" y="543.8736842105263" type="line"/>
      <point x="265.11578947368423" y="546.2105263157894"/>
      <point x="400.79999999999995" y="548.5473684210526"/>
      <point x="474.5052631578947" y="548.8842105263158" type="curve"/>
      <point x="673.4947368421053" y="548.8842105263158" type="line"/>
      <point x="742.1894736842106" y="548.5473684210526"/>
      <point x="868.3578947368421" y="546.2105263157894"/>
      <point x="977.8736842105263" y="543.8736842105263" type="curve"/>
      <point x="925.8315789473685" y="608.421052631579" type="line"/>
      <point x="892.9894736842106" y="454.37894736842105" type="line"/>
      <point x="875.978947368421" y="379.01052631578943"/>
      <point x="845.3052631578946" y="245.49473684210525"/>
    </contour>
  </outline>
</glyph>
<glyph name="registered" format="2">
  <advance width="1128.378947368421"/>
  <unicode hex="00AE"/>
  <outline>
    <contour>
      <point x="677.5157894736842" y="525.0947368421052" type="curve" smooth="yes"/>
      <point x="976.5684210526316" y="525.0947368421052"/>
      <point x="1160.0631578947368" y="730.7789473684211"/>
      <point x="1160.0631578947368" y="1007.1368421052632" type="curve" smooth="yes"/>
      <point x="1160.0631578947368" y="1274.821052631579"/>
      <point x="985.0736842105263" y="1488.842105263158"/>
      <point x="674.6736842105263" y="1488.842105263158" type="curve" smooth="yes"/>
      <point x="366.77894736842103" y="1488.842105263158"/>
      <point x="186.6315789473684" y="1278.6526315789474"/>
      <point x="186.6315789473684" y="1006.9684210526316" type="curve" smooth="yes"/>
      <point x="186.6315789473684" y="746.1263157894737"/>
      <point x="353.28421052631575" y="525.0947368421052"/>
    </contour>
    <contour>
      <point x="480.8" y="733.6421052631579" type="curve"/>
      <point x="556.4210526315788" y="733.6421052631579" type="line"/>
      <point x="554.0842105263157" y="816.1263157894737"/>
      <point x="553.7473684210526" y="833.3263157894737"/>
      <point x="551.4105263157894" y="921.6421052631579" type="curve"/>
      <point x="551.4105263157894" y="1105.6421052631579" type="line"/>
      <point x="553.7473684210526" y="1192.2947368421053"/>
      <point x="554.0842105263157" y="1213.157894736842"/>
      <point x="556.2526315789473" y="1293.957894736842" type="curve"/>
      <point x="480.29473684210524" y="1303.6421052631579" type="line"/>
      <point x="482.63157894736844" y="1220.8210526315788"/>
      <point x="482.9684210526316" y="1200.1263157894737"/>
      <point x="485.30526315789473" y="1113.6421052631579" type="curve"/>
      <point x="485.30526315789473" y="921.6421052631579" type="line"/>
      <point x="483.13684210526316" y="832.9894736842105"/>
      <point x="482.9684210526316" y="816.6315789473684"/>
    </contour>
    <contour>
      <point x="677.3473684210526" y="589.978947368421" type="curve"/>
      <point x="410.4631578947368" y="594.4842105263158"/>
      <point x="252.69473684210527" y="750.021052631579"/>
      <point x="252.69473684210527" y="1006.9684210526316" type="curve" smooth="yes"/>
      <point x="252.69473684210527" y="1260.442105263158"/>
      <point x="414.9684210526315" y="1419.621052631579"/>
      <point x="674.8421052631579" y="1424.1263157894737" type="curve"/>
      <point x="935.0526315789474" y="1419.621052631579"/>
      <point x="1092.1684210526314" y="1263.6000000000001"/>
      <point x="1092.1684210526314" y="1007.1368421052632" type="curve" smooth="yes"/>
      <point x="1092.1684210526314" y="751.3263157894737"/>
      <point x="933.7052631578947" y="594.4842105263158"/>
    </contour>
    <contour>
      <point x="830.9263157894737" y="733.6421052631579" type="curve"/>
      <point x="927.0526315789473" y="733.6421052631579" type="line"/>
      <point x="889.3894736842105" y="778.3157894736842"/>
      <point x="836.9052631578948" y="841.6421052631579"/>
      <point x="789.7473684210526" y="897.978947368421" type="curve"/>
      <point x="699.7684210526315" y="1010.3157894736842" type="line"/>
      <point x="675.3894736842105" y="978.1263157894737" type="line"/>
      <point x="815.8947368421052" y="978.1263157894737"/>
      <point x="869.3894736842105" y="1054.2947368421053"/>
      <point x="869.3894736842105" y="1146.8" type="curve" smooth="yes"/>
      <point x="869.3894736842105" y="1259.3052631578948"/>
      <point x="791.3894736842105" y="1305.9789473684211"/>
      <point x="675.5157894736842" y="1305.9789473684211" type="curve"/>
      <point x="593.6631578947367" y="1305.9789473684211"/>
      <point x="528.3157894736842" y="1303.6421052631579"/>
      <point x="480.29473684210524" y="1303.6421052631579" type="curve"/>
      <point x="530.2105263157894" y="1242.9052631578948" type="line"/>
      <point x="673.0105263157894" y="1242.9052631578948" type="line" smooth="yes"/>
      <point x="720.6526315789473" y="1242.9052631578948"/>
      <point x="800.778947368421" y="1239.0736842105264"/>
      <point x="800.778947368421" y="1144.778947368421" type="curve" smooth="yes"/>
      <point x="800.778947368421" y="1056.3157894736842"/>
      <point x="739.6421052631579" y="1029.3263157894737"/>
      <point x="648.1894736842105" y="1029.3263157894737" type="curve" smooth="yes"/>
      <point x="539.2210526315789" y="1029.3263157894737" type="line"/>
      <point x="539.2210526315789" y="972.7789473684211" type="line"/>
      <point x="669.8947368421052" y="972.7789473684211" type="line"/>
      <point x="628.0" y="1000.1473684210526" type="line"/>
      <point x="729.1368421052631" y="871.8105263157895" type="line"/>
      <point x="761.7894736842104" y="827.6421052631579"/>
      <point x="792.4421052631578" y="785.8105263157895"/>
    </contour>
  </outline>
</glyph>
<glyph name="degree" format="2">
  <advance width="922.9894736842106"/>
  <unicode hex="00B0"/>
  <outline>
    <contour>
      <point x="548.5684210526315" y="648.0842105263158" type="curve" smooth="yes"/>
      <point x="746.8" y="648.0842105263158"/>
      <point x="900.8210526315789" y="754.7578947368421"/>
      <point x="947.6631578947369" y="976.4631578947368" type="curve" smooth="yes"/>
      <point x="992.3368421052631" y="1191.6631578947367"/>
      <point x="839.6421052631579" y="1393.6842105263158"/>
      <point x="602.0631578947368" y="1393.6842105263158" type="curve" smooth="yes"/>
      <point x="396.0" y="1393.6842105263158"/>
      <point x="244.31578947368422" y="1273.178947368421"/>
      <point x="198.14736842105265" y="1059.4947368421053" type="curve" smooth="yes"/>
      <point x="149.13684210526316" y="836.2736842105263"/>
      <point x="299.66315789473686" y="648.0842105263158"/>
    </contour>
    <contour>
      <point x="551.9157894736842" y="729.9578947368421" type="curve"/>
      <point x="348.52631578947364" y="734.2947368421053"/>
      <point x="246.25263157894736" y="869.8947368421053"/>
      <point x="282.2315789473684" y="1047.621052631579" type="curve" smooth="yes"/>
      <point x="316.37894736842105" y="1219.8526315789472"/>
      <point x="431.8105263157895" y="1307.1368421052632"/>
      <point x="598.8842105263158" y="1311.8105263157895" type="curve"/>
      <point x="790.6105263157895" y="1307.1368421052632"/>
      <point x="898.3789473684211" y="1160.042105263158"/>
      <point x="862.5684210526316" y="988.6526315789473" type="curve" smooth="yes"/>
      <point x="824.5894736842106" y="810.0842105263158"/>
      <point x="717.8105263157895" y="734.4631578947368"/>
    </contour>
  </outline>
</glyph>
<glyph name="plusminus" format="2">
  <advance width="1125.0526315789473"/>
  <unicode hex="00B1"/>
  <outline>
    <contour>
      <point x="28.61052631578947" y="-5.010526315789473" type="line"/>
      <point x="147.6421052631579" y="-2.673684210526316"/>
      <point x="283.157894736842" y="-0.3368421052631579"/>
      <point x="357.0315789473684" y="0.0" type="curve"/>
      <point x="556.021052631579" y="0.0" type="line"/>
      <point x="629.5578947368422" y="-0.3368421052631579"/>
      <point x="765.0736842105263" y="-2.673684210526316"/>
      <point x="883.7684210526315" y="-5.010526315789473" type="curve"/>
      <point x="904.0" y="91.9578947368421" type="line"/>
      <point x="784.9684210526316" y="89.62105263157893"/>
      <point x="649.2842105263157" y="87.28421052631579"/>
      <point x="575.578947368421" y="86.94736842105263" type="curve"/>
      <point x="376.58947368421053" y="86.94736842105263" type="line"/>
      <point x="302.88421052631577" y="87.28421052631579"/>
      <point x="167.53684210526316" y="89.62105263157893"/>
      <point x="48.8421052631579" y="91.9578947368421" type="curve"/>
    </contour>
    <contour>
      <point x="179.2842105263158" y="704.5263157894738" type="line"/>
      <point x="298.3157894736842" y="706.8631578947368"/>
      <point x="435.83157894736837" y="709.2"/>
      <point x="509.53684210526313" y="709.5368421052632" type="curve"/>
      <point x="708.5263157894738" y="709.5368421052632" type="line"/>
      <point x="782.2315789473685" y="709.2"/>
      <point x="915.7473684210527" y="706.8631578947368"/>
      <point x="1034.4421052631576" y="704.5263157894738" type="curve"/>
      <point x="1054.6736842105263" y="801.4947368421052" type="line"/>
      <point x="935.8105263157895" y="799.1578947368422"/>
      <point x="800.1263157894737" y="796.8210526315789"/>
      <point x="726.421052631579" y="796.4842105263158" type="curve"/>
      <point x="527.4315789473684" y="796.4842105263158" type="line"/>
      <point x="453.72631578947363" y="796.8210526315789"/>
      <point x="318.37894736842105" y="799.1578947368422"/>
      <point x="199.5157894736842" y="801.4947368421052" type="curve"/>
    </contour>
    <contour>
      <point x="468.4" y="290.4842105263158" type="curve"/>
      <point x="568.378947368421" y="290.4842105263158" type="line"/>
      <point x="592.5473684210527" y="413.0105263157895"/>
      <point x="618.5473684210525" y="544.8631578947368"/>
      <point x="633.0526315789474" y="618.5684210526316" type="curve"/>
      <point x="690.6947368421053" y="887.4526315789474" type="line"/>
      <point x="707.7052631578947" y="961.1578947368421"/>
      <point x="738.3789473684212" y="1096.6736842105263"/>
      <point x="765.3894736842105" y="1215.536842105263" type="curve"/>
      <point x="665.4105263157895" y="1215.536842105263" type="line"/>
      <point x="643.0736842105264" y="1098.5052631578947"/>
      <point x="615.2421052631579" y="959.3263157894736"/>
      <point x="600.7368421052631" y="887.4526315789474" type="curve"/>
      <point x="543.0947368421052" y="618.5684210526316" type="line"/>
      <point x="527.9157894736841" y="546.6947368421053"/>
      <point x="497.2421052631579" y="411.17894736842106"/>
    </contour>
  </outline>
</glyph>
<glyph name="micro" format="2">
  <advance width="1105.0736842105264"/>
  <unicode hex="00B5"/>
  <outline>
    <contour>
      <point x="-28.12631578947369" y="-388.6736842105263" type="curve"/>
      <point x="82.27368421052631" y="-384.0" type="line"/>
      <point x="110.92631578947369" y="-235.01052631578946"/>
      <point x="135.57894736842107" y="-105.85263157894737"/>
      <point x="167.89473684210526" y="54.463157894736845" type="curve" smooth="yes"/>
      <point x="188.37894736842105" y="149.7263157894737" type="line"/>
      <point x="155.53684210526316" y="149.7263157894737" type="line"/>
      <point x="182.21052631578948" y="41.62105263157895"/>
      <point x="265.34736842105264" y="-19.178947368421053"/>
      <point x="406.4421052631579" y="-19.178947368421053" type="curve" smooth="yes"/>
      <point x="510.39999999999986" y="-19.178947368421053"/>
      <point x="688.0" y="103.76842105263157"/>
      <point x="778.5052631578947" y="184.2736842105263" type="curve"/>
      <point x="790.5263157894736" y="184.2736842105263" type="line"/>
      <point x="798.1894736842106" y="0.0" type="line"/>
      <point x="891.3263157894736" y="0.0" type="line"/>
      <point x="886.3368421052631" y="95.8736842105263"/>
      <point x="883.178947368421" y="167.26315789473688"/>
      <point x="881.8526315789474" y="253.45263157894732" type="curve"/>
      <point x="943.4947368421052" y="542.6736842105263" type="line"/>
      <point x="980.3368421052631" y="707.7052631578948"/>
      <point x="1010.1684210526317" y="840.3578947368421"/>
      <point x="1044.0" y="989.3473684210526" type="curve"/>
      <point x="938.9684210526316" y="989.3473684210526" type="line"/>
      <point x="909.978947368421" y="840.3578947368421"/>
      <point x="882.9894736842105" y="705.3684210526316"/>
      <point x="852.1684210526315" y="547.2210526315789" type="curve"/>
      <point x="797.5157894736843" y="292.94736842105254" type="line"/>
      <point x="663.621052631579" y="168.21052631578948"/>
      <point x="502.8842105263158" y="72.27368421052631"/>
      <point x="426.94736842105266" y="72.27368421052631" type="curve" smooth="yes"/>
      <point x="245.24210526315787" y="72.27368421052631"/>
      <point x="196.94736842105263" y="179.7263157894737"/>
      <point x="239.09473684210528" y="376.9684210526316" type="curve"/>
      <point x="273.5789473684211" y="547.2210526315789" type="line"/>
      <point x="309.41052631578947" y="705.7052631578947"/>
      <point x="341.41052631578947" y="845.0315789473684"/>
      <point x="375.41052631578947" y="994.021052631579" type="curve"/>
      <point x="267.36842105263156" y="989.3473684210526" type="line"/>
      <point x="238.54736842105262" y="840.6947368421053"/>
      <point x="211.5578947368421" y="705.7052631578946"/>
      <point x="180.2315789473684" y="542.3368421052631" type="curve"/>
      <point x="76.06315789473685" y="56.65263157894737" type="line"/>
      <point x="39.052631578947356" y="-105.85263157894737"/>
      <point x="6.378947368421045" y="-239.68421052631578"/>
    </contour>
  </outline>
</glyph>
<glyph name="paragraph" format="2">
  <advance width="1059.4947368421053"/>
  <unicode hex="00B6"/>
  <outline>
    <contour>
      <point x="515.663157894737" y="617.7473684210527" type="curve" smooth="yes"/>
      <point x="521.0315789473684" y="617.7473684210527" type="line"/>
      <point x="685.978947368421" y="1426.0" type="line"/>
      <point x="608.8421052631579" y="1426.0" type="line"/>
      <point x="419.76842105263154" y="1426.0"/>
      <point x="244.94736842105263" y="1294.3157894736842"/>
      <point x="196.61052631578946" y="1062.4631578947367" type="curve" smooth="yes"/>
      <point x="148.2736842105263" y="834.1052631578947"/>
      <point x="266.1263157894737" y="617.7473684210527"/>
    </contour>
    <contour>
      <point x="265.3052631578948" y="-348.5052631578947" type="curve"/>
      <point x="353.01052631578955" y="-348.5052631578947" type="line"/>
      <point x="400.67368421052635" y="-114.33684210526316"/>
      <point x="444.16842105263163" y="97.15789473684212"/>
      <point x="487.8315789473685" y="311.4947368421053" type="curve"/>
      <point x="584.0" y="766.0" type="line"/>
      <point x="632.5052631578948" y="985.8315789473685"/>
      <point x="677.1789473684212" y="1188.3368421052633"/>
      <point x="729.6842105263158" y="1426.0" type="curve"/>
      <point x="647.1578947368421" y="1426.0" type="line"/>
      <point x="597.1578947368421" y="1191.8315789473684"/>
      <point x="553.1578947368421" y="982.1684210526316"/>
      <point x="507.15789473684214" y="766.0" type="curve"/>
      <point x="410.98947368421057" y="311.4947368421053" type="line"/>
      <point x="362.48421052631585" y="91.66315789473687"/>
      <point x="317.8105263157895" y="-110.8421052631579"/>
    </contour>
    <contour>
      <point x="535.9157894736842" y="-348.5052631578947" type="curve"/>
      <point x="623.621052631579" y="-348.5052631578947" type="line"/>
      <point x="671.1157894736843" y="-114.33684210526316"/>
      <point x="714.4421052631579" y="97.15789473684212"/>
      <point x="757.9368421052632" y="311.4947368421053" type="curve"/>
      <point x="854.1052631578947" y="766.0" type="line"/>
      <point x="902.6105263157895" y="985.8315789473685"/>
      <point x="949.1157894736842" y="1197.4947368421053"/>
      <point x="999.7894736842105" y="1426.0" type="curve"/>
      <point x="911.5789473684209" y="1426.0" type="line"/>
      <point x="864.0842105263156" y="1191.8315789473684"/>
      <point x="820.757894736842" y="980.3368421052633"/>
      <point x="777.2631578947368" y="766.0" type="curve"/>
      <point x="681.0947368421052" y="311.4947368421053" type="line"/>
      <point x="632.757894736842" y="91.66315789473687"/>
      <point x="588.2526315789472" y="-110.8421052631579"/>
    </contour>
    <contour>
      <point x="656.7368421052632" y="1350.842105263158" type="line"/>
      <point x="855.7263157894737" y="1350.842105263158" type="line"/>
      <point x="929.2631578947369" y="1350.5052631578947"/>
      <point x="1062.9473684210525" y="1348.1684210526316"/>
      <point x="1181.6421052631579" y="1345.8315789473684" type="curve"/>
      <point x="1199.0105263157895" y="1426.0" type="line"/>
      <point x="1080.1473684210525" y="1426.0"/>
      <point x="944.6315789473684" y="1426.0"/>
      <point x="870.9263157894736" y="1426.0" type="curve"/>
      <point x="671.9368421052632" y="1426.0" type="line"/>
    </contour>
  </outline>
</glyph>
<glyph name="ordmasculine" format="2">
  <advance width="906.021052631579"/>
  <unicode hex="00BA"/>
  <outline>
    <contour>
      <point x="533.5157894736842" y="668.1473684210526" type="curve" smooth="yes"/>
      <point x="731.7263157894737" y="668.1473684210526"/>
      <point x="887.5578947368422" y="811.6421052631579"/>
      <point x="931.8947368421053" y="1020.9894736842105" type="curve" smooth="yes"/>
      <point x="980.0631578947368" y="1247.3263157894735"/>
      <point x="860.7157894736843" y="1450.6736842105263"/>
      <point x="613.8315789473684" y="1450.6736842105263" type="curve" smooth="yes"/>
      <point x="431.93684210526317" y="1450.6736842105263"/>
      <point x="261.62105263157895" y="1324.0"/>
      <point x="215.45263157894738" y="1099.494736842105" type="curve" smooth="yes"/>
      <point x="169.28421052631577" y="876.6526315789474"/>
      <point x="282.4631578947368" y="668.1473684210526"/>
    </contour>
    <contour>
      <point x="537.8526315789475" y="744.8210526315789" type="curve"/>
      <point x="336.9894736842105" y="749.1578947368421"/>
      <point x="259.5368421052632" y="903.4105263157895"/>
      <point x="297.5157894736842" y="1087.8105263157895" type="curve" smooth="yes"/>
      <point x="331.8315789473684" y="1257.7263157894738"/>
      <point x="451.0947368421053" y="1369.8315789473684"/>
      <point x="613.3263157894737" y="1374.0" type="curve"/>
      <point x="796.2105263157896" y="1369.4947368421053"/>
      <point x="891.3052631578947" y="1233.2210526315791"/>
      <point x="849.6631578947369" y="1030.842105263158" type="curve" smooth="yes"/>
      <point x="815.3473684210526" y="866.5894736842106"/>
      <point x="700.0842105263158" y="749.1578947368421"/>
    </contour>
  </outline>
</glyph>
